<ttFont>
<head>
    <!-- Most of this table will be recalculated by the compiler -->
    <tableVersion value="1.0"/>
    <fontRevision value="2.004"/>
    <checkSumAdjustment value="0x71fb81f0"/>
    <magicNumber value="0x5f0f3cf5"/>
    <flags value="00000000 00000011"/>
    <unitsPerEm value="1000"/>
    <created value="Thu Oct  8 09:56:56 2009"/>
    <modified value="Thu Oct  8 09:56:56 2009"/>
    <xMin value="-515"/>
    <yMin value="-298"/>
    <xMax value="1647"/>
    <yMax value="1125"/>
    <macStyle value="00000000 00000000"/>
    <lowestRecPPEM value="3"/>
    <fontDirectionHint value="2"/>
    <indexToLocFormat value="0"/>
    <glyphDataFormat value="0"/>
  </head>
          <CharString index="0">
            841 hmoveto
            39 -22 vlineto
            -69 -7 11 27 -11 hvcurveto
            -253 613 rlineto
            20 -8 -9 4 -14 hhcurveto
            -21 -4 -9 -15 -6 hvcurveto
            -242 -586 rlineto
            -51 -21 -46 -14 -54 hhcurveto
            -39 vlineto
            4 36 36 0 36 hhcurveto
            39 68 -3 -1 17 hvcurveto
            39 vlineto
            -52 -22 25 22 6 2 3 4 11 hvcurveto
            49 119 rlineto
            299 hlineto
            60 -144 rlineto
            2 -4 3 -7 -4 vvcurveto
            -27 -57 0 -27 vhcurveto
            -39 vlineto
            155 4 rlineto
            -152 260 rmoveto
            -267 hlineto
            134 324 rlineto
            return
          </CharString>
          <CharString index="1">
            55 -37 -53 vlineto
            -10 0 -45 -39 -39 0 45 10 vhcurveto
            206 vlineto
            93 -95 55 -112 -48 -118 -5 -84 -27 18 -22 31 29 19 22 26 18 -8 17 -18 8 vhcurveto
            15 33 50 0 10 hhcurveto
            71 55 -42 -76 hvcurveto
            -26 vlineto
            -46 -2 -80 -2 -73 -26 rrcurveto
            -66 -23 -63 -45 -67 vvcurveto
            return
          </CharString>
          <CharString index="2">
            0 callsubr
            -101 callgsubr
            hintmask 01000001
            -52 7 33 -23 35 hhcurveto
            4 107 0 95 hvcurveto
            -198 52 rmoveto
            hintmask 10000110
            -67 callsubr
            return
          </CharString>
          <CharString index="3">
            -20 -105 callsubr
            hintmask 00011000
            return
          </CharString>
          <CharString index="4">
            562 213 rmoveto
            125 -112 108 -145 -146 -111 -108 -125 -122 113 -101 144 144 113 101 122 vhcurveto
            -95 9 rmoveto
            -48 0 -149 -162 -162 0 149 48 31 0 69 37 41 vhcurveto
            36 34 43 15 48 hhcurveto
            48 45 -15 -37 33 hvcurveto
            36 -41 0 -67 -32 vvcurveto
            return
          </CharString>
          <CharString index="5">
            rmoveto
            26 7 -20 26 -27 hhcurveto
            -15 -11 -9 0 hvcurveto
            -169 -124 18 -33 186 83 14 6 14 7 3 18 rlinecurve
            endchar
          </CharString>
          <CharString index="6">
            70 -39 48 -15 15 vhcurveto
            -51 51 -30 6 -124 26 -94 21 rcurveline
            -52 17 -48 44 57 vvcurveto
            67 66 62 98 53 51 -14 -33 41 vhcurveto
            59 -47 11 -72 4 -24 rrcurveto
            -15 2 1 -7 16 hhcurveto
            19 0 9 19 hvcurveto
            192 vlineto
            17 0 11 -16 -4 -6 0 -13 -8 vhcurveto
            -37 -57 rlineto
            56 -57 -72 14 -58 hhcurveto
            -130 -97 -88 -103 -52 24 -44 36 -34 hvcurveto
            45 -41 34 -7 112 -23 103 -22 23 -5 31 -29 rrcurveto
            12 -12 33 -32 -53 vvcurveto
            -69 -62 -72 -104 -86 -156 26 160 -8 vhcurveto
            15 -1 0 8 -17 hhcurveto
            -19 0 -9 -20 hvcurveto
            -191 98 callsubr
            9 2 4 8 5 vhcurveto
            3 3 21 32 14 21 return
          </CharString>
          <CharString index="7">
            772 266 rmoveto
            -37 hlineto
            -154 -27 -28 -73 -190 hhcurveto
            -170 hlineto
            -49 0 8 31 hvcurveto
            255 108 vlineto
            101 20 -27 -90 hvcurveto
            37 273 -37 hlineto
            -90 -20 -27 -101 vhcurveto
            -108 229 hlineto
            31 0 8 49 vhcurveto
            161 hlineto
            return
          </CharString>
          <CharString index="8">
            rmoveto
            -95 callgsubr
            endchar
          </CharString>
          <CharString index="9">
            872 239 149 callsubr
            -30 -61 -2 -48 hhcurveto
            -53 -85 0 4 -50 hvcurveto
            -39 43 vlineto
            103 0 -13 -33 hvcurveto
            -63 vlineto
            -24 0 -38 -61 -27 vhcurveto
            -23 -50 -65 0 -10 hhcurveto
            -137 -178 80 244 250 184 73 121 75 56 -31 -33 37 hvcurveto
            70 -63 13 -71 6 -41 rrcurveto
            -11 2 13 0 4 hhcurveto
            20 0 8 20 hvcurveto
            233 vlineto
            17 0 11 -16 -9 -2 -4 -9 -7 vhcurveto
            -55 -76 rlineto
            56 -59 -73 33 -87 hhcurveto
            -224 -180 -164 -198 -194 173 -169 235 60 116 9 70 49 hvcurveto
            -29 20 36 -29 9 hhcurveto
            14 0 13 15 hvcurveto
            168 vlineto
            43 10 0 71 vhcurveto
            return
          </CharString>
          <CharString index="10">
            rmoveto
            22 -19 31 -44 -42 -46 -17 -29 -35 vhcurveto
            23 -33 -45 12 -43 hhcurveto
            -108 -80 -69 -79 hvcurveto
            hintmask 1110010001010110
            -31 13 -36 36 -33 vhcurveto
            -22 -28 -7 -28 -24 vvcurveto
            -55 35 -30 6 -5 vhcurveto
            -39 -11 -61 -32 -56 vvcurveto
            -77 121 -52 138 128 131 46 85 25 -8 64 -80 33 vhcurveto
            24 -57 -57 0 -94 hhcurveto
            -24 -39 0 2 -8 hvcurveto
            -26 4 -25 25 35 vvcurveto
            21 10 14 2 3 vhcurveto
            -14 24 40 -16 50 hhcurveto
            111 77 71 76 56 -41 37 -2 2 hvcurveto
            30 45 43 2 15 hhcurveto
            -3 -4 -4 -4 -14 vvcurveto
            -18 13 -15 20 22 12 16 18 vhcurveto
            -204 -105 rmoveto
            hintmask 1001101000100100
            -19 0 -96 -103 -83 -21 61 53 19 0 96 103 89 15 -70 -44 vhcurveto
            123 -370 rmoveto
            -49 -82 -47 -112 vhcurveto
            hintmask 0100000001011010
            -108 -86 45 52 25 23 51 84 hvcurveto
            111 hlineto
            31 139 -2 -75 hvcurveto
            return
          </CharString>
          <CharString index="11">
            830 644 rmoveto
            39 vlineto
            -1 -19 -65 -3 -42 hhcurveto
            -46 -63 3 1 -18 hvcurveto
            -39 vlineto
            106 0 -45 -26 hvcurveto
            -419 vlineto
            -405 515 rlineto
            13 -11 -1 1 -21 hhcurveto
            -180 -39 32 hlineto
            23 25 0 -5 19 hvcurveto
            6 -1 1 -1 -17 vvcurveto
            -510 vlineto
            -26 0 -45 -106 121 callgsubr
            19 65 3 42 hhcurveto
            46 63 -3 -1 18 hvcurveto
            39 vlineto
            -106 0 45 26 hvcurveto
            499 vlineto
            470 -597 rlineto
            -10 8 1 -2 12 hhcurveto
            21 0 10 20 hvcurveto
            543 vlineto
            26 0 45 106 vhcurveto
            return
          </CharString>
          <CharString index="12">
            49 callgsubr
            hintmask 11110011
            -104 callgsubr
            return
          </CharString>
          <CharString index="13">
            862 644 rmoveto
            39 vlineto
            -3 -35 -34 -1 -35 hhcurveto
            -41 -70 3 1 -12 hvcurveto
            -39 vlineto
            29 22 -11 -23 -7 -3 -10 -10 -14 hvcurveto
            -190 -257 -207 281 rlineto
            -10 12 0 2 6 vvcurveto
            18 28 3 37 vhcurveto
            39 vlineto
            -159 -4 rlineto
            -55 -61 3 1 -23 hvcurveto
            -39 21 vlineto
            59 18 -6 -29 21 hvcurveto
            247 -336 rlineto
            -189 vlineto
            11 callsubr
            155 98 callgsubr
            -79 -2 10 37 hvcurveto
            187 vlineto
            228 309 rlineto
            58 43 63 4 33 hhcurveto
            return
          </CharString>
          <CharString index="14">
            70 9 -7 -49 hvcurveto
            -167 vlineto
            -91 -63 -55 -77 -95 -4 42 49 vhcurveto
            328 vlineto
            -162 -11 rlineto
            -39 vlineto
            79 0 -9 -59 hvcurveto
            -156 vlineto
            -68 0 -44 45 -33 vhcurveto
            -28 38 50 -4 42 hhcurveto
            return
          </CharString>
          <CharString index="15">
            rmoveto
            -22 23 rlineto
            hintmask 00010000
            -38 -40 -26 -6 -23 hhcurveto
            -24 -22 9 11 -25 hvcurveto
            hintmask 00001000
            -86 callsubr
            hintmask 00010000
            143 callsubr
            24 22 -9 -11 25 hvcurveto
            hintmask 00010000
            -88 callsubr
          </CharString>
          <CharString index="16">
            rmoveto
            -151 117 -151 -117 10 -16 140 66 140 -66 rlineto
            return
          </CharString>
          <CharString index="17">
            -20 -92 callgsubr
            hintmask 00110000
            return
          </CharString>
          <CharString index="18">
            -96 callgsubr
            hintmask 0000011000000000
            return
          </CharString>
          <CharString index="19">
            -14 32 23 -10 27 hhcurveto
            22 25 8 23 26 hvcurveto
            26 22 -25 -20 50 48 rrcurveto
            endchar
          </CharString>
          <CharString index="20">
            830 hmoveto
            39 -26 vlineto
            -80 0 12 33 hvcurveto
            515 -94 callgsubr
            -224 -353 224 -94 callgsubr
            -515 -49 callsubr
            156 -4 rlineto
            -39 callgsubr
            252 353 -252 -49 callsubr
            rlineto
            return
          </CharString>
          <CharString index="21">
            14 -32 -23 10 -27 hhcurveto
            -22 -25 -8 -23 -26 hvcurveto
            -26 -22 25 20 -50 -48 rrcurveto
            return
          </CharString>
          <CharString index="22">
            166 36 -48 -146 19 hvcurveto
            37 hlineto
            -31 233 rlineto
            -643 -68 callgsubr
            hlineto
            return
          </CharString>
          <CharString index="23">
            -90 callgsubr
            hintmask 00001100
            return
          </CharString>
          <CharString index="24">
            690 266 rmoveto
            -37 hlineto
            -121 -12 -31 -106 -181 hhcurveto
            -109 hlineto
            -49 0 8 31 hvcurveto
            521 vlineto
            33 0 12 96 vhcurveto
            37 39 hlineto
            -4 -53 -73 0 -54 hhcurveto
            -159 4 rlineto
            -63 callgsubr
            -515 39 callsubr
            return
          </CharString>
          <CharString index="25">
            865 93 rmoveto
            6 0 15 -19 -16 -1 -12 -10 -1 vhcurveto
            -48 -4 -30 -33 -39 hhcurveto
            -56 -13 59 64 -8 hvcurveto
            -10 81 -11 78 -64 32 -50 16 rlinecurve
            91 25 88 56 79 vvcurveto
            103 -143 79 -158 vhcurveto
            -354 -16 callsubr
            return
          </CharString>
          <CharString index="26">
            72 callgsubr
            hintmask 1010101100000000
            582 478 rmoveto
            38 -24 35 -36 -40 -20 -30 -30 -30 20 -31 40 vhcurveto
            5 1 -12 -21 -20 -15 -24 -5 rlinecurve
            37 -48 -59 19 -60 hhcurveto
            -67 -65 -23 -45 -50 hvcurveto
            -47 -43 -28 -60 -63 vvcurveto
            -61 29 -56 46 -40 vhcurveto
            -44 50 65 -21 67 hhcurveto
            66 65 21 44 50 hvcurveto
            hintmask 0000000010000000
            46 40 30 56 61 vvcurveto
            55 -22 53 -37 40 vhcurveto
            hintmask 1010001100000000
            48 11 32 51 56 vvcurveto
            -116 -254 rmoveto
            -52 -4 -53 -32 -40 vhcurveto
            -37 -31 -47 -17 -48 hhcurveto
            -48 -48 17 37 -30 hvcurveto
            -32 40 -4 53 52 vvcurveto
            49 4 51 32 37 vhcurveto
            hintmask 0100000010000000
            36 31 47 17 48 hhcurveto
            47 48 -17 -36 31 hvcurveto
            31 -37 5 -51 -49 vvcurveto
            return
          </CharString>
          <CharString index="27">
            67 -31 45 -45 -39 -21 -29 -31 -31 21 -29 39 16 17 5 12 11 vhcurveto
            -60 -17 -66 -67 -56 vhcurveto
            -4 -2 -4 -4 -6 vvcurveto
            -8 9 -9 8 15 92 79 123 vhcurveto
            return
          </CharString>
          <CharString index="28">
            -85 callsubr
            hintmask 1000000000100000
            -39 660 vlineto
            return
          </CharString>
          <CharString index="29">
            865 hmoveto
            39 vlineto
            -53 -26 2 43 -35 hvcurveto
            -269 331 214 172 rlineto
            54 68 60 3 25 hhcurveto
            39 vlineto
            -1 -15 -38 -3 -39 hhcurveto
            -140 4 rlineto
            -39 vlineto
            15 21 -6 -21 -16 -15 -12 -7 -6 hvcurveto
            -360 -291 rlineto
            307 -94 callgsubr
            -515 -49 callsubr
            156 -4 rlineto
            -39 callgsubr
            160 vlineto
            142 115 213 -263 rlineto
            8 -10 8 -10 -11 vvcurveto
            -26 -33 0 -20 vhcurveto
            -39 vlineto
            154 4 rlineto
            return
          </CharString>
          <CharString index="30">
            rmoveto
            -49 -45 0 -25 -24 -46 0 49 49 45 0 25 24 46 0 -49 vhcurveto
            46 -1 rmoveto
            49 -50 40 -65 -71 -46 -44 -43 -49 50 -40 65 71 46 44 43 vhcurveto
            return
          </CharString>
          <CharString index="31">
            rmoveto
            -22 23 rlineto
            hintmask 00100000
            -38 -40 -26 -6 -23 hhcurveto
            -24 -22 9 11 -25 hvcurveto
            hintmask 00010000
            -86 callsubr
            hintmask 00100000
            22 -23 rlineto
            hintmask 00010000
            38 40 26 6 23 hhcurveto
            24 22 -9 -11 25 hvcurveto
            hintmask 00100000
            -88 callsubr
          </CharString>
          <CharString index="32">
            hstemhm
            141 83 239 83 12 120 hintmask 0000100000010000
            -5 callsubr
            hintmask 0000001000100000
            -17 -19 -26 -13 -31 -6 rrcurveto
            49 29 callgsubr
            hintmask 0000100000000000
            22 30 0 -9 13 hvcurveto
            hintmask 0011001001100000
            12 -8 1 -18 -16 vvcurveto
            -180 vlineto
            -76 -1 -60 -61 -75 hhcurveto
            -40 -27 5 18 -19 hvcurveto
            -14 14 -3 21 41 vvcurveto
            320 29 callgsubr
            hintmask 1000100001000000
            22 30 0 -9 13 hvcurveto
            13 -9 0 -20 -17 vvcurveto
            -214 vlineto
            -41 15 -38 31 -21 vhcurveto
            -26 37 43 -5 56 hhcurveto
            hintmask 0010000000000000
            61 54 33 50 29 hvcurveto
            hintmask 1000000000000000
            -83 vlineto
            hintmask 0100000000000000
            158 10 rlineto
            hintmask 1000000000000000
            39 vlineto
            hintmask 0100000000110000
            -7 callgsubr
            return
          </CharString>
          <CharString index="33">
            rmoveto
            21 -20 21 -25 -11 -15 -2 -28 -13 vhcurveto
            -65 -141 30 -21 104 118 rlineto
            7 8 8 10 14 vvcurveto
            194 hmoveto
            21 -20 21 -25 -11 -15 -2 -28 -13 vhcurveto
            -65 -141 30 -21 104 118 rlineto
            7 8 8 10 14 vvcurveto
            endchar
          </CharString>
          <CharString index="34">
            rmoveto
            -100 callgsubr
            237 hmoveto
            -100 callgsubr
            endchar
          </CharString>
          <CharString index="35">
            -20 73 callgsubr
            hintmask 1000100101000000
            -82 callsubr
            hintmask 0110000100000000
            -71 callsubr
            hintmask 1011000100000000
            -64 callsubr
            hintmask 0000100011000000
            -10 callsubr
            hintmask 0000011000000000
            return
          </CharString>
          <CharString index="36">
            11 callsubr
            154 -4 rlineto
            -39 callgsubr
            242 142 vlineto
            53 41 -16 -22 26 hvcurveto
            37 -32 0 -22 -71 vvcurveto
            -67 0 -41 55 -42 vhcurveto
            return
          </CharString>
          <CharString index="37">
            -33 0 -12 -80 vhcurveto
            -26 return
          </CharString>
          <CharString index="38">
            -83 callgsubr
            39 vlineto
            -15 callsubr
            return
          </CharString>
          <CharString index="39">
            -11 rlineto
            -39 vlineto
            70 9 -7 -49 hvcurveto
            return
          </CharString>
          <CharString index="40">
            -104 -103 -16 -32 -54 -51 33 50 56 54 73 186 6 vhcurveto
            return
          </CharString>
          <CharString index="41">
            -91 callsubr
            -21 186 rmoveto
            -18 -33 -186 83 -14 6 -14 7 -3 18 rlinecurve
            26 -6 19 26 27 hhcurveto
            15 11 -9 0 hvcurveto
            endchar
          </CharString>
          <CharString index="42">
            80 -46 callsubr
            return
          </CharString>
          <CharString index="43">
            -18 25 49 -16 54 hhcurveto
            86 28 76 38 hvcurveto
            -254 408 rmoveto
            -109 -90 -34 -112 vhcurveto
            -140 247 hlineto
            28 2 7 25 3 vhcurveto
            return
          </CharString>
          <CharString index="44">
            683 342 rmoveto
            188 -153 153 -188 -189 -153 -153 -188 -189 153 -153 189 188 153 153 189 vhcurveto
            -52 hmoveto
            -160 -129 -130 -160 -160 -130 130 160 160 130 129 160 160 129 -129 -160 vhcurveto
            return
          </CharString>
          <CharString index="45">
            71 66 42 92 96 vvcurveto
            -111 17 rmoveto
            -87 -19 -88 -55 -67 vhcurveto
            -61 -50 -74 -36 -78 hhcurveto
            -79 -74 36 61 -49 hvcurveto
            -55 67 -19 88 87 vvcurveto
            81 20 82 54 60 vhcurveto
            58 51 74 32 77 hhcurveto
            77 74 -32 -58 51 hvcurveto
            53 -60 21 -82 -81 vvcurveto
            return
          </CharString>
          <CharString index="46">
            -151 -29 callsubr
            2 25 74 2 22 53 callsubr
            14 hvcurveto
            39 -22 vlineto
            return
          </CharString>
          <CharString index="47">
            31 -21 29 -39 -16 -17 -5 -12 -11 vhcurveto
            60 17 66 67 56 vhcurveto
            4 2 4 4 6 vvcurveto
            8 -9 9 -8 -15 -92 -79 -123 -67 31 -45 45 39 21 29 31 vhcurveto
            return
          </CharString>
          <CharString index="48">
            rmoveto
            -100 callgsubr
            199 hmoveto
            -100 callgsubr
            endchar
          </CharString>
          <CharString index="49">
            rmoveto
            -10 16 -140 -66 -140 66 -12 -16 151 -117 rlineto
            endchar
          </CharString>
          <CharString index="50">
            -70 callsubr
            -39 hlineto
            return
          </CharString>
          <CharString index="51">
            -44 rmoveto
            485 vlineto
            -166 -11 rlineto
            -39 vlineto
            77 10 -7 -49 hvcurveto
            -380 vlineto
            -47 -13 -80 -64 -15 -22 3 5 -14 vhcurveto
            9 5 13 8 29 vvcurveto
            28 -21 20 -27 -29 -20 -20 -29 return
          </CharString>
          <CharString index="52">
            rmoveto
            -258 hlineto
            -41 -24 1 3 -39 hvcurveto
            -49 3 -12 1 -5 24 rrcurveto
            -37 hlineto
            -36 -219 rlineto
            37 hlineto
            3 21 10 59 15 11 rrcurveto
            6 8 86 0 15 hhcurveto
            226 hlineto
            -89 -107 rlineto
            -97 -117 -68 -142 -152 vvcurveto
            -9 0 -48 48 49 0 46 13 vhcurveto
            28 vlineto
            192 41 98 50 60 vhcurveto
            158 188 rlineto
            9 10 0 2 28 vvcurveto
            endchar
          </CharString>
          <CharString index="53">
            11 5 15 12 24 vvcurveto
            27 -19 18 -26 -24 -21 -16 -30 -48 49 -35 57 89 51 85 30 15 vhcurveto
            206 419 29 60 49 1 21 1 rlinecurve
            return
          </CharString>
          <CharString index="54">
            -77 callsubr
            endchar
          </CharString>
          <CharString index="55">
            55 -37 -53 vlineto
            -71 -37 -32 -37 -72 0 81 19 vhcurveto
            267 164 39 -164 184 -37 vlineto
            -1 -89 -43 -98 -101 -4 rrcurveto
            -32 vlineto
            return
          </CharString>
          <CharString index="56">
            16 callgsubr
            84 -21 194 -44 callsubr
            return
          </CharString>
          <CharString index="57">
            1207 -21 32 -11 39 0 39 257 39 -32 32 76 32 123 39 0 39 -11 32 hstemhm
            92 107 411 87 256 37 100 37 -4 37 hintmask 0011001000110100
            1160 266 rmoveto
            -37 hlineto
            -151 -27 -23 -76 -178 hhcurveto
            -149 hlineto
            -49 0 8 31 hvcurveto
            257 127 vlineto
            99 30 -19 -98 hvcurveto
            37 273 -37 hlineto
            -97 -30 -20 -99 vhcurveto
            -127 231 hlineto
            31 0 8 49 vhcurveto
            140 hlineto
            hintmask 0000010100001000
            165 21 -61 -133 18 hvcurveto
            37 hlineto
            -31 233 rlineto
            -441 hlineto
            -12 -20 0 9 -45 hvcurveto
            hintmask 1000000011000000
            11 -62 -18 1 -21 hhcurveto
            -209 -176 -163 -202 -203 179 -157 206 16 18 0 10 51 hvcurveto
            hintmask 0100000000000100
            8 46 21 3 26 hhcurveto
            458 hlineto
            -503 342 rmoveto
            -136 0 -50 -5 -38 vhcurveto
            hintmask 1000110011100000
            -72 -9 -19 -35 -94 hhcurveto
            -163 -121 159 184 176 124 142 160 114 10 -50 -140 2 hvcurveto
            endchar
          </CharString>
          <CharString index="58">
            -48 callsubr
            156 4 return
          </CharString>
          <CharString index="59">
            vlineto
            -57 callsubr
            return
          </CharString>
          <CharString index="60">
            11 -3 7 -12 -12 vvcurveto
            -383 vlineto
            -68 33 -64 53 -45 vhcurveto
            -47 56 73 -25 75 hhcurveto
            69 66 26 47 49 hvcurveto
            49 46 28 63 67 vvcurveto
            372 vlineto
            71 8 58 52 69 vvcurveto
            return
          </CharString>
          <CharString index="61">
            0 -12 -33 hvcurveto
            return
          </CharString>
          <CharString index="62">
            -80 callsubr
            endchar
          </CharString>
          <CharString index="63">
            -20 -75 callsubr
            return
          </CharString>
          <CharString index="64">
            836 335 rmoveto
            193 -161 155 -194 vhcurveto
            -414 27 callgsubr
            -39 415 hlineto
            193 161 149 186 hvcurveto
            -107 1 rmoveto
            -65 -11 -88 -52 -58 vhcurveto
            -68 -62 -85 -18 -65 hhcurveto
            -136 hlineto
            return
          </CharString>
          <CharString index="65">
            4 20 -29 12 -6 -19 -12 -41 -34 -20 -33 2 return
          </CharString>
          <CharString index="66">
            -181 hlineto
            -22 -9 0 -23 -10 hvcurveto
            -252 -565 -252 565 rlineto
            23 -10 -9 0 -22 hhcurveto
            -181 -39 26 hlineto
            -65 callsubr
            -489 vlineto
            -26 0 -45 -106 121 callgsubr
            19 65 3 42 hhcurveto
            46 63 -3 -1 18 hvcurveto
            39 vlineto
            -106 0 45 26 hvcurveto
            525 1 vlineto
            273 -612 rlineto
            -8 3 7 -15 17 hhcurveto
            17 7 16 7 3 hvcurveto
            277 621 rlineto
            return
          </CharString>
          <CharString index="67">
            -44 -1 50 -59 74 hhcurveto
            56 63 41 64 14 hvcurveto
            return
          </CharString>
          <CharString index="68">
            870 0 74 23 74 501 32 hstemhm
            79 111 134 111 -1 111 134 111 hintmask 11111010
            803 171 rmoveto
            -37 hlineto
            -6 -26 -7 -33 -8 -18 rrcurveto
            -11 -5 -3 -9 -62 hhcurveto
            -89 hlineto
            17 51 26 36 48 61 rrcurveto
            58 73 55 69 90 vvcurveto
            136 -153 114 -202 -205 -151 -115 -135 -90 55 -69 58 -74 vhcurveto
            44 -55 29 -39 18 -53 rrcurveto
            -89 hlineto
            -62 -4 9 14 -5 hvcurveto
            -6 15 -6 23 -8 36 rrcurveto
            -37 hlineto
            38 -171 rlineto
            190 28 callgsubr
            75 -41 87 -29 61 hvcurveto
            -32 65 -32 70 72 vvcurveto
            hintmask 11100110
            141 121 77 123 129 116 -80 -138 -66 -26 -63 -35 -74 vhcurveto
            -33 -68 -40 -84 -75 vvcurveto
            -24 8 0 22 vhcurveto
            190 hlineto
            endchar
          </CharString>
          <CharString index="69">
            853 338 rmoveto
            98 -42 94 -71 67 vhcurveto
            -21 18 rlineto
            45 14 28 48 53 vvcurveto
            39 -24 35 -36 -40 -20 -31 -30 -30 20 -30 40 vhcurveto
            5 hlineto
            return
          </CharString>
          <CharString index="70">
            935 -10 32 196 32 -24 70 callgsubr
            hstemhm
            48 88 322 83 274 73 hintmask 00100100
            888 120 rmoveto
            5 -2 11 -17 -13 -3 -7 -10 -3 vhcurveto
            -76 -28 -68 -18 -41 hhcurveto
            -39 -133 20 181 hvcurveto
            317 hlineto
            hintmask 11011010
            155 callgsubr
            -59 -77 -20 -79 -60 hvcurveto
            61 -45 -74 38 -84 hhcurveto
            -136 -111 -101 -127 -124 109 -104 138 78 74 32 70 54 hvcurveto
            -57 39 79 -45 89 hhcurveto
            130 50 106 24 148 callsubr
            hintmask 10111110
            -272 hlineto
            125 13 88 33 48 hhcurveto
            117 5 -131 -27 1 hvcurveto
            -357 -33 rmoveto
            -174 -116 -27 -46 -38 -122 20 181 175 124 16 36 49 113 -28 -163 vhcurveto
            endchar
          </CharString>
          <CharString index="71">
            546 -10 35 61 32 108 70 callgsubr
            return
          </CharString>
          <CharString index="72">
            819 0 -43 callgsubr
            return
          </CharString>
          <CharString index="73">
            -103 -59 -67 -55 -21 -76 10 159 160 75 10 22 56 58 -69 -100 vhcurveto
            return
          </CharString>
          <CharString index="74">
            rmoveto
            243 -111 94 -128 -129 -116 -92 -132 -75 28 -42 36 -36 vhcurveto
            -43 44 48 -26 73 hhcurveto
            87 47 57 39 21 hvcurveto
            -76 -7 -75 -36 -60 vhcurveto
            -39 -25 -48 -50 -78 hhcurveto
            -23 -54 3 26 -28 hvcurveto
            return
          </CharString>
          <CharString index="75">
            hmoveto
            -61 callgsubr
            220 vlineto
            return
          </CharString>
          <CharString index="76">
            35 callsubr
            2 27 68 2 22 hhcurveto
            117 -4 rlineto
            -61 callgsubr
            91 vlineto
            76 55 112 -130 rlineto
            11 -13 14 -15 -14 vvcurveto
            -14 -16 -3 -11 vhcurveto
            -39 vlineto
            2 21 70 2 26 hhcurveto
            39 45 -3 -1 9 hvcurveto
            return
          </CharString>
          <CharString index="77">
            -77 callsubr
            1 223 -102 callsubr
          </CharString>
          <CharString index="78">
            -68 callsubr
            -253 -80 callgsubr
            return
          </CharString>
          <CharString index="79">
            33 -27 27 -33 -33 -27 -27 -33 -33 27 -27 33 33 27 27 33 vhcurveto
            return
          </CharString>
          <CharString index="80">
            204 rmoveto
            34 -4 64 -61 57 vhcurveto
            32 -35 -44 35 -85 hhcurveto
            -70 -51 -36 -59 -34 hvcurveto
            1 50 2 83 35 62 rrcurveto
            76 44 66 30 60 hhcurveto
            23 46 -4 -28 24 hvcurveto
            -37 -6 -6 -26 -16 vvcurveto
            return
          </CharString>
          <CharString index="81">
            rmoveto
            42 -420 -42 vlineto
            endchar
          </CharString>
          <CharString index="82">
            61 -46 50 -102 -155 -152 -135 -213 -243 113 -95 132 39 68 6 59 61 vhcurveto
            32 32 39 40 88 vvcurveto
            -100 hmoveto
            -69 -2 -34 -34 -40 vhcurveto
            -30 -24 -32 -16 -48 hhcurveto
            return
          </CharString>
          <CharString index="83">
            328 -33 callsubr
            hintmask 0100001000000000
            32 7 9 22 19 vvcurveto
            26 -18 22 -30 vhcurveto
            hintmask 1010010001000000
            -30 -19 -19 -31 -81 75 -30 87 154 139 140 209 hvcurveto
            -103 93 rmoveto
            -90 -59 -80 -88 -62 -27 31 21 -16 vhcurveto
            hintmask 0001100010000000
            -28 38 -1 43 57 vvcurveto
            59 0 39 33 41 vhcurveto
            34 28 33 18 52 hhcurveto
            135 0 -171 -40 hvcurveto
            endchar
          </CharString>
          <CharString index="84">
            -21 -31 callgsubr
            hintmask 0001000010000000
            -55 -31 -96 -100 -6 vhcurveto
            hintmask 1010000100010000
            -1 -18 -27 -2 -9 hhcurveto
            -10 -1 -11 -1 -15 vvcurveto
            -16 11 0 17 vhcurveto
            58 hlineto
            85 57 -57 -102 -110 -66 -48 -73 -27 -103 6 58 -45 hvcurveto
            hintmask 1100010001010000
            39 4 16 26 27 vvcurveto
            34 -24 23 -33 -27 -30 -17 -42 -99 110 -56 127 148 99 95 99 vhcurveto
            endchar
          </CharString>
          <CharString index="85">
            35 callsubr
            1 7 68 3 45 hhcurveto
            return
          </CharString>
          <CharString index="86">
            384 80 callsubr
            241 32 hstemhm
            65 79 0 79 105 94 hintmask 11110000
            422 630 rmoveto
            44 -43 30 -60 -81 -94 -56 -107 vhcurveto
            -110 77 callsubr
            2 25 74 2 22 53 callsubr
            14 hvcurveto
            39 -22 vlineto
            return
          </CharString>
          <CharString index="87">
            819 0 39 -35 35 268 35 263 62 callsubr
            359 111 hintmask 01001100
            739 493 rmoveto
            104 -123 86 -149 vhcurveto
            -400 27 callgsubr
            hlineto
            hintmask 10000000
            -39 vlineto
            hintmask 01000000
            156 4 rlineto
            hintmask 10110110
            156 -4 rlineto
            -39 callgsubr
            223 203 vlineto
            129 134 78 108 hvcurveto
            -111 hmoveto
            -61 -15 -90 -171 vhcurveto
            -173 263 hlineto
            31 0 8 49 vhcurveto
            124 hlineto
            157 29 -74 -77 hvcurveto
            endchar
          </CharString>
          <CharString index="88">
            -419 3 callsubr
            return
          </CharString>
          <CharString index="89">
            611 -205 33 173 71 41 33 0 33 115 71 0 33 10 33 return
          </CharString>
          <CharString index="90">
            562 213 rmoveto
            125 -112 108 -145 -146 -111 -108 -125 -108 89 -92 121 -19 vhcurveto
            -35 -32 -33 -47 -43 vvcurveto
            -40 callsubr
            -42 callsubr
            102 callsubr
            13 22 17 20 20 15 rrcurveto
            138 6 107 98 119 vvcurveto
            -95 9 rmoveto
            -48 0 -149 -162 -162 0 149 48 31 0 69 37 41 vhcurveto
            36 34 43 15 48 hhcurveto
            48 45 -15 -37 33 hvcurveto
            36 -41 0 -67 -32 vvcurveto
            return
          </CharString>
          <CharString index="91">
            -39 26 hlineto
            -65 callsubr
            -515 vlineto
            return
          </CharString>
          <CharString index="92">
            -69 -10 0 43 hvcurveto
            176 vlineto
            return
          </CharString>
          <CharString index="93">
            30 callsubr
            229 37 165 37 -4 37 return
          </CharString>
          <CharString index="94">
            -20 hstemhm
            133 38 callgsubr
            hintmask 10011000
            -1 callsubr
            hintmask 01100000
            return
          </CharString>
          <CharString index="95">
            676 -10 20 callgsubr
            return
          </CharString>
          <CharString index="96">
            225 rmoveto
            67 -14 69 -48 48 vhcurveto
            47 -47 -69 15 -67 hhcurveto
            -67 -69 -15 -47 -47 hvcurveto
            -48 -48 -14 -69 -67 vvcurveto
            -67 14 -69 48 -48 vhcurveto
            -47 47 69 -15 67 hhcurveto
            67 69 15 47 47 hvcurveto
            48 48 14 69 67 vvcurveto
            -95 hmoveto
            -56 -6 -58 -32 -46 vhcurveto
            -36 -25 -43 -18 -44 hhcurveto
            -44 -43 18 36 -25 hvcurveto
            -32 46 -6 58 56 vvcurveto
            56 6 58 32 46 vhcurveto
            36 25 43 18 44 hhcurveto
            44 43 -18 -36 25 hvcurveto
            32 -46 6 -58 -56 vvcurveto
            endchar
          </CharString>
          <CharString index="97">
            1 8 38 0 23 hhcurveto
            103 143 0 -143 hvcurveto
            return
          </CharString>
          <CharString index="98">
            149 rmoveto
            -30 hlineto
            -16 2 -58 -4 -23 hvcurveto
            -2 -12 -14 -1 -12 hhcurveto
            -213 hlineto
            167 76 rlineto
            74 35 77 46 87 vvcurveto
            122 -153 21 -96 vhcurveto
            hintmask 00100000
            -64 -146 -11 -108 -20 11 -25 31 25 18 17 25 hvcurveto
            hintmask 11011000
            20 -11 14 -18 7 vhcurveto
            32 32 54 9 44 hhcurveto
            67 104 -18 -87 -80 -101 -58 -53 -30 hvcurveto
            -186 -106 rlineto
            -14 -8 -17 -3 -22 -6 1 -8 -5 vvcurveto
            440 hlineto
            endchar
          </CharString>
          <CharString index="99">
            vlineto
            48 60 0 -30 -31 -124 0 -91 hvcurveto
            -19 -38 38 hlineto
            128 162 0 69 return
          </CharString>
          <CharString index="100">
            vlineto
            31 0 8 49 vhcurveto
            135 hlineto
            71 78 -22 -61 58 hvcurveto
            56 -60 13 -91 -74 vvcurveto
            return
          </CharString>
          <CharString index="101">
            32 vstem
            252 28 callsubr
            return
          </CharString>
          <CharString index="102">
            678 476 rmoveto
            39 -24 36 -36 -40 -20 -30 -30 -30 20 -31 40 vhcurveto
            2 hlineto
            return
          </CharString>
          <CharString index="103">
            92 callsubr
            hintmask 0000100000000000
            65 callsubr
            hintmask 0000100000000000
            38 40 26 6 23 hhcurveto
            24 22 -9 -11 25 hvcurveto
            hintmask 0001000000000000
            -88 callsubr
          </CharString>
          <CharString index="104">
            440 rmoveto
            -60 callsubr
            return
          </CharString>
          <CharString index="105">
            319 rmoveto
            73 0 273 -245 -245 0 -273 -73 -72 0 -268 245 245 0 268 72 vhcurveto
            -95 13 rmoveto
            -64 0 -101 -17 -56 vhcurveto
            -87 -28 -72 -13 -33 hhcurveto
            -42 -68 20 83 -24 hvcurveto
            -16 58 0 98 62 vvcurveto
            67 0 77 14 54 vhcurveto
            90 25 76 13 35 hhcurveto
            46 66 -22 -76 22 hvcurveto
            15 -53 1 -73 -77 vvcurveto
            endchar
          </CharString>
          <CharString index="106">
            242 535 rmoveto
            -100 callgsubr
            237 hmoveto
            -100 callgsubr
            return
          </CharString>
          <CharString index="107">
            10 callgsubr
            hintmask 01100111
            return
          </CharString>
          <CharString index="108">
            107 callgsubr
            5 -2 11 -17 -13 -2 -6 -12 -4 vhcurveto
            -74 -30 -75 -19 -46 hhcurveto
            -55 -47 25 36 -28 hvcurveto
            -37 47 0 66 27 vvcurveto
            326 28 callgsubr
            77 -43 119 -166 -140 -102 -107 -120 -121 106 -99 134 -8 hvcurveto
            -37 -30 -26 -42 -1 -47 5 callsubr
            return
          </CharString>
          <CharString index="109">
            851 729 rmoveto
            39 -24 36 -36 -40 -20 -31 -30 -30 20 -30 40 vhcurveto
            return
          </CharString>
          <CharString index="110">
            144 rmoveto
            -100 callgsubr
            237 hmoveto
            -100 callgsubr
            return
          </CharString>
          <CharString index="111">
            hmoveto
            -61 callgsubr
            612 vlineto
            return
          </CharString>
          <CharString index="112">
            rrcurveto
            -40 callsubr
            return
          </CharString>
          <CharString index="113">
            -277 -21 145 90 return
          </CharString>
          <CharString index="114">
            0 callgsubr
            139 42 hstemhm
            64 79 0 79 hintmask 10100100
            293 hmoveto
            39 vlineto
            -62 -9 0 42 hvcurveto
            360 vlineto
            hintmask 01000100
            -154 -11 rlineto
            -39 vlineto
            66 80 callgsubr
            hintmask 10001000
            -82 callgsubr
            117 4 rlineto
            10 76 -2 -2 26 hvcurveto
            hintmask 00010000
            return
          </CharString>
          <CharString index="115">
            -91 callsubr
            55 254 rmoveto
            -22 23 rlineto
            return
          </CharString>
          <CharString index="116">
            32 -27 42 377 32 return
          </CharString>
          <CharString index="117">
            164 rmoveto
            39 -117 442 vlineto
            23 0 7 -25 -18 -2 -3 -12 -9 vhcurveto
            -347 -457 rlineto
            -39 311 -80 vlineto
            -33 0 -12 -84 vhcurveto
            -29 -39 hlineto
            158 4 158 -4 rlineto
            39 -29 vlineto
            -84 -26 callgsubr
            80 vlineto
            -83 39 rmoveto
            -275 hlineto
            275 363 rlineto
            endchar
          </CharString>
          <CharString index="118">
            -57 callsubr
            154 4 return
          </CharString>
          <CharString index="119">
            rmoveto
            32 -26 28 -34 -33 -27 -28 -32 -32 26 -28 34 33 27 28 32 vhcurveto
            return
          </CharString>
          <CharString index="120">
            -156 -4 -155 4 rlineto
            -39 vlineto
            29 41 0 -6 18 hvcurveto
            return
          </CharString>
          <CharString index="121">
            6 callsubr
            63 39 return
          </CharString>
          <CharString index="122">
            127 callgsubr
            160 vlineto
            -39 41 47 -19 55 hhcurveto
            139 119 99 127 hvcurveto
            -95 hmoveto
            -112 -80 -82 -89 -77 -45 55 29 -15 vhcurveto
            225 vlineto
            47 34 55 28 59 hhcurveto
            91 67 -88 -102 hvcurveto
            endchar
          </CharString>
          <CharString index="123">
            79 111 554 111 return
          </CharString>
          <CharString index="124">
            20 callsubr
            rrcurveto
            return
          </CharString>
          <CharString index="125">
            hmoveto
            39 -43 vlineto
            -103 0 13 33 hvcurveto
            550 vlineto
            30 -4 0 -30 vhcurveto
            -64 -66 -102 0 -36 hhcurveto
            -39 vlineto
            26 66 0 28 60 hvcurveto
            -505 vlineto
            -33 0 -13 -103 vhcurveto
            -43 -39 hlineto
            4 55 78 0 56 hhcurveto
            56 78 0 -4 55 hvcurveto
            endchar
          </CharString>
          <CharString index="126">
            26 callgsubr
            -78 579 rmoveto
            15 -12 11 -14 vhcurveto
            return
          </CharString>
          <CharString index="127">
            rmoveto
            -42 callsubr
            return
          </CharString>
          <CharString index="128">
            546 -200 38 61 38 hstem
            235 76 32 94 vstem
            437 -131 rmoveto
            52 -65 16 -61 vhcurveto
            69 -76 -107 -8 callsubr
            hvcurveto
            endchar
          </CharString>
          <CharString index="129">
            17 -35 -37 12 -41 hhcurveto
            -86 -89 -30 -76 -61 58 -44 65 110 120 15 83 18 hvcurveto
            -52 79 78 -60 95 hhcurveto
            83 49 88 91 hvcurveto
            -464 -28 rmoveto
            -72 -85 -27 -83 -44 -41 26 41 57 72 11 65 vhcurveto
            return
          </CharString>
          <CharString index="130">
            rmoveto
            27 -22 22 -27 -27 -22 -22 -27 -27 22 -22 27 27 22 22 27 vhcurveto
            return
          </CharString>
          <CharString index="131">
            -200 120 return
          </CharString>
          <CharString index="132">
            896 -21 123 callgsubr
            return
          </CharString>
          <CharString index="133">
            922 vlineto
            14 0 25 -26 -26 0 -25 -14 vhcurveto
            -922 52 callgsubr
            return
          </CharString>
          <CharString index="134">
            644 -204 32 51 32 481 39 return
          </CharString>
          <CharString index="135">
            582 -35 callgsubr
            return
          </CharString>
          <CharString index="136">
            35 100 3 264 32 191 -20 hstemhm
            135 83 return
          </CharString>
          <CharString index="137">
            hstemhm
            171 100 return
          </CharString>
          <CharString index="138">
            3 callsubr
            endchar
          </CharString>
          <CharString index="139">
            -34 callsubr
            -373 hmoveto
            -34 callsubr
            return
          </CharString>
          <CharString index="140">
            1019 41 callgsubr
            return
          </CharString>
          <CharString index="141">
            0 -6 0 0 -2 -3 -3 vhcurveto
            -11 -12 -1 -16 -3 vvcurveto
            -5 0 -21 21 -13 vhcurveto
            endchar
          </CharString>
          <CharString index="142">
            -158 -68 callsubr
            -506 -80 callgsubr
            return
          </CharString>
          <CharString index="143">
            -57 64 -24 63 84 71 64 96 vhcurveto
            return
          </CharString>
          <CharString index="144">
            83 callgsubr
            605 39 return
          </CharString>
          <CharString index="145">
            950 -32 callsubr
            102 -60 37 -98 -93 -55 -53 -38 -22 vhcurveto
            91 -23 -102 0 -28 hhcurveto
            -91 -56 -50 -42 -24 hvcurveto
            -1 92 hlineto
            return
          </CharString>
          <CharString index="146">
            -37 callgsubr
            hlineto
            return
          </CharString>
          <CharString index="147">
            rmoveto
            -34 callsubr
            return
          </CharString>
          <CharString index="148">
            rmoveto
            42 -216 -42 vlineto
            140 -64 0 140 hhcurveto
            endchar
          </CharString>
          <CharString index="149">
            104 104 62 108 hvcurveto
            452 vlineto
            43 10 0 70 vhcurveto
            return
          </CharString>
          <CharString index="150">
            107 48 107 96 65 64 -28 -49 25 vhcurveto
            -27 -1 -21 -21 -27 vvcurveto
            -27 22 -22 27 27 22 22 27 99 -98 65 -106 -131 -97 -117 -135 return
          </CharString>
          <CharString index="151">
            rmoveto
            23 2 -20 19 -24 hhcurveto
            -24 -20 -19 -23 2 hvcurveto
            23 -239 rlineto
            38 hlineto
            return
          </CharString>
          <CharString index="152">
            -25 3 -25 7 -9 3 rrcurveto
            5 -21 -32 8 -23 hhcurveto
            -40 -4 -32 -8 -14 7 -27 37 20 27 6 8 29 hvcurveto
            8 2 26 7 25 3 -2 return
          </CharString>
          <CharString index="153">
            rmoveto
            -20 45 -19 48 -24 43 rrcurveto
            19 -8 -10 17 -23 hhcurveto
            -23 -23 -19 -24 hvcurveto
            -5 vlineto
            3 -19 18 -15 13 -14 28 -32 29 -31 27 -33 rrcurveto
            return
          </CharString>
          <CharString index="154">
            617 79 callgsubr
            599 vlineto
            return
          </CharString>
          <CharString index="155">
            39 559 39 -1 40 -39 39 return
          </CharString>
          <CharString index="156">
            109 90 109 return
          </CharString>
          <CharString index="157">
            5 vlineto
            24 -23 19 -23 -33 -10 -40 -24 -11 vhcurveto
            -50 -108 32 -20 27 33 29 31 28 32 rlinecurve
            13 14 18 15 3 19 rrcurveto
            return
          </CharString>
          <CharString index="158">
            942 -21 62 callgsubr
            return
          </CharString>
          <CharString index="159">
            481 0 97 callgsubr
            return
          </CharString>
          <CharString index="160">
            hhcurveto
            52 69 -3 -1 return
          </CharString>
          <CharString index="161">
            rmoveto
            -14 17 rlineto
            -41 -49 -53 -30 -51 hhcurveto
            -40 -29 17 20 -35 hvcurveto
            17 -29 -31 17 -40 hhcurveto
            hintmask 00100000
            -25 -26 -8 -10 -22 hvcurveto
            return
          </CharString>
          <CharString index="162">
            364 305 rmoveto
            24 -31 vlineto
            -75 0 8 19 hvcurveto
            330 vlineto
            return
          </CharString>
          <CharString index="163">
            hmoveto
            -61 callgsubr
            361 vlineto
            -140 -9 -11 -1 -4 0 -3 -1 rlinecurve
            -1 -2 -2 0 -14 hhcurveto
            return
          </CharString>
          <CharString index="164">
            14 callsubr
            605 39 return
          </CharString>
          <CharString index="165">
            896 -21 40 625 35 -35 40 return
          </CharString>
          <CharString index="166">
            11 9 9 11 11 -9 9 -11 hvcurveto
            return
          </CharString>
          <CharString index="167">
            935 -21 37 562 37 53 36 return
          </CharString>
          <CharString index="168">
            546 -10 35 386 35 return
          </CharString>
          <CharString index="169">
            39 0 39 99 callgsubr
            return
          </CharString>
          <CharString index="170">
            32 247 39 0 39 return
          </CharString>
          <CharString index="171">
            24 0 10 22 4 vhcurveto
            return
          </CharString>
          <CharString index="172">
            -86 callsubr
            hintmask 0001000000000000
            22 -23 rlineto
            return
          </CharString>
          <CharString index="173">
            hlineto
            -81 -259 rlineto
            -5 -14 0 -4 0 vvcurveto
            -15 12 -11 14 18 5 13 14 4 vhcurveto
            88 276 rlineto
            return
          </CharString>
          <CharString index="174">
            vvcurveto
            30 0 9 -19 -18 0 -9 -18 vhcurveto
            -15 vlineto
            -40 0 -101 -116 -83 vhcurveto
            -20 -15 -40 -28 -63 vvcurveto
            return
          </CharString>
          <CharString index="175">
            30 callsubr
            77 121 31 37 165 37 -4 37 return
          </CharString>
          <CharString index="176">
            24 callsubr
            70 return
          </CharString>
          <CharString index="177">
            vlineto
            33 0 12 96 vhcurveto
            37 39 hlineto
            -179 -4 -180 4 rlineto
            -39 37 vlineto
            96 -46 callsubr
            return
          </CharString>
          <CharString index="178">
            hstem
            332 46 140 46 vstem
            518 return
          </CharString>
          <CharString index="179">
            120 hstem
            116 120 vstem
            236 return
          </CharString>
          <CharString index="180">
            488 -10 95 callsubr
            return
          </CharString>
          <CharString index="181">
            120 hstem
            115 121 vstem
            236 return
          </CharString>
          <CharString index="182">
            39 352 39 return
          </CharString>
          <CharString index="183">
            vstem
            617 217 rmoveto
            82 -67 67 -82 -82 -67 -67 -82 -82 67 -67 82 82 67 67 82 vhcurveto
            return
          </CharString>
          <CharString index="184">
            -92 -39 92 -310 -80 callgsubr
            return
          </CharString>
          <CharString index="185">
            380 120 194 -20 hstem
            return
          </CharString>
          <CharString index="186">
            79 75 callgsubr
            return
          </CharString>
          <CharString index="187">
            0 130 callgsubr
            return
          </CharString>
          <CharString index="188">
            rmoveto
            115 -69 87 -84 -16 callgsubr
            vhcurveto
            return
          </CharString>
          <CharString index="189">
            417 180 71 hstem
            53 310 vstem
            363 180 rmoveto
            71 -310 -71 vlineto
            endchar
          </CharString>
          <CharString index="190">
            51 callgsubr
            246 111 return
          </CharString>
          <CharString index="191">
            -34 callsubr
            endchar
          </CharString>
          <CharString index="192">
            -56 -49 -68 -39 -98 hhcurveto
            -94 -75 38 38 -50 hvcurveto
            return
          </CharString>
          <CharString index="193">
            48 callsubr
            hstemhm
            return
          </CharString>
          <CharString index="194">
            117 29 249 29 return
          </CharString>
          <CharString index="195">
            114 -82 106 -79 114 -59 106 17 114 0 101 -79 111 hintmask 0000101000100000
            return
          </CharString>
          <CharString index="196">
            -25 -67 rlineto
            -144 hlineto
            -26 67 rlineto
            155 -107 rmoveto
            -57 -152 -57 152 rlineto
            return
          </CharString>
          <CharString index="197">
            39 hstem
            171 100 353 100 vstem
            144 callsubr
            return
          </CharString>
          <CharString index="198">
            25 -3 25 -7 9 -3 rrcurveto
            -5 21 32 -8 23 hhcurveto
            37 7 27 14 hvcurveto
            endchar
          </CharString>
          <CharString index="199">
            rmoveto
            -22 23 rlineto
            hintmask 0001000000000000
            -38 -40 -26 -6 -23 hhcurveto
            -24 -22 9 11 -25 hvcurveto
            return
          </CharString>
          <CharString index="200">
            409 rmoveto
            44 -40 46 -86 18 vhcurveto
            57 16 46 38 49 vvcurveto
            48 -68 36 -86 return
          </CharString>
          <CharString index="201">
            935 -39 -21 39 32 661 32 39 -20 return
          </CharString>
          <CharString index="202">
            32 87 callsubr
            return
          </CharString>
          <CharString index="203">
            741 0 42 602 39 return
          </CharString>
          <CharString index="204">
            534 -21 176 -20 hstem
            return
          </CharString>
          <CharString index="205">
            vlineto
            -17 0 -11 16 return
          </CharString>
          <CharString index="206">
            vlineto
            -43 -10 0 -69 vhcurveto
            hintmask 10000000
            -39 vlineto
            hintmask 01000000
            1 7 68 3 45 hhcurveto
            return
          </CharString>
          <CharString index="207">
            621 216 rmoveto
            122 -108 103 -138 -53 -57 -15 -44 -49 vhcurveto
            return
          </CharString>
          <CharString index="208">
            1220 0 -21 665 39 return
          </CharString>
          <CharString index="209">
            -77 3 -21 51 29 51 return
          </CharString>
          <CharString index="210">
            826 144 rmoveto
            -38 hlineto
            -68 -66 -45 -71 -77 -65 41 41 -65 vhcurveto
            return
          </CharString>
          <CharString index="211">
            39 605 39 hstemhm
            177 41 34 41 return
          </CharString>
          <CharString index="212">
            83 callgsubr
            297 39 269 39 return
          </CharString>
          <CharString index="213">
            624 -21 32 46 114 473 39 return
          </CharString>
          <CharString index="214">
            39 30 callsubr
            return
          </CharString>
          <CharString index="215">
            hlineto
            -6 -5 -4 -6 -2 hvcurveto
            -4 -12 rlineto
            -9 -3 6 -9 10 hhcurveto
            return
          </CharString>
          <CharString index="216">
            -56 32 339 32 0 32 227 32 63 32 -15 32 hstemhm
            return
          </CharString>
          <CharString index="217">
            20 callgsubr
            130 callsubr
            160 83 -4 83 return
          </CharString>
          <CharString index="218">
            vhcurveto
            -11 -4 -25 -12 -33 vvcurveto
            -36 29 -15 21 22 29 14 38 return
          </CharString>
          <CharString index="219">
            146 callsubr
            111 return
          </CharString>
          <CharString index="220">
            32 callgsubr
            605 39 return
          </CharString>
          <CharString index="221">
            -14 -25 0 -26 -26 25 0 14 hvcurveto
            return
          </CharString>
          <CharString index="222">
            546 0 35 364 32 return
          </CharString>
          <CharString index="223">
            hstemhm
            140 callsubr
            return
          </CharString>
          <CharString index="224">
            0 75 callsubr
            -21 32 return
          </CharString>
          <CharString index="225">
            392 rmoveto
            39 vlineto
            0 return
          </CharString>
          <CharString index="226">
            611 502 -21 return
          </CharString>
          <CharString index="227">
            79 0 79 0 79 return
          </CharString>
          <CharString index="228">
            -24 -22 9 11 -25 hvcurveto
            hintmask 00001000
            14 -32 -23 10 -27 hhcurveto
            return
          </CharString>
          <CharString index="229">
            443 65 callgsubr
            -13 59 67 39 605 39 return
          </CharString>
          <CharString index="230">
            481 -228 -21 999 -20 21 -20 hstemhm
            hintmask 00100000
            return
          </CharString>
          <CharString index="231">
            63 callgsubr
            16 121 109 111 return
          </CharString>
          <CharString index="232">
            3 4 2 5 6 vvcurveto
            -59 -541 rmoveto
            -198 hlineto
            return
          </CharString>
          <CharString index="233">
            108 hstem
            -459 49 callsubr
            vstem
            -350 return
          </CharString>
          <CharString index="234">
            134 callgsubr
            70 return
          </CharString>
          <CharString index="235">
            -194 39 -35 35 145 32 return
          </CharString>
          <CharString index="236">
            hstemhm
            143 callgsubr
            return
          </CharString>
          <CharString index="237">
            hstemhm
            142 83 return
          </CharString>
          <CharString index="238">
            2 72 -2 rlineto
            18 -12 vlineto
            -37 0 5 16 hvcurveto
            return
          </CharString>
          <CharString index="239">
            hstemhm
            79 111 217 121 216 111 return
          </CharString>
          <CharString index="240">
            -21 -23 hlineto
            114 2 114 -2 rlineto
            23 vlineto
            return
          </CharString>
          <CharString index="241">
            hstemhm
            58 79 -12 121 -109 79 124 94 return
          </CharString>
          <CharString index="242">
            84 69 callgsubr
            return
          </CharString>
          <CharString index="243">
            79 69 callgsubr
            return
          </CharString>
          <CharString index="244">
            21 -21 483 -20 hstem
            return
          </CharString>
          <CharString index="245">
            94 69 callgsubr
            return
          </CharString>
          <CharString index="246">
            93 -21 176 -20 hstemhm
            return
          </CharString>
          <CharString index="247">
            171 41 471 41 return
          </CharString>
          <CharString index="248">
            0 39 0 39 return
          </CharString>
          <CharString index="249">
            -21 192 -20 return
          </CharString>
          <CharString index="250">
            22 -23 rlineto
            hintmask 00001000
            38 40 26 6 23 hhcurveto
            return
          </CharString>
          <CharString index="251">
            830 112 callgsubr
            return
          </CharString>
          <CharString index="252">
            120 callsubr
            cntrmask 00001110
            return
          </CharString>
          <CharString index="253">
            61 135 callgsubr
            return
          </CharString>
          <CharString index="254">
            109 13 100 15 109 return
          </CharString>
          <CharString index="255">
            hvcurveto
            -73 136 rmoveto
            return
          </CharString>
          <CharString index="256">
            rmoveto
            39 vlineto
            -2 return
          </CharString>
          <CharString index="257">
            rmoveto
            24 -85 265 vlineto
            14 0 4 -18 return
          </CharString>
          <CharString index="258">
            hlineto
            -11 -9 -6 -8 -8 9 -6 11 hvcurveto
            return
          </CharString>
          <CharString index="259">
            0 787 -21 176 -20 hstem
            -153 return
          </CharString>
          <CharString index="260">
            120 hstem
            -366 121 vstem
            -245 return
          </CharString>
          <CharString index="261">
            45 callgsubr
            51 108 return
          </CharString>
          <CharString index="262">
            14 25 0 26 hvcurveto
            endchar
          </CharString>
          <CharString index="263">
            39 221 39 return
          </CharString>
        <CharString name=".notdef">
          280 endchar
        </CharString>
        <CharString name="A">
          -28 callgsubr
          hstem
          -107 callsubr
          endchar
        </CharString>
        <CharString name="AE">
          -47 callgsubr
        </CharString>
        <CharString name="AE.dup">
          -47 callgsubr
        </CharString>
        <CharString name="AEacute">
          1078 141 callsubr
          231 39 257 39 0 39 82 -21 166 -20 hstemhm
          177 37 194 37 51 94 218 37 116 37 -4 37 hintmask 0111000001101000
          1031 266 rmoveto
          -37 hlineto
          -152 -27 -22 -75 -175 hhcurveto
          -131 hlineto
          -49 0 8 31 hvcurveto
          231 102 vlineto
          101 15 -30 -87 hvcurveto
          37 273 -37 hlineto
          -87 -15 -30 -101 vhcurveto
          -102 257 hlineto
          31 0 8 49 vhcurveto
          125 hlineto
          hintmask 0100100110010000
          166 13 -69 -125 18 hvcurveto
          37 hlineto
          -31 233 rlineto
          -642 -39 53 hlineto
          9 12 0 -1 9 hvcurveto
          -231 -539 rlineto
          -57 -24 -55 -8 -43 hhcurveto
          hintmask 1010000111001000
          -39 vlineto
          3 36 35 1 36 hhcurveto
          42 67 -3 -1 15 hvcurveto
          39 vlineto
          -55 1 -17 26 20 vvcurveto
          7 3 7 2 4 vhcurveto
          88 205 rlineto
          189 -227 hlineto
          -43 -10 0 -70 vhcurveto
          -39 568 vlineto
          -488 348 rmoveto
          -172 hlineto
          121 280 rlineto
          11 5 1 1 3 hhcurveto
          42 0 -27 -15 hvcurveto
          hintmask 0000011000000000
          199 260 -102 callsubr
        </CharString>
        <CharString name="Aacute">
          -28 callgsubr
          71 -21 166 -102 callgsubr
          188 270 -102 callsubr
        </CharString>
        <CharString name="Abreve">
          -28 callgsubr
          50 49 130 -102 callgsubr
          44 callgsubr
          endchar
        </CharString>
        <CharString name="Abreveacute">
          -28 callgsubr
          50 49 316 -102 callgsubr
          44 callgsubr
          -60 134 -102 callsubr
        </CharString>
        <CharString name="Abrevedotbelow">
          896 -200 120 80 6 callgsubr
          -20 50 49 130 -20 hstemhm
          387 121 hintmask 01111100
          -107 callsubr
          44 callgsubr
          hintmask 10000010
          -118 -1063 -99 callsubr
        </CharString>
        <CharString name="Abrevegrave">
          -28 callgsubr
          50 49 130 -102 callgsubr
          44 callgsubr
          -59 53 rmoveto
          -18 -33 -186 83 -14 6 -14 7 -3 18 rlinecurve
          26 -6 19 26 27 hhcurveto
          15 11 -9 0 hvcurveto
          endchar
        </CharString>
        <CharString name="Abrevehookabove">
          -28 callgsubr
          50 49 332 -102 callgsubr
          44 callgsubr
          -63 136 -107 callgsubr
        </CharString>
        <CharString name="Abrevetilde">
          -28 callgsubr
          50 49 170 60 -36 49 -42 49 -36 60 -106 callgsubr
          hintmask 00010001
          44 callgsubr
          17 121 rmoveto
          -22 23 rlineto
          hintmask 00001000
          -38 -40 -26 -6 -23 hhcurveto
          hintmask 00000010
          -24 -22 9 11 -25 hvcurveto
          hintmask 00000001
          14 -32 -23 10 -27 hhcurveto
          hintmask 00000100
          -22 -25 -8 -23 -26 hvcurveto
          -26 -22 25 20 -50 -48 rrcurveto
          hintmask 00001000
          22 -23 rlineto
          hintmask 00000001
          38 40 26 6 23 hhcurveto
          hintmask 00000100
          24 22 -9 -11 25 hvcurveto
          hintmask 00001000
          -14 32 23 -10 27 hhcurveto
          hintmask 00000010
          22 25 8 23 26 hvcurveto
          26 22 -25 -20 50 48 rrcurveto
          endchar
        </CharString>
        <CharString name="Acaron">
          -28 callgsubr
          61 -21 133 -69 callgsubr
          263 -58 callsubr
        </CharString>
        <CharString name="Acircumflex">
          -28 callgsubr
          61 -21 133 -69 callgsubr
          162 -91 callsubr
          endchar
        </CharString>
        <CharString name="Acircumflexacute">
          -28 callgsubr
          61 -21 319 -69 callgsubr
          162 -91 callsubr
          -22 267 -102 callsubr
        </CharString>
        <CharString name="Acircumflexdotbelow">
          896 -200 120 80 6 callgsubr
          -20 61 -21 133 -20 hstemhm
          387 121 hintmask 01111100
          -107 callsubr
          183 162 -91 callsubr
          hintmask 10000010
          -80 -874 -99 callsubr
        </CharString>
        <CharString name="Acircumflexgrave">
          -28 callgsubr
          61 -21 133 -69 callgsubr
          162 -66 callsubr
        </CharString>
        <CharString name="Acircumflexhookabove">
          -28 callgsubr
          61 -21 335 -69 callgsubr
          162 -91 callsubr
          89 269 -107 callgsubr
        </CharString>
        <CharString name="Acircumflextilde">
          -28 callgsubr
          61 -21 173 60 -16 60 -106 callgsubr
          hintmask 00010100
          183 162 8 callsubr
          hintmask 00001000
          -38 -40 -26 -6 -23 hhcurveto
          -24 -22 9 11 -25 hvcurveto
          hintmask 00000100
          -86 callsubr
          hintmask 00001000
          22 -23 rlineto
          hintmask 00000100
          38 40 26 6 23 hhcurveto
          24 22 -9 -11 25 hvcurveto
          hintmask 00001000
          -88 callsubr
        </CharString>
        <CharString name="Adblgrave">
          -28 callgsubr
          71 -21 192 -102 callgsubr
          143 177 -91 callgsubr
        </CharString>
        <CharString name="Adieresis">
          -28 callgsubr
          40 108 hstemhm
          276 38 callgsubr
          hintmask 11100000
          -107 callsubr
          hintmask 00011100
          -32 200 -73 callsubr
        </CharString>
        <CharString name="Adotbelow">
          896 -200 120 80 6 callgsubr
          -20 hstemhm
          387 121 hintmask 01110000
          -107 callsubr
          hintmask 10001000
          91 -728 -99 callsubr
        </CharString>
        <CharString name="Agrave">
          -28 callgsubr
          71 -21 166 -102 callgsubr
          110 189 -67 callgsubr
        </CharString>
        <CharString name="Ahookabove">
          -28 callgsubr
          82 -21 202 -102 callgsubr
          146 303 -107 callgsubr
        </CharString>
        <CharString name="Alpha">
          -28 callgsubr
          hstem
          -107 callsubr
          endchar
        </CharString>
        <CharString name="Amacron">
          -28 callgsubr
          60 42 -106 callgsubr
          hintmask 00010000
          242 166 -26 callsubr
        </CharString>
        <CharString name="Aogonek">
          109 callgsubr
          hstemhm
          547 294 hintmask 10111100
          841 hmoveto
          39 -22 vlineto
          -69 -7 11 27 -11 hvcurveto
          -253 613 rlineto
          20 -8 -9 4 -14 hhcurveto
          -21 -4 -9 -15 -6 hvcurveto
          -242 -586 rlineto
          -51 -21 -46 -14 -54 hhcurveto
          -39 vlineto
          4 36 36 0 36 hhcurveto
          39 68 -3 -1 17 hvcurveto
          39 vlineto
          -52 -22 25 22 6 2 3 4 11 hvcurveto
          49 119 rlineto
          299 hlineto
          60 -144 rlineto
          2 -4 3 -7 -4 vvcurveto
          -27 -57 0 -27 vhcurveto
          -39 vlineto
          121 3 -42 -30 -41 -48 -1 -53 rlinecurve
          -40 callsubr
          hintmask 01110100
          -42 callsubr
          -110 5 -3 108 100 62 rrcurveto
          -167 261 rmoveto
          -267 hlineto
          134 324 rlineto
          endchar
        </CharString>
        <CharString name="Aogonekacute">
          109 callgsubr
          138 callgsubr
          547 294 hintmask 10111001
          841 hmoveto
          39 -22 vlineto
          -69 -7 11 27 -11 hvcurveto
          -253 613 rlineto
          20 -8 -9 4 -14 hhcurveto
          -21 -4 -9 -15 -6 hvcurveto
          -242 -586 rlineto
          -51 -21 -46 -14 -54 hhcurveto
          -39 vlineto
          4 36 36 0 36 hhcurveto
          39 68 -3 -1 17 hvcurveto
          39 vlineto
          -52 -22 25 22 6 2 3 4 11 hvcurveto
          49 119 rlineto
          299 hlineto
          60 -144 rlineto
          2 -4 3 -7 -4 vvcurveto
          -27 -57 0 -27 vhcurveto
          -39 vlineto
          121 3 -42 -30 -41 -48 -1 -53 rlinecurve
          -40 callsubr
          hintmask 01110001
          -42 callsubr
          -110 5 -3 108 100 62 rrcurveto
          -167 261 rmoveto
          -267 hlineto
          134 324 rlineto
          hintmask 00000110
          188 270 -102 callsubr
        </CharString>
        <CharString name="Aring">
          -27 callgsubr
          39 98 39 hstemhm
          332 46 140 46 hintmask 11100000
          -107 callsubr
          hintmask 00111100
          101 214 -53 callsubr
        </CharString>
        <CharString name="Aringacute">
          -27 callgsubr
          39 98 39 186 -20 hstemhm
          332 46 140 46 hintmask 11100000
          -107 callsubr
          hintmask 00111110
          101 214 -30 callsubr
        </CharString>
        <CharString name="Atilde">
          -28 callgsubr
          40 60 -16 60 -106 callgsubr
          hintmask 00001000
          226 227 -92 callsubr
        </CharString>
        <CharString name="B">
          -32 callgsubr
        </CharString>
        <CharString name="Beta">
          -32 callgsubr
        </CharString>
        <CharString name="C">
          146 callgsubr
          hstem
          79 111 vstem
          -79 callgsubr
          -201 181 -162 223 183 124 128 127 hvcurveto
          endchar
        </CharString>
        <CharString name="Cacute">
          146 callgsubr
          112 callsubr
          hintmask 11001000
          -79 callgsubr
          -201 181 -162 223 183 124 128 127 hvcurveto
          hintmask 00110000
          -155 624 -102 callsubr
        </CharString>
        <CharString name="Ccaron">
          146 callgsubr
          51 -21 133 -20 hstemhm
          79 111 hintmask 11001000
          -79 callgsubr
          -201 181 -162 223 183 124 128 127 hvcurveto
          hintmask 00110000
          -160 617 -58 callsubr
        </CharString>
        <CharString name="Ccedilla">
          146 callgsubr
          hstem
          79 111 vstem
          -79 callgsubr
          -188 159 -154 203 -19 hvcurveto
          -82 vlineto
          48 60 0 -30 -31 -124 0 -91 hvcurveto
          -19 -38 38 hlineto
          127 163 0 69 52 -65 16 -61 hvcurveto
          43 vlineto
          164 15 109 120 119 vvcurveto
          endchar
        </CharString>
        <CharString name="Ccircumflex">
          146 callgsubr
          51 -21 133 -20 hstemhm
          79 111 hintmask 11001000
          -79 callgsubr
          -201 181 -162 223 183 124 128 127 hvcurveto
          hintmask 00110000
          -160 516 -91 callsubr
          endchar
        </CharString>
        <CharString name="Cdotaccent">
          146 callgsubr
          51 120 hstemhm
          79 111 228 121 hintmask 11010000
          -79 callgsubr
          -201 181 -162 223 183 124 128 127 hvcurveto
          hintmask 00101000
          -251 581 -99 callsubr
        </CharString>
        <CharString name="Chi">
          -42 callgsubr
        </CharString>
        <CharString name="D">
          916 141 callsubr
          527 62 callsubr
          460 107 hintmask 10011100
          -43 callsubr
          hintmask 01101100
          -49 0 8 31 hvcurveto
          527 77 callgsubr
        </CharString>
        <CharString name="Dcaron">
          916 141 callsubr
          527 39 0 39 102 callgsubr
          173 96 460 107 hintmask 10010011
          -43 callsubr
          hintmask 01100011
          -49 0 8 31 hvcurveto
          527 -7 callsubr
          hintmask 00001100
          -192 515 -58 callsubr
        </CharString>
        <CharString name="Dcroat">
          -25 callgsubr
        </CharString>
        <CharString name="Ddotbelow">
          916 32 callgsubr
          0 39 527 62 callsubr
          56 121 283 107 hintmask 01001101
          -43 callsubr
          hintmask 00110101
          -49 0 8 31 hvcurveto
          527 -7 callsubr
          hintmask 10000010
          -283 -476 -99 callsubr
        </CharString>
        <CharString name="Delta">
          1000 0 86 628 -20 hstem
          928 11 rmoveto
          3 -2 3 -3 6 vhcurveto
          -388 669 rlineto
          17 -10 -8 5 -18 hhcurveto
          -18 -8 -7 -15 -9 hvcurveto
          -387 -666 rlineto
          -2 -3 -4 -8 -4 vvcurveto
          -11 9 0 16 vhcurveto
          807 hlineto
          16 9 0 11 hvcurveto
          -157 75 rmoveto
          -613 hlineto
          306 528 rlineto
          endchar
        </CharString>
        <CharString name="Dlinebelow">
          916 -161 42 119 39 0 39 527 62 callsubr
          460 107 hintmask 01001110
          -43 callsubr
          hintmask 00110110
          -49 0 8 31 hvcurveto
          527 -7 callsubr
          hintmask 10000000
          -133 -497 -26 callsubr
        </CharString>
        <CharString name="E">
          -35 callsubr
          -14 callsubr
          hintmask 0111011010000000
          -100 callsubr
          hintmask 0100110100000000
          -85 callsubr
          hintmask 1000000010000000
          -39 660 vlineto
          endchar
        </CharString>
        <CharString name="Eacute">
          -35 callsubr
          86 -21 166 -96 callgsubr
          hintmask 0000011010000000
          -159 858 -102 callsubr
        </CharString>
        <CharString name="Ebreve">
          -35 callsubr
          65 49 130 -89 callsubr
          -138 923 -99 callgsubr
          endchar
        </CharString>
        <CharString name="Ecaron">
          -35 callsubr
          76 -21 133 -96 callgsubr
          hintmask 0000011100000000
          -164 851 -58 callsubr
        </CharString>
        <CharString name="Ecircumflex">
          -35 callsubr
          76 -21 133 -89 callsubr
          82 callgsubr
          endchar
        </CharString>
        <CharString name="Ecircumflexacute">
          -35 callsubr
          76 -21 319 -89 callsubr
          82 callgsubr
          -22 267 -102 callsubr
        </CharString>
        <CharString name="Ecircumflexdotbelow">
          819 -200 120 80 -43 callgsubr
          76 -21 133 -20 68 callsubr
          hintmask 0011100010101000
          -100 callsubr
          hintmask 0010010010010000
          -85 callsubr
          hintmask 0100001100001000
          -39 660 vlineto
          82 callgsubr
          hintmask 1000000001000000
          -80 -874 -99 callsubr
        </CharString>
        <CharString name="Ecircumflexgrave">
          -35 callsubr
          76 -21 133 -89 callsubr
          -164 750 -66 callsubr
        </CharString>
        <CharString name="Ecircumflexhookabove">
          -35 callsubr
          76 -21 335 -89 callsubr
          82 callgsubr
          89 269 -107 callgsubr
        </CharString>
        <CharString name="Ecircumflextilde">
          -35 callsubr
          76 -21 173 60 -16 60 -14 callsubr
          hintmask 0111000011010000
          -100 callsubr
          hintmask 0100100010100000
          -85 callsubr
          hintmask 1000000000010000
          -39 660 vlineto
          hintmask 0000010100000000
          -164 750 8 callsubr
          hintmask 0000001000000000
          -38 -40 -26 -6 -23 hhcurveto
          -24 -22 9 11 -25 hvcurveto
          hintmask 0000000100000000
          -86 callsubr
          hintmask 0000001000000000
          22 -23 rlineto
          hintmask 0000000100000000
          38 40 26 6 23 hhcurveto
          24 22 -9 -11 25 hvcurveto
          hintmask 0000001000000000
          -88 callsubr
        </CharString>
        <CharString name="Edblgrave">
          -35 callsubr
          86 -21 192 -89 callsubr
          -171 765 -91 callgsubr
        </CharString>
        <CharString name="Edieresis">
          -35 callsubr
          55 108 30 callsubr
          -34 38 callgsubr
          -83 37 165 37 -4 37 hintmask 0111001001010000
          -100 callsubr
          hintmask 0100101000100000
          -85 callsubr
          hintmask 1000000000010000
          -39 660 vlineto
          hintmask 0000010110000000
          -379 788 -73 callsubr
        </CharString>
        <CharString name="Edotaccent">
          -35 callsubr
          76 120 68 callsubr
          hintmask 0111001010100000
          -100 callsubr
          hintmask 0100101001000000
          -79 callsubr
          hintmask 0000010100000000
          -256 815 -99 callsubr
        </CharString>
        <CharString name="Edotbelow">
          819 -200 120 80 -43 callgsubr
          68 callsubr
          hintmask 0011101010100000
          -100 callsubr
          hintmask 0010011001000000
          -85 callsubr
          hintmask 0100000000100000
          -39 660 vlineto
          hintmask 1000000100000000
          -256 -140 -99 callsubr
        </CharString>
        <CharString name="Egrave">
          -35 callsubr
          86 -21 166 -89 callsubr
          -237 777 -67 callgsubr
        </CharString>
        <CharString name="Ehookabove">
          -35 callsubr
          97 -21 202 -89 callsubr
          -201 891 -107 callgsubr
        </CharString>
        <CharString name="Emacron">
          -35 callsubr
          75 42 -14 callsubr
          hintmask 0111001101000000
          -100 callsubr
          hintmask 0100101010000000
          -85 callsubr
          hintmask 1000000001000000
          -39 660 vlineto
          hintmask 0000010000000000
          -105 754 -26 callsubr
        </CharString>
        <CharString name="Eng">
          896 -21 98 -77 39 0 38 483 39 45 39 -17 38 hstemhm
          59 112 0 100 0 112 cntrmask 0000001110000000
          hintmask 0000011110000000
          852 342 rmoveto
          199 -160 163 -199 -86 -82 -33 -54 -54 vhcurveto
          hintmask 0011101110000000
          66 vlineto
          -3 -17 -16 -1 -17 hhcurveto
          -162 4 rlineto
          -39 29 vlineto
          83 -46 callsubr
          -515 vlineto
          -33 0 -12 -83 vhcurveto
          -29 hlineto
          hintmask 0101011110000000
          -39 vlineto
          162 4 162 -4 rlineto
          39 -29 vlineto
          -83 -26 callgsubr
          476 vlineto
          66 45 85 40 92 hhcurveto
          153 94 -158 -166 -131 -8 -146 -85 -38 hvcurveto
          1 vlineto
          hintmask 0010001110000000
          27 -22 22 -27 -28 -21 -22 -27 vhcurveto
          hintmask 1000001110000000
          -27 21 -22 28 164 90 179 184 vhcurveto
          endchar
        </CharString>
        <CharString name="Eogonek">
          819 65 callgsubr
          113 -43 callgsubr
          -14 callsubr
          hintmask 0001110110100000
          -100 callsubr
          hintmask 0001001101000000
          -85 callsubr
          hintmask 1010000000000000
          -39 491 vlineto
          -43 -25 -38 -50 -1 -53 5 callsubr
          hintmask 0110000000100000
          -42 callsubr
          -110 5 -3 105 100 62 rrcurveto
          118 hlineto
          endchar
        </CharString>
        <CharString name="Eogonekacute">
          819 65 callgsubr
          113 -43 callgsubr
          86 -21 166 -20 -14 callsubr
          hintmask 0001110001101000
          -100 callsubr
          hintmask 0001001001010000
          -85 callsubr
          hintmask 1010000000000000
          -39 491 vlineto
          -43 -25 -38 -50 -1 -53 5 callsubr
          hintmask 0110000000001000
          -42 callsubr
          -110 5 -3 105 100 62 rrcurveto
          118 hlineto
          hintmask 0000000110100000
          -159 858 -102 callsubr
        </CharString>
        <CharString name="Epsilon">
          -35 callsubr
          -14 callsubr
          hintmask 0111011010000000
          -100 callsubr
          hintmask 0100110100000000
          -85 callsubr
          hintmask 1000000010000000
          -39 660 vlineto
          endchar
        </CharString>
        <CharString name="Ereversed">
          -35 callsubr
          hstemhm
          65 37 -4 37 165 37 229 100 hintmask 1000101010000000
          772 112 callgsubr
          511 vlineto
          33 0 12 80 vhcurveto
          26 39 -643 hlineto
          -31 -233 rlineto
          37 hlineto
          146 19 36 48 166 hhcurveto
          161 hlineto
          hintmask 0111010110000000
          49 0 -8 -31 hvcurveto
          -229 -108 vlineto
          -101 -20 27 90 hvcurveto
          -37 -273 37 hlineto
          90 20 27 101 vhcurveto
          108 -255 hlineto
          -31 0 -8 -49 vhcurveto
          -170 hlineto
          -190 -28 73 154 -27 hvcurveto
          -37 hlineto
          hintmask 1000000000000000
          47 -266 rlineto
          endchar
        </CharString>
        <CharString name="Eta">
          896 0 39 297 39 269 39 hstem
          171 100 353 100 vstem
          -87 callsubr
          endchar
        </CharString>
        <CharString name="Eth">
          -25 callgsubr
        </CharString>
        <CharString name="Etilde">
          -35 callsubr
          55 60 -16 60 -98 callgsubr
          hintmask 0000001000000000
          -121 815 rmoveto
          -22 23 141 callgsubr
          -38 -40 -26 -6 -23 hhcurveto
          -24 -22 9 11 -25 hvcurveto
          hintmask 0000001000000000
          -86 callsubr
          hintmask 0000010000000000
          22 -23 rlineto
          hintmask 0000001000000000
          38 40 26 6 23 hhcurveto
          24 22 -9 -11 25 hvcurveto
          hintmask 0000010000000000
          -88 callsubr
        </CharString>
        <CharString name="Euro">
          731 -21 40 -36 40 235 40 88 40 238 40 hstemhm
          130 112 hintmask 10111100
          666 544 rmoveto
          146 vlineto
          8 -6 6 -8 vhcurveto
          -4 hlineto
          -3 -4 -1 -3 -2 hvcurveto
          -41 -39 rlineto
          28 -37 -48 15 -50 hhcurveto
          -90 -85 -40 -66 -61 hvcurveto
          -44 -49 -30 -60 -14 -63 rrcurveto
          -58 108 callsubr
          55 hlineto
          -1 -15 -1 -15 -14 vvcurveto
          -15 1 -15 1 -14 vhcurveto
          -51 108 callsubr
          62 hlineto
          14 -64 30 -60 44 -48 rrcurveto
          -67 61 85 -40 90 hhcurveto
          hintmask 01000000
          50 48 16 28 37 hvcurveto
          41 -40 rlineto
          hintmask 10111100
          -2 2 4 -2 3 hhcurveto
          4 hlineto
          8 6 6 8 hvcurveto
          146 vlineto
          8 -6 6 -8 vhcurveto
          -12 hlineto
          -7 -6 -5 -7 -1 hvcurveto
          -72 -9 -66 -50 -73 hhcurveto
          -70 -65 35 57 -41 hvcurveto
          -32 43 -16 51 -7 53 rrcurveto
          294 108 callgsubr
          -302 hlineto
          -1 14 0 15 15 vvcurveto
          14 0 15 1 15 vhcurveto
          341 108 callgsubr
          -341 hlineto
          7 53 16 51 32 43 rrcurveto
          56 41 65 35 70 hhcurveto
          73 66 -50 -72 9 hvcurveto
          -7 1 6 -5 7 hhcurveto
          12 hlineto
          8 6 6 8 hvcurveto
          endchar
        </CharString>
        <CharString name="F">
          786 0 39 281 39 281 39 hstem
          171 100 96 37 89 37 155 37 cntrmask 11100000
          722 446 rmoveto
          -31 233 rlineto
          -626 40 callgsubr
          236 103 vlineto
          102 17 -28 -89 hvcurveto
          37 273 -37 hlineto
          -89 -17 -28 -102 vhcurveto
          -103 242 hlineto
          31 0 8 49 vhcurveto
          150 hlineto
          171 25 -57 -137 19 hvcurveto
          endchar
        </CharString>
        <CharString name="G">
          51 callsubr
          hstem
          79 111 501 100 vstem
          -98 callsubr
          endchar
        </CharString>
        <CharString name="Gacute">
          51 callsubr
          112 callsubr
          501 100 hintmask 11100110
          -98 callsubr
          hintmask 00011000
          -245 619 -102 callsubr
        </CharString>
        <CharString name="Gamma">
          754 0 39 562 39 0 107 callsubr
          hintmask 10110000
          690 446 rmoveto
          -31 233 rlineto
          -594 40 callgsubr
          hintmask 01010000
          517 vlineto
          31 0 8 49 vhcurveto
          131 hlineto
          165 19 -63 -131 18 hvcurveto
          endchar
        </CharString>
        <CharString name="Gbreve">
          51 callsubr
          40 49 130 -20 hstemhm
          79 111 501 100 hintmask 11100110
          -98 callsubr
          hintmask 00011000
          -224 684 -99 callgsubr
          endchar
        </CharString>
        <CharString name="Gcaron">
          51 callsubr
          51 -21 133 -20 hstemhm
          79 111 501 100 hintmask 11100110
          -98 callsubr
          hintmask 00011000
          -250 612 -58 callsubr
        </CharString>
        <CharString name="Gcedilla">
          942 117 callgsubr
          62 callgsubr
          hstem
          79 111 501 100 vstem
          -98 callsubr
          -352 -385 -97 callgsubr
        </CharString>
        <CharString name="Gcircumflex">
          51 callsubr
          51 -21 133 -20 hstemhm
          79 111 501 100 hintmask 11100110
          -98 callsubr
          hintmask 00011000
          -250 511 -91 callsubr
          endchar
        </CharString>
        <CharString name="Gcommaaccent">
          942 117 callgsubr
          62 callgsubr
          hstemhm
          79 111 501 100 hintmask 00111110
          -98 callsubr
          hintmask 11000000
          -352 -385 -97 callgsubr
        </CharString>
        <CharString name="Gdotaccent">
          51 callsubr
          51 120 hstemhm
          79 111 220 121 160 100 hintmask 11101010
          -98 callsubr
          hintmask 00010100
          -341 576 -99 callsubr
        </CharString>
        <CharString name="H">
          896 0 39 297 39 269 39 hstem
          171 100 353 100 vstem
          -87 callsubr
          endchar
        </CharString>
        <CharString name="H_uni0303">
          105 callsubr
          51 60 -16 60 30 callsubr
          353 100 hintmask 11100110
          -87 callsubr
          hintmask 00001000
          -31 811 -92 callsubr
        </CharString>
        <CharString name="Hbar">
          83 callgsubr
          297 39 118 40 111 90 callsubr
          409 106 40 -106 66 -94 callgsubr
          -66 -353 66 -94 callgsubr
          -66 -106 -40 106 -409 -49 callsubr
          156 -4 rlineto
          -39 callgsubr
          252 353 -252 -49 callsubr
          rlineto
          -50 371 rmoveto
          -353 118 353 hlineto
          endchar
        </CharString>
        <CharString name="Hbrevebelow">
          896 -229 49 130 -20 70 39 297 39 269 107 callsubr
          353 100 hintmask 00111110
          -87 callsubr
          hintmask 11000000
          -48 -54 -99 callgsubr
          endchar
        </CharString>
        <CharString name="Hcircumflex">
          105 callsubr
          102 callgsubr
          171 100 353 100 hintmask 11100110
          -87 callsubr
          hintmask 00011000
          -74 746 -91 callsubr
          endchar
        </CharString>
        <CharString name="Hdieresis">
          105 callsubr
          51 108 30 callsubr
          5 38 callgsubr
          2 100 hintmask 11101001
          -87 callsubr
          hintmask 00010110
          -289 784 -73 callsubr
        </CharString>
        <CharString name="Hdotbelow">
          896 32 callgsubr
          297 39 269 107 callsubr
          116 121 116 100 hintmask 01111010
          -87 callsubr
          hintmask 10000100
          -166 -144 -99 callsubr
        </CharString>
        <CharString name="I">
          45 callgsubr
          hstem
          171 100 vstem
          -93 callgsubr
          endchar
        </CharString>
        <CharString name="I_J">
          1022 -21 32 -11 39 -39 114 -57 114 473 107 callsubr
          205 96 callgsubr
          hintmask 0100110010000000
          -93 callgsubr
          723 640 rmoveto
          39 vlineto
          -135 -4 rlineto
          -53 -74 1 3 -52 hvcurveto
          -39 39 vlineto
          99 0 -13 -32 hvcurveto
          -449 vlineto
          hintmask 1001000100000000
          -94 -60 -45 -54 -15 -60 2 44 -42 vhcurveto
          hintmask 0010001000000000
          40 4 13 30 23 vvcurveto
          hintmask 1001101010000000
          38 -30 19 -27 -20 -37 -13 -46 -76 79 -57 101 104 104 62 108 vhcurveto
          452 vlineto
          43 10 0 70 vhcurveto
          endchar
        </CharString>
        <CharString name="Iacute">
          45 callgsubr
          82 -21 166 -20 -76 callgsubr
          hintmask 00110000
          157 854 -102 callsubr
        </CharString>
        <CharString name="Ibreve">
          45 callgsubr
          61 49 130 -20 -76 callgsubr
          hintmask 00110000
          178 919 -99 callgsubr
          endchar
        </CharString>
        <CharString name="Icaron">
          45 callgsubr
          72 -21 133 -20 -76 callgsubr
          hintmask 00110000
          152 847 -58 callsubr
        </CharString>
        <CharString name="Icircumflex">
          45 callgsubr
          72 -21 133 -20 -76 callgsubr
          hintmask 00110000
          152 746 -91 callsubr
          endchar
        </CharString>
        <CharString name="Idblgrave">
          45 callgsubr
          82 142 callsubr
          -76 callgsubr
          hintmask 00110000
          145 761 -91 callgsubr
        </CharString>
        <CharString name="Idieresis">
          154 callsubr
          hstemhm
          49 147 callsubr
          hintmask 11001000
          -93 callgsubr
          hintmask 00110100
          -63 784 -73 callsubr
        </CharString>
        <CharString name="Idieresisacute">
          154 callsubr
          81 -21 166 -20 hstemhm
          49 147 callsubr
          hintmask 11000010
          -93 callgsubr
          hintmask 00111101
          -63 784 rmoveto
          -100 callgsubr
          237 hmoveto
          -100 callgsubr
          -17 228 -102 callsubr
        </CharString>
        <CharString name="Idotaccent">
          45 callgsubr
          72 120 hstemhm
          160 121 -110 -73 callgsubr
          hintmask 00110000
          60 811 -99 callsubr
        </CharString>
        <CharString name="Idotbelow">
          443 113 callsubr
          hstemhm
          160 121 -110 100 hintmask 01101000
          -93 callgsubr
          hintmask 10010000
          60 -144 -99 callsubr
        </CharString>
        <CharString name="Igrave">
          45 callgsubr
          82 -21 166 -20 -76 callgsubr
          hintmask 00110000
          79 773 -67 callgsubr
        </CharString>
        <CharString name="Ihookabove">
          45 callgsubr
          93 -21 202 -20 -76 callgsubr
          hintmask 00110000
          115 887 -107 callgsubr
        </CharString>
        <CharString name="Imacron">
          45 callgsubr
          71 42 30 callsubr
          hintmask 11010000
          -93 callgsubr
          hintmask 00100000
          211 750 -26 callsubr
        </CharString>
        <CharString name="Imacron.alt">
          45 callgsubr
          71 42 30 callsubr
          hintmask 11010000
          -93 callgsubr
          hintmask 00100000
          109 750 41 callsubr
        </CharString>
        <CharString name="Iogonek">
          122 callsubr
          hstemhm
          171 100 hintmask 01000000
          383 -126 17 callsubr
          hintmask 10111100
          -3 callgsubr
          endchar
        </CharString>
        <CharString name="Iogonekacute">
          122 callsubr
          82 -21 166 -20 30 callsubr
          hintmask 01000000
          383 -126 17 callsubr
          hintmask 10111001
          -3 callgsubr
          hintmask 00000110
          -5 984 -102 callsubr
        </CharString>
        <CharString name="Iota">
          45 callgsubr
          hstem
          171 100 vstem
          -93 callgsubr
          endchar
        </CharString>
        <CharString name="Itilde">
          45 callgsubr
          51 60 -16 60 -76 callgsubr
          hintmask 00010000
          195 811 -76 callsubr
        </CharString>
        <CharString name="J">
          106 callsubr
          114 callgsubr
          hintmask 00100100
          546 644 rmoveto
          39 vlineto
          -135 -4 rlineto
          -53 -74 1 3 -52 hvcurveto
          -39 39 vlineto
          99 0 -13 -32 hvcurveto
          -449 vlineto
          hintmask 11011000
          -94 -60 -45 -54 -15 -60 2 44 -42 vhcurveto
          40 4 13 30 23 vvcurveto
          38 -30 19 -27 -20 -37 -13 -46 -76 79 -57 101 vhcurveto
          hintmask 00100100
          42 callsubr
          endchar
        </CharString>
        <CharString name="J_uni030C.cap">
          624.06667 -21 32 46 114 298 -21 145 90 -39 39 114 callgsubr
          hintmask 00001001
          -15 callgsubr
          hintmask 00001001
          42 callsubr
          142 -44 rmoveto
          46 -19 37 -35 -30 -15 -22 -23 vhcurveto
          hintmask 00110000
          -23 15 -22 30 15 10 6 5 5 vhcurveto
          -67 -31 -41 -26 -22 vhcurveto
          -7 -7 -2 -2 -5 vvcurveto
          -6 6 -6 6 11 67 59 93 vhcurveto
          endchar
        </CharString>
        <CharString name="Jacute">
          106 callsubr
          82 -21 166 -20 114 callgsubr
          hintmask 00100001
          -15 callgsubr
          hintmask 00100001
          42 callsubr
          hintmask 00011000
          -1 214 -102 callsubr
        </CharString>
        <CharString name="Jcircumflex">
          106 callsubr
          72 -21 133 -20 114 callgsubr
          hintmask 00100001
          -15 callgsubr
          hintmask 00100001
          42 callsubr
          hintmask 00011000
          -6 106 -91 callsubr
          endchar
        </CharString>
        <CharString name="K">
          929 0 39 605 39 hstem
          171 100 vstem
          -78 callsubr
          endchar
        </CharString>
        <CharString name="Kappa">
          929 0 39 605 39 hstem
          171 100 vstem
          -78 callsubr
          endchar
        </CharString>
        <CharString name="Kcedilla">
          929 57 callsubr
          hstem
          171 100 vstem
          -78 callsubr
          -229 -150 -97 callgsubr
        </CharString>
        <CharString name="Kcommaaccent">
          929 57 callsubr
          hstemhm
          171 100 hintmask 00111000
          -78 callsubr
          hintmask 11000000
          -229 -150 -97 callgsubr
        </CharString>
        <CharString name="L">
          754 0 106 callgsubr
          hintmask 01110000
          -83 callsubr
          hintmask 10000000
          -39 594 vlineto
          endchar
        </CharString>
        <CharString name="L_uni0303">
          137 callgsubr
          566 39 51 60 -16 60 30 callsubr
          hintmask 01100100
          -83 callsubr
          hintmask 10000000
          -39 594 vlineto
          hintmask 00001000
          -241 815 -92 callsubr
        </CharString>
        <CharString name="Lacute">
          137 callgsubr
          566 39 82 -21 166 -20 30 callsubr
          hintmask 01100100
          -83 callsubr
          hintmask 10000000
          -39 594 vlineto
          hintmask 00011000
          -279 858 -102 callsubr
        </CharString>
        <CharString name="Lambda">
          831 0 39 28 39 608 -20 hstem
          776 hmoveto
          39 vlineto
          -66 -16 0 37 -14 hvcurveto
          -235 614 rlineto
          13 -5 -4 11 -21 hhcurveto
          -21 -4 -11 -13 -5 hvcurveto
          -224 -584 -9 -24 -16 -42 -82 -1 rlinecurve
          -39 vlineto
          1 8 48 3 42 hhcurveto
          42 68 -3 -1 12 hvcurveto
          39 vlineto
          -45 -30 20 28 7 0 2 5 12 hvcurveto
          178 466 189 -494 rlineto
          4 -10 0 -3 0 vvcurveto
          -28 -56 0 -28 vhcurveto
          -39 vlineto
          154 4 rlineto
          endchar
        </CharString>
        <CharString name="Lcaron">
          137 callgsubr
          391 -21 145 90 -39 107 callsubr
          hintmask 01001100
          -83 callsubr
          hintmask 10001000
          -39 594 vlineto
          -91 600 rmoveto
          46 -19 37 -35 -30 -15 -22 -23 vhcurveto
          hintmask 00110000
          -23 15 -22 30 15 10 6 5 5 vhcurveto
          -67 -31 -41 -26 -22 vhcurveto
          -7 -7 -2 -2 -5 vvcurveto
          -6 6 -6 6 11 67 59 93 vhcurveto
          endchar
        </CharString>
        <CharString name="Lcedilla">
          754 -277 -21 145 90 63 106 callgsubr
          hintmask 00011100
          -83 callsubr
          hintmask 11100000
          -39 594 vlineto
          -233 -146 -97 callgsubr
        </CharString>
        <CharString name="Lcommaaccent">
          754 -277 -21 145 90 63 106 callgsubr
          hintmask 00011100
          -83 callsubr
          hintmask 00100000
          -39 594 vlineto
          hintmask 11000000
          -233 -146 -97 callgsubr
        </CharString>
        <CharString name="Ldot">
          137 callgsubr
          269 120 177 107 callsubr
          266 121 hintmask 01011000
          -83 callsubr
          hintmask 10100100
          -39 594 vlineto
          -1 407 -99 callsubr
        </CharString>
        <CharString name="Ldotbelow">
          754 -200 120 80 106 callgsubr
          45 121 hintmask 00111000
          -83 callsubr
          hintmask 01000000
          -39 594 vlineto
          hintmask 10000100
          -222 -140 -99 callsubr
        </CharString>
        <CharString name="Ldotbelowmacron">
          754 32 callgsubr
          0 39 566 39 71 42 30 callsubr
          45 121 hintmask 00110100
          -83 callsubr
          hintmask 11000010
          -39 594 vlineto
          -222 -140 rmoveto
          -95 callgsubr
          hintmask 00001000
          8 894 -26 callsubr
        </CharString>
        <CharString name="Lslash">
          754 0 106 callgsubr
          hintmask 01110000
          690 266 rmoveto
          -37 hlineto
          -121 -12 -31 -106 -181 hhcurveto
          -109 hlineto
          -49 0 8 31 hvcurveto
          286 vlineto
          194 138 -24 33 -170 -121 rlineto
          185 vlineto
          33 0 12 96 vhcurveto
          37 39 hlineto
          -4 -53 -73 0 -54 hhcurveto
          -159 4 rlineto
          -63 callgsubr
          -257 vlineto
          -95 -67 23 -33 72 52 rlineto
          -210 39 callsubr
          hintmask 10000000
          -39 594 vlineto
          endchar
        </CharString>
        <CharString name="M">
          1091 0 104 callsubr
          504 41 -14 89 hintmask 11000100
          33 callsubr
          hintmask 11111000
          -41 callsubr
          hintmask 11000100
          1 -560 hlineto
          -57 callsubr
          150 4 rlineto
          endchar
        </CharString>
        <CharString name="Mdotbelow">
          1091 -200 120 80 104 callsubr
          191 121 192 41 -14 89 hintmask 01100001
          33 callsubr
          hintmask 01111010
          -41 callsubr
          hintmask 01100001
          1 -560 hlineto
          -57 callsubr
          150 4 rlineto
          hintmask 10000100
          -263 -144 -99 callsubr
        </CharString>
        <CharString name="Mu">
          1091 0 104 callsubr
          504 41 -14 89 hintmask 11000100
          33 callsubr
          hintmask 11111000
          -41 callsubr
          hintmask 11000100
          1 -560 hlineto
          -57 callsubr
          150 4 rlineto
          endchar
        </CharString>
        <CharString name="N">
          37 callsubr
          hstem
          140 callsubr
          vstem
          -96 callsubr
          endchar
        </CharString>
        <CharString name="Nacute">
          37 callsubr
          82 -21 166 -20 116 callsubr
          hintmask 11001100
          -96 callsubr
          hintmask 00110000
          -225 214 -102 callsubr
        </CharString>
        <CharString name="Ncaron">
          37 callsubr
          72 -21 133 -20 116 callsubr
          hintmask 11001100
          -96 callsubr
          hintmask 00110000
          -230 207 -58 callsubr
        </CharString>
        <CharString name="Ncedilla">
          896 57 callsubr
          hstem
          140 callsubr
          vstem
          -96 callsubr
          -332 -790 -97 callgsubr
        </CharString>
        <CharString name="Ncommaaccent">
          896 57 callsubr
          116 callsubr
          hintmask 00111100
          -96 callsubr
          hintmask 11000000
          -332 -790 -97 callgsubr
        </CharString>
        <CharString name="Ndotaccent">
          37 callsubr
          51 120 hstemhm
          171 41 175 121 175 41 hintmask 11010100
          -96 callsubr
          hintmask 00101000
          -322 150 -99 callsubr
        </CharString>
        <CharString name="Ndotbelow">
          896 113 callsubr
          hstemhm
          171 41 175 121 175 41 hintmask 01110100
          -96 callsubr
          hintmask 10001000
          -322 -784 -99 callsubr
        </CharString>
        <CharString name="Ntilde">
          37 callsubr
          51 60 -16 60 116 callsubr
          hintmask 11001100
          -96 callsubr
          hintmask 00010000
          -187 171 -76 callsubr
        </CharString>
        <CharString name="Nu">
          37 callsubr
          hstem
          140 callsubr
          vstem
          -96 callsubr
          endchar
        </CharString>
        <CharString name="O">
          17 callgsubr
          hstem
          16 callsubr
          vstem
          -103 callgsubr
          endchar
        </CharString>
        <CharString name="OE">
          -50 callsubr
        </CharString>
        <CharString name="OE.dup">
          -50 callsubr
        </CharString>
        <CharString name="Oacute">
          17 callgsubr
          61 -21 166 -90 callsubr
          -120 504 -102 callsubr
        </CharString>
        <CharString name="Obreve">
          17 callgsubr
          40 49 130 -90 callsubr
          -99 569 -99 callgsubr
          endchar
        </CharString>
        <CharString name="Ocaron">
          17 callgsubr
          51 -21 133 -57 callgsubr
          497 -58 callsubr
        </CharString>
        <CharString name="Ocircumflex">
          17 callgsubr
          51 -21 133 -57 callgsubr
          396 -91 callsubr
          endchar
        </CharString>
        <CharString name="Ocircumflexacute">
          17 callgsubr
          51 -21 319 -57 callgsubr
          396 -91 callsubr
          -22 267 -102 callsubr
        </CharString>
        <CharString name="Ocircumflexdotbelow">
          935 24 callsubr
          59 37 653 35 51 -21 133 -20 132 callsubr
          hintmask 01111101
          -103 callgsubr
          -125 396 -91 callsubr
          hintmask 10000010
          -79 -874 -99 callsubr
        </CharString>
        <CharString name="Ocircumflexgrave">
          17 callgsubr
          51 -21 133 -57 callgsubr
          396 -66 callsubr
        </CharString>
        <CharString name="Ocircumflexhookabove">
          17 callgsubr
          51 -21 335 -57 callgsubr
          396 -91 callsubr
          89 269 -107 callgsubr
        </CharString>
        <CharString name="Ocircumflextilde">
          17 callgsubr
          51 -21 173 60 -16 60 18 callgsubr
          hintmask 11000110
          -103 callgsubr
          hintmask 00101000
          -125 396 rmoveto
          -151 117 -151 -117 10 -16 140 66 140 -66 rlineto
          55 254 -92 callsubr
        </CharString>
        <CharString name="Odblgrave">
          17 callgsubr
          61 -21 192 -90 callsubr
          -132 411 -91 callgsubr
        </CharString>
        <CharString name="Odieresis">
          17 callgsubr
          30 108 hstemhm
          79 111 105 38 callgsubr
          103 111 hintmask 11010010
          -103 callgsubr
          hintmask 00101100
          -340 434 -73 callsubr
        </CharString>
        <CharString name="Odotbelow">
          935 24 callsubr
          59 37 653 35 132 callsubr
          hintmask 01110100
          -103 callgsubr
          hintmask 10001000
          -216 -494 -99 callsubr
        </CharString>
        <CharString name="Ograve">
          17 callgsubr
          61 -21 166 -90 callsubr
          -198 423 -67 callgsubr
        </CharString>
        <CharString name="Ohookabove">
          17 callgsubr
          72 -21 202 -90 callsubr
          -162 537 -107 callgsubr
        </CharString>
        <CharString name="Ohorn">
          60 callsubr
          100 -20 hstemhm
          78 112 482 120 -111 111 -50 111 hintmask 01010100
          -38 callsubr
          hintmask 10101010
          -48 callgsubr
          hintmask 11101001
          -62 callsubr
          endchar
        </CharString>
        <CharString name="Ohornacute">
          60 callsubr
          61 -21 60 -20 126 -66 callgsubr
          -150 503 -102 callsubr
        </CharString>
        <CharString name="Ohorndotbelow">
          935 24 callsubr
          59 37 562 37 53 36 100 -20 hstemhm
          78 112 217 121 144 120 -111 111 -50 111 hintmask 0010100100000000
          -38 callsubr
          hintmask 0101010010000000
          -48 callgsubr
          hintmask 0111010001000000
          -62 callsubr
          hintmask 1000001000000000
          -214 -495 -99 callsubr
        </CharString>
        <CharString name="Ohorngrave">
          60 callsubr
          61 -21 60 -20 126 -66 callgsubr
          -196 422 -67 callgsubr
        </CharString>
        <CharString name="Ohornhookabove">
          60 callsubr
          72 -21 49 -20 173 -66 callgsubr
          -160 536 -107 callgsubr
        </CharString>
        <CharString name="Ohorntilde">
          60 callsubr
          30 149 callgsubr
          78 112 482 120 -111 111 -50 111 hintmask 0100001000000000
          -38 callsubr
          hintmask 1010010100000000
          -48 callgsubr
          hintmask 1110010010000000
          -62 callsubr
          hintmask 0000100000000000
          -80 460 -4 callsubr
        </CharString>
        <CharString name="Ohungarumlaut">
          17 callgsubr
          61 -21 192 -90 callsubr
          -272 540 -74 callsubr
        </CharString>
        <CharString name="Omacron">
          17 callgsubr
          50 42 18 callgsubr
          hintmask 11011000
          -103 callgsubr
          hintmask 00100000
          -66 400 -26 callsubr
        </CharString>
        <CharString name="Omega">
          -39 callsubr
        </CharString>
        <CharString name="Omicron">
          17 callgsubr
          hstem
          16 callsubr
          vstem
          -103 callgsubr
          endchar
        </CharString>
        <CharString name="Oogonek">
          935 -21 37 -35 35 653 35 18 callgsubr
          hintmask 01110000
          8 callgsubr
          hintmask 10111000
          22 callgsubr
          endchar
        </CharString>
        <CharString name="Oogonekacute">
          935 -21 37 -35 35 653 35 112 callsubr
          554 111 hintmask 01100100
          8 callgsubr
          hintmask 10100110
          22 callgsubr
          hintmask 00011000
          -120 504 -102 callsubr
        </CharString>
        <CharString name="Orogate">
          935 79 111 261 32 261 111 vstem
          21 callgsubr
          192 -162 165 -210 8 vhcurveto
          174 -32 -174 vlineto
          -210 -8 -162 -165 -192 vvcurveto
          -193 164 -159 208 -8 vhcurveto
          -173 32 173 vlineto
          208 8 164 159 193 vvcurveto
          -111 15 rmoveto
          -239 -148 -99 -129 -129 -148 99 239 224 150 91 127 128 149 -92 -223 vhcurveto
          endchar
        </CharString>
        <CharString name="Oslash">
          94 callsubr
          hstem
          79 100 576 100 vstem
          -58 callgsubr
          endchar
        </CharString>
        <CharString name="Oslash.dup">
          94 callsubr
          hstem
          79 100 576 100 vstem
          -58 callgsubr
          endchar
        </CharString>
        <CharString name="Oslashacute">
          94 callsubr
          42 135 callgsubr
          100 576 100 hintmask 11110011
          -58 callgsubr
          hintmask 00001100
          -131 519 -102 callsubr
        </CharString>
        <CharString name="Otilde">
          17 callgsubr
          30 60 -16 60 -92 callgsubr
          hintmask 00010000
          -82 461 -76 callsubr
        </CharString>
        <CharString name="P">
          -20 callsubr
        </CharString>
        <CharString name="Phi">
          870 0 39 104 31 -30 31 334 31 104 39 hstemhm
          79 107 199 93 205 107 hintmask 11011111
          790 341 rmoveto
          114 -160 77 -152 9 vhcurveto
          58 70 callsubr
          -59 vlineto
          -164 -11 -142 -83 -104 vvcurveto
          -108 146 -80 160 -11 vhcurveto
          67 callgsubr
          58 vlineto
          157 9 155 80 110 vvcurveto
          -405 -166 rmoveto
          -88 8 -111 34 124 vvcurveto
          133 125 27 74 7 vhcurveto
          hintmask 00100010
          298 -166 rmoveto
          hintmask 01010011
          -138 -138 -26 -67 -4 vhcurveto
          335 vlineto
          65 -4 140 -26 -137 vvcurveto
          endchar
        </CharString>
        <CharString name="Pi">
          83 callgsubr
          601 90 callsubr
          511 vlineto
          33 0 12 80 vhcurveto
          26 39 -765 93 callgsubr
          156 4 156 -4 rlineto
          -39 callgsubr
          556 353 -556 -49 callsubr
          rlineto
          endchar
        </CharString>
        <CharString name="Psi">
          935 0 39 481 31 93 39 hstem
          162 93 162 93 169 93 vstem
          855 535 rmoveto
          16 -15 0 -15 vhcurveto
          -39 hlineto
          -78 -28 -64 -91 -1 hvcurveto
          -1 -65 -24 -131 -144 -23 rrcurveto
          422 70 callsubr
          -422 vlineto
          -160 30 -2 155 58 vvcurveto
          3 -1 128 -106 vhcurveto
          -39 hlineto
          -15 -15 0 -16 -14 11 -1 12 -1 hvcurveto
          58 -8 2 -88 -30 vvcurveto
          1 -53 24 -73 37 -38 26 -26 48 -49 119 -11 rrcurveto
          67 callgsubr
          59 vlineto
          84 8 66 26 48 51 rrcurveto
          60 65 4 91 12 vvcurveto
          30 2 85 61 8 vhcurveto
          9 1 11 1 14 vvcurveto
          endchar
        </CharString>
        <CharString name="Q">
          935 -194 111 62 35 -19 35 -14 32 73 32 516 35 hstemhm
          79 107 184 32 346 107 -26 32 hintmask 0001000000000000
          861 -8 rmoveto
          8 0 16 -16 vhcurveto
          hintmask 1010000001000000
          -14 -1 -12 -9 -1 hvcurveto
          -54 -6 -53 -24 -43 hhcurveto
          -48 -27 31 60 -31 hvcurveto
          hintmask 1100011010000000
          146 60 88 131 140 vvcurveto
          197 -170 168 -218 -218 -170 -168 -197 -198 172 -162 216 14 37 0 13 55 vhcurveto
          -109 31 22 -77 93 hhcurveto
          hintmask 0001111101000000
          102 40 115 71 hvcurveto
          -113 347 rmoveto
          -172 -84 -84 -65 -35 vhcurveto
          45 -24 -36 60 -71 hhcurveto
          -57 -41 -40 -46 -22 3 -6 6 -10 hvcurveto
          -108 36 -85 103 171 vvcurveto
          228 146 102 135 vhcurveto
          hintmask 0100100110000000
          135 146 -103 -227 hvcurveto
          -187 -309 rmoveto
          -1 -2 -42 -15 -50 hhcurveto
          -54 -11 37 16 30 29 24 37 hvcurveto
          hintmask 0010000000000000
          50 25 -36 -55 18 hvcurveto
          endchar
        </CharString>
        <CharString name="R">
          883 -21 83 callsubr
          hintmask 10001101
          -82 callsubr
          hintmask 01100100
          -71 callsubr
          hintmask 10110100
          -64 callsubr
          hintmask 00001011
          -10 callsubr
          endchar
        </CharString>
        <CharString name="Racute">
          883 -21 11 callgsubr
          82 -21 166 -72 callsubr
          -13 357 -102 callsubr
        </CharString>
        <CharString name="Rcaron">
          883 -21 11 callgsubr
          72 -21 133 -72 callsubr
          -18 350 -58 callsubr
        </CharString>
        <CharString name="Rcedilla">
          883 117 callgsubr
          83 callsubr
          hintmask 0010001101000000
          -82 callsubr
          hintmask 0001100100000000
          -71 callsubr
          hintmask 0010110100000000
          -64 callsubr
          hintmask 1100001011000000
          -10 callsubr
          -120 -647 -97 callgsubr
        </CharString>
        <CharString name="Rcommaaccent">
          883 117 callgsubr
          83 callsubr
          hintmask 0010001101000000
          -82 callsubr
          hintmask 0001100100000000
          -71 callsubr
          hintmask 0010110100000000
          -64 callsubr
          hintmask 0000001011000000
          -10 callsubr
          hintmask 1100000000000000
          -120 -647 -97 callgsubr
        </CharString>
        <CharString name="Rdblgrave">
          883 -21 11 callgsubr
          82 -21 192 -72 callsubr
          -57 264 -91 callgsubr
        </CharString>
        <CharString name="Rdotaccent">
          883 -21 11 callgsubr
          72 120 124 callsubr
          hintmask 1000101001000000
          -82 callsubr
          hintmask 0110001000000000
          -71 callsubr
          hintmask 1011001000000000
          -64 callsubr
          hintmask 0000100101000000
          -10 callsubr
          hintmask 0000010010000000
          -109 314 -99 callsubr
        </CharString>
        <CharString name="Rdotbelow">
          883 24 callsubr
          59 51 callgsubr
          16 121 109 111 hintmask 0100011001000000
          -82 callsubr
          hintmask 0011001000000000
          -71 callsubr
          hintmask 0101101000000000
          -64 callsubr
          hintmask 0000010101000000
          -10 callsubr
          hintmask 1000000010000000
          -109 -641 -99 callsubr
        </CharString>
        <CharString name="Rdotbelowmacron">
          883 24 callsubr
          59 11 callgsubr
          71 42 124 callsubr
          hintmask 0100010100100000
          -82 callsubr
          hintmask 0011000100000000
          -71 callsubr
          hintmask 0101100100000000
          -64 callsubr
          hintmask 1000010011100000
          -10 callsubr
          -109 -641 rmoveto
          -95 callgsubr
          hintmask 0000001000000000
          150 894 -26 callsubr
        </CharString>
        <CharString name="Rho">
          -20 callsubr
        </CharString>
        <CharString name="S">
          676 -21 53 callgsubr
          hstem
          79 callsubr
          vstem
          596 184 rmoveto
          -101 callsubr
          rrcurveto
          -61 73 97 -7 47 hhcurveto
          139 91 99 106 hvcurveto
          endchar
        </CharString>
        <CharString name="S_S">
          1352 -21 53 callgsubr
          hstem
          79 callsubr
          159 75 callgsubr
          vstem
          596 184 rmoveto
          -101 callsubr
          rrcurveto
          -61 73 97 -7 47 hhcurveto
          139 91 99 106 hvcurveto
          676 hmoveto
          -101 callsubr
          rrcurveto
          -61 73 97 -7 47 hhcurveto
          139 91 99 106 hvcurveto
          endchar
        </CharString>
        <CharString name="Sacute">
          676 -21 53 callgsubr
          61 -21 166 -20 hstemhm
          79 callsubr
          hintmask 11100111
          596 184 rmoveto
          -101 callsubr
          rrcurveto
          -61 73 97 -7 47 hhcurveto
          139 91 99 106 hvcurveto
          hintmask 00011000
          -102 674 -102 callsubr
        </CharString>
        <CharString name="Scaron">
          676 -21 53 callgsubr
          51 -21 133 -20 hstemhm
          79 callsubr
          hintmask 11100111
          596 184 rmoveto
          -101 callsubr
          rrcurveto
          -61 73 97 -7 47 hhcurveto
          139 91 99 106 hvcurveto
          hintmask 00011000
          -107 667 -58 callsubr
        </CharString>
        <CharString name="Scedilla">
          676 -21 53 callgsubr
          hstem
          79 callsubr
          vstem
          596 184 rmoveto
          -101 callsubr
          47 -39 57 -17 47 -7 rrcurveto
          -85 -8 callsubr
          52 -65 16 -61 hvcurveto
          42 vlineto
          133 5 87 97 103 vvcurveto
          endchar
        </CharString>
        <CharString name="Scircumflex">
          676 -21 53 callgsubr
          51 -21 133 -20 hstemhm
          79 callsubr
          hintmask 11100111
          596 184 rmoveto
          -101 callsubr
          rrcurveto
          -61 73 97 -7 47 hhcurveto
          139 91 99 106 hvcurveto
          hintmask 00011000
          -107 566 -91 callsubr
          endchar
        </CharString>
        <CharString name="Sdotbelow">
          676 24 callsubr
          59 53 callgsubr
          hstemhm
          79 64 100 64 -30 121 134 64 hintmask 01111101
          596 184 rmoveto
          -101 callsubr
          rrcurveto
          -61 73 97 -7 47 hhcurveto
          139 91 99 106 hvcurveto
          hintmask 10000010
          -198 -324 -99 callsubr
        </CharString>
        <CharString name="Sigma">
          870 0 51 -17 39 571 39 hstemhm
          79 711 hintmask 01000000
          790 245 rmoveto
          -37 hlineto
          -15 -115 -48 -43 -35 -14 rrcurveto
          hintmask 10110000
          -22 -57 -104 0 -16 hhcurveto
          -314 hlineto
          281 272 rlineto
          10 10 2 1 8 vvcurveto
          5 -1 1 -8 10 vhcurveto
          -232 286 rlineto
          264 hlineto
          64 78 -7 -17 37 hvcurveto
          57 -28 27 -66 10 -76 rrcurveto
          37 hlineto
          -31 233 rlineto
          -650 hlineto
          -19 -11 0 -20 -7 0 -2 9 -10 hvcurveto
          278 -343 rlineto
          hintmask 01010000
          -275 -267 rlineto
          -10 -9 -2 -2 -7 vvcurveto
          hintmask 10010000
          -16 15 0 15 vhcurveto
          650 hlineto
          endchar
        </CharString>
        <CharString name="T">
          -17 callgsubr
        </CharString>
        <CharString name="T_uni0303">
          94 callgsubr
          58 149 callgsubr
          385 100 hintmask 00010000
          -44 callgsubr
          hintmask 00100000
          64 callgsubr
          hintmask 11000010
          -60 callgsubr
          hintmask 00100000
          64 callsubr
          hintmask 00010000
          -5 callgsubr
          hintmask 00000100
          -146 372 rmoveto
          -22 23 rlineto
          hintmask 00001000
          -38 -40 -26 -6 -23 hhcurveto
          -24 -22 9 11 -25 hvcurveto
          hintmask 00000100
          -86 callsubr
          hintmask 00001000
          22 -23 rlineto
          hintmask 00000100
          38 40 26 6 23 hhcurveto
          24 22 -9 -11 25 hvcurveto
          hintmask 00001000
          -88 callsubr
        </CharString>
        <CharString name="T_uni0308">
          94 callgsubr
          58 108 hstemhm
          263 147 callsubr
          hintmask 00010000
          -44 callgsubr
          hintmask 00100000
          64 callgsubr
          hintmask 11000010
          -60 callgsubr
          hintmask 00100000
          64 callsubr
          hintmask 00010000
          -5 callgsubr
          hintmask 00001101
          -404 345 -73 callsubr
        </CharString>
        <CharString name="Tau">
          -17 callgsubr
        </CharString>
        <CharString name="Tcaron">
          94 callgsubr
          79 -21 133 -20 hstemhm
          385 100 hintmask 00010000
          -44 callgsubr
          hintmask 00100000
          64 callgsubr
          hintmask 11000010
          -60 callgsubr
          hintmask 00100000
          64 callsubr
          hintmask 00010000
          -5 callgsubr
          hintmask 00001100
          -189 408 -58 callsubr
        </CharString>
        <CharString name="Tcedilla">
          870 -200 38 61 38 63 85 callgsubr
          -88 76 32 94 hintmask 0000010000000000
          -44 callgsubr
          hintmask 0000100000000000
          64 callgsubr
          hintmask 0011001000000000
          23 -4 0 -10 -24 vvcurveto
          -513 vlineto
          -33 0 -13 -106 vhcurveto
          -45 -39 hlineto
          hintmask 1110000110000000
          3 39 70 1 54 hhcurveto
          -105 -8 callsubr
          52 -65 16 -61 hvcurveto
          67 vlineto
          54 70 -1 -3 39 hvcurveto
          39 -45 vlineto
          hintmask 0001001000000000
          -106 0 13 33 hvcurveto
          513 vlineto
          hintmask 0000100000000000
          64 callsubr
          hintmask 0000010000000000
          -5 callgsubr
          endchar
        </CharString>
        <CharString name="Tdotbelow">
          870 -200 120 80 86 callsubr
          374 121 -110 100 hintmask 00001000
          -44 callgsubr
          hintmask 00010000
          64 callgsubr
          hintmask 01100010
          -60 callgsubr
          hintmask 00010000
          64 callsubr
          hintmask 00001000
          -5 callgsubr
          hintmask 10000100
          -281 -583 -99 callsubr
        </CharString>
        <CharString name="Theta">
          935 266 34 0 86 0 34 hstem
          79 104 66 37 362 37 66 104 cntrmask 11100000
          84 callgsubr
          -198 172 -162 216 216 172 162 198 vhcurveto
          -104 hmoveto
          -226 -149 -100 -135 -135 -149 99 227 228 147 105 137 137 147 -106 -227 vhcurveto
          -66 -73 rmoveto
          154 -37 -34 -362 34 -37 -154 37 34 362 -34 vlineto
          endchar
        </CharString>
        <CharString name="Thorn">
          754 1 39 138 40 298 40 87 39 hstem
          174 93 299 107 vstem
          673 367 rmoveto
          101 -105 88 -135 vhcurveto
          -166 41 hlineto
          25 0 15 34 4 vhcurveto
          2 21 29 0 22 hhcurveto
          39 vlineto
          -152 -3 -153 3 rlineto
          -39 vlineto
          19 37 0 -3 19 hvcurveto
          31 -4 0 -13 -26 vvcurveto
          -511 vlineto
          -25 0 -15 -34 -4 vhcurveto
          -2 -21 -29 0 -22 hhcurveto
          -39 vlineto
          152 3 153 -3 rlineto
          39 vlineto
          -19 -37 0 3 -19 hvcurveto
          -31 4 0 13 26 vvcurveto
          92 168 vlineto
          132 106 87 102 hvcurveto
          -107 1 rmoveto
          -74 -64 -76 -105 vhcurveto
          -130 298 143 hlineto
          108 48 -87 -61 hvcurveto
          endchar
        </CharString>
        <CharString name="Tlinebelow">
          870 -161 42 119 85 callgsubr
          hintmask 00001000
          -44 callgsubr
          hintmask 00010000
          64 callgsubr
          hintmask 01100100
          -60 callgsubr
          hintmask 00010000
          64 callsubr
          hintmask 00001000
          -5 callgsubr
          hintmask 10000000
          -130 -604 -26 callsubr
        </CharString>
        <CharString name="U">
          25 callsubr
          hstem
          171 100 414 39 vstem
          -105 callgsubr
          endchar
        </CharString>
        <CharString name="U_uni032F">
          896 -208 156 callgsubr
          29 39 626 107 callsubr
          414 39 hintmask 00111100
          -105 callgsubr
          hintmask 11000000
          -178 -873 -45 callgsubr
        </CharString>
        <CharString name="Uacute">
          25 callsubr
          82 -21 166 -20 30 callsubr
          414 39 hintmask 11001100
          -105 callgsubr
          hintmask 00110000
          -199 214 -102 callsubr
        </CharString>
        <CharString name="Ubreve">
          25 callsubr
          61 49 130 -20 30 callsubr
          414 39 hintmask 11001100
          -105 callgsubr
          hintmask 00110000
          -178 279 -99 callgsubr
          endchar
        </CharString>
        <CharString name="Ucaron">
          25 callsubr
          102 callgsubr
          171 100 414 39 hintmask 11001100
          -105 callgsubr
          hintmask 00110000
          -204 207 -58 callsubr
        </CharString>
        <CharString name="Ucircumflex">
          25 callsubr
          102 callgsubr
          171 100 414 39 hintmask 11001100
          -105 callgsubr
          hintmask 00110000
          -204 106 -91 callsubr
          endchar
        </CharString>
        <CharString name="Udblgrave">
          25 callsubr
          82 142 callsubr
          30 callsubr
          414 39 hintmask 11001100
          -105 callgsubr
          hintmask 00110000
          -211 121 -91 callgsubr
        </CharString>
        <CharString name="Udieresis">
          25 callsubr
          51 108 30 callsubr
          31 38 callgsubr
          37 39 hintmask 11010010
          -105 callgsubr
          hintmask 00101100
          -19 callsubr
          endchar
        </CharString>
        <CharString name="Udieresisacute">
          25 callsubr
          51 108 81 -21 166 -20 30 callsubr
          31 38 callgsubr
          37 39 hintmask 1100010010000000
          -105 callgsubr
          hintmask 0011101100000000
          -19 callsubr
          -17 228 -102 callsubr
        </CharString>
        <CharString name="Udieresiscaron">
          25 callsubr
          51 108 71 -21 133 -20 30 callsubr
          31 38 callgsubr
          37 39 hintmask 1100010010000000
          -105 callgsubr
          hintmask 0011101100000000
          -19 callsubr
          -22 221 -58 callsubr
        </CharString>
        <CharString name="Udieresisgrave">
          25 callsubr
          51 108 81 -21 166 -20 30 callsubr
          31 38 callgsubr
          37 39 hintmask 1100010010000000
          -105 callgsubr
          hintmask 0011101100000000
          -19 callsubr
          -95 147 -67 callgsubr
        </CharString>
        <CharString name="Udotbelow">
          896 24 callsubr
          59 39 626 107 callsubr
          143 121 150 39 hintmask 01110100
          -105 callgsubr
          hintmask 10001000
          -295 -784 -99 callsubr
        </CharString>
        <CharString name="Ugrave">
          25 callsubr
          82 -21 166 -20 30 callsubr
          414 39 hintmask 11001100
          -105 callgsubr
          hintmask 00110000
          -277 133 -67 callgsubr
        </CharString>
        <CharString name="Uhookabove">
          25 callsubr
          93 -21 202 -20 30 callsubr
          414 39 hintmask 11001100
          -105 callgsubr
          hintmask 00110000
          -241 247 -107 callgsubr
        </CharString>
        <CharString name="Uhorn">
          58 callsubr
          120 -20 hstemhm
          171 99 -50 99 364 39 -20 99 -70 120 hintmask 0001000010000000
          2 callsubr
          hintmask 0010000100000000
          4 3 0 1 3 hvcurveto
          hintmask 0000001000000000
          -17 -25 -29 -17 -33 -5 rrcurveto
          46 vlineto
          hintmask 0100000100000000
          -4 callgsubr
          hintmask 1000011000000000
          -22 callgsubr
          hintmask 0100100000000000
          -12 callgsubr
          hintmask 0100010000000000
          13 callsubr
          hintmask 1000101010000000
          -47 callsubr
          endchar
        </CharString>
        <CharString name="Uhornacute">
          58 callsubr
          81 -21 60 -20 126 -77 callgsubr
          -252 129 -102 callsubr
        </CharString>
        <CharString name="Uhorndotbelow">
          896 24 callsubr
          59 40 625 35 -35 40 120 -20 hstemhm
          171 99 -50 99 68 121 175 39 -20 99 -70 120 hintmask 0000100000100000
          2 callsubr
          hintmask 0001000001000000
          4 3 0 1 3 hvcurveto
          hintmask 0000000010000000
          -17 -25 -29 -17 -33 -5 rrcurveto
          46 vlineto
          hintmask 0010000001000000
          -4 callgsubr
          hintmask 0100001010000000
          -22 callgsubr
          hintmask 0010010000000000
          -12 callgsubr
          hintmask 0010001000000000
          13 callsubr
          hintmask 0100010010100000
          -47 callsubr
          hintmask 1000000100000000
          -343 -869 -99 callsubr
        </CharString>
        <CharString name="Uhorngrave">
          58 callsubr
          81 -21 60 -20 126 -77 callgsubr
          -298 48 -67 callgsubr
        </CharString>
        <CharString name="Uhornhookabove">
          58 callsubr
          92 -21 49 -20 173 -77 callgsubr
          -262 162 -107 callgsubr
        </CharString>
        <CharString name="Uhorntilde">
          58 callsubr
          50 149 callgsubr
          171 99 -50 99 364 39 -20 99 -70 120 hintmask 0000000001000000
          2 callsubr
          hintmask 0010000010000000
          4 3 0 1 3 hvcurveto
          hintmask 0000000100000000
          -17 -25 -29 -17 -33 -5 rrcurveto
          46 vlineto
          hintmask 0100000010000000
          -4 callgsubr
          hintmask 1000001100000000
          -22 callgsubr
          hintmask 0100010000000000
          -12 callgsubr
          hintmask 0100001000000000
          13 callsubr
          hintmask 1000010101000000
          -47 callsubr
          hintmask 0000100000000000
          -182 86 -4 callsubr
        </CharString>
        <CharString name="Uhungarumlaut">
          25 callsubr
          82 142 callsubr
          30 callsubr
          414 39 hintmask 11001100
          -105 callgsubr
          hintmask 00110000
          -351 250 -74 callsubr
        </CharString>
        <CharString name="Umacron">
          25 callsubr
          71 42 30 callsubr
          414 39 hintmask 11011000
          -105 callgsubr
          hintmask 00101000
          -145 110 -26 callsubr
        </CharString>
        <CharString name="Uogonek">
          896 65 callgsubr
          -13 59 46 39 626 107 callsubr
          414 39 hintmask 10111110
          830 644 rmoveto
          39 vlineto
          -125 -4 rlineto
          -37 -67 2 2 -22 hvcurveto
          -39 vlineto
          106 0 -45 -26 hvcurveto
          -341 vlineto
          -135 -110 -79 -111 -70 -123 36 174 vhcurveto
          371 -94 callgsubr
          -369 vlineto
          -129 110 -100 134 -19 vhcurveto
          -30 -31 -26 -41 -1 -38 5 callsubr
          hintmask 01000000
          -42 callsubr
          rrcurveto
          hintmask 00111010
          102 callsubr
          10 17 13 16 14 13 rrcurveto
          145 6 107 111 133 vvcurveto
          344 vlineto
          26 0 45 106 vhcurveto
          endchar
        </CharString>
        <CharString name="Upsilon">
          935 0 39 582 83 hstem
          79 41 297 100 297 41 cntrmask 00111000
          855 551 rmoveto
          68 -56 85 -99 -98 -97 -73 -177 -37 vhcurveto
          -1 hlineto
          182 -39 -100 68 -94 hhcurveto
          -99 -56 -85 -68 -6 0 -15 20 17 2 13 4 hvcurveto
          74 8 96 0 9 hhcurveto
          130 56 -149 -129 hvcurveto
          -257 vlineto
          -26 0 -15 -44 -4 vhcurveto
          -2 -26 -41 0 -22 hhcurveto
          -39 vlineto
          4 54 74 0 55 hhcurveto
          55 74 0 -4 54 hvcurveto
          39 vlineto
          -27 -34 0 2 -26 hvcurveto
          -46 4 0 14 27 vvcurveto
          257 vlineto
          130 56 148 130 5 40 -1 -17 31 vhcurveto
          33 -19 3 -21 1 -18 rrcurveto
          -10 1 9 -5 9 hhcurveto
          20 0 15 6 hvcurveto
          endchar
        </CharString>
        <CharString name="Uring">
          25 callsubr
          31 39 98 107 callsubr
          88 46 140 46 94 39 hintmask 11001001
          -105 callgsubr
          hintmask 00110110
          -285 158 -53 callsubr
        </CharString>
        <CharString name="Utilde">
          25 callsubr
          51 60 -16 60 30 callsubr
          414 39 hintmask 11001100
          -105 callgsubr
          hintmask 00010000
          -161 171 -76 callsubr
        </CharString>
        <CharString name="V">
          896 0 -21 599 39 27 39 hstem
          856 644 rmoveto
          39 vlineto
          -3 -34 -35 -1 -34 hhcurveto
          -42 -68 3 1 -13 hvcurveto
          -39 vlineto
          48 23 -22 -24 -8 -3 -6 -3 -6 hvcurveto
          -216 -481 -226 503 rlineto
          -6 12 0 2 3 vvcurveto
          27 50 0 31 vhcurveto
          39 vlineto
          -155 -4 -134 4 rlineto
          -39 19 vlineto
          62 11 -8 -30 14 hvcurveto
          270 -603 rlineto
          -20 9 8 -4 16 hhcurveto
          18 7 8 14 6 hvcurveto
          260 580 rlineto
          50 23 46 13 48 hhcurveto
          endchar
        </CharString>
        <CharString name="W">
          101 callsubr
          hstem
          -88 callgsubr
          endchar
        </CharString>
        <CharString name="Wacute">
          101 callsubr
          82 -21 166 -20 hstemhm
          hintmask 11000000
          -88 callgsubr
          hintmask 00110000
          -415 214 -102 callsubr
        </CharString>
        <CharString name="Wcircumflex">
          101 callsubr
          102 callgsubr
          hintmask 11000000
          -88 callgsubr
          hintmask 00110000
          -420 106 -91 callsubr
          endchar
        </CharString>
        <CharString name="Wdieresis">
          101 callsubr
          51 108 hstemhm
          438 38 callgsubr
          hintmask 11001000
          -88 callgsubr
          hintmask 00111000
          -635 31 callsubr
        </CharString>
        <CharString name="Wgrave">
          101 callsubr
          82 -21 166 -20 hstemhm
          hintmask 11000000
          -88 callgsubr
          hintmask 00110000
          -493 133 -67 callgsubr
        </CharString>
        <CharString name="X">
          -42 callgsubr
        </CharString>
        <CharString name="Xi">
          806 0 80 97 -20 123 -21 53 80 53 -20 106 -21 86 80 hstemhm
          63 37 -31 37 -28 37 61 37 379 37 70 37 -31 37 hintmask 0000001001000000
          736 510 rmoveto
          -9 166 rlineto
          -649 hlineto
          hintmask 0000011010001000
          -9 -166 rlineto
          37 hlineto
          1 16 2 54 13 9 rrcurveto
          7 8 60 0 13 hhcurveto
          399 hlineto
          0 76 0 6 -8 vhcurveto
          12 -12 2 -47 1 -19 rrcurveto
          43 -333 rmoveto
          hintmask 1100000001000100
          -37 hlineto
          -1 -22 -2 -49 -10 -16 rrcurveto
          -10 -7 -64 0 -18 hhcurveto
          -401 hlineto
          -13 -67 0 8 -7 hvcurveto
          hintmask 1111100100110100
          -12 13 -2 51 -1 25 rrcurveto
          -37 hlineto
          9 -177 rlineto
          661 hlineto
          -104 259 rmoveto
          186 -37 -53 -379 53 -37 -186 37 53 379 -53 vlineto
          endchar
        </CharString>
        <CharString name="Y">
          37 callsubr
          hstem
          399 96 vstem
          -94 callsubr
          endchar
        </CharString>
        <CharString name="Yacute">
          37 callsubr
          82 -21 166 -20 hstemhm
          399 96 hintmask 11001000
          -94 callsubr
          hintmask 00110000
          -257 214 -102 callsubr
        </CharString>
        <CharString name="Ycircumflex">
          37 callsubr
          102 callgsubr
          399 96 hintmask 11001000
          -94 callsubr
          hintmask 00110000
          -262 106 -91 callsubr
          endchar
        </CharString>
        <CharString name="Ydieresis">
          37 callsubr
          51 108 hstemhm
          276 109 14 96 18 109 hintmask 11011000
          -94 callsubr
          hintmask 00110100
          -477 31 callsubr
        </CharString>
        <CharString name="Ydotbelow">
          896 113 callsubr
          hstemhm
          387 121 -109 96 hintmask 01101000
          -94 callsubr
          hintmask 10010000
          -354 -784 -99 callsubr
        </CharString>
        <CharString name="Ygrave">
          37 callsubr
          82 -21 166 -20 hstemhm
          399 96 hintmask 11001000
          -94 callsubr
          hintmask 00110000
          -335 133 -67 callgsubr
        </CharString>
        <CharString name="Yhookabove">
          37 callsubr
          93 -21 202 -20 hstemhm
          399 96 hintmask 11001000
          -94 callsubr
          hintmask 00111000
          -299 247 -107 callgsubr
        </CharString>
        <CharString name="Ytilde">
          37 callsubr
          51 149 callgsubr
          399 96 hintmask 11001000
          -94 callsubr
          hintmask 00010000
          -219 171 -76 callsubr
        </CharString>
        <CharString name="Z">
          96 callsubr
          hstem
          -71 callgsubr
          endchar
        </CharString>
        <CharString name="Zacute">
          96 callsubr
          82 -21 166 -20 hstemhm
          hintmask 11000000
          -71 callgsubr
          hintmask 00110000
          -122 858 -102 callsubr
        </CharString>
        <CharString name="Zcaron">
          96 callsubr
          102 callgsubr
          hintmask 11000000
          -71 callgsubr
          hintmask 00110000
          -127 851 -58 callsubr
        </CharString>
        <CharString name="Zdotaccent">
          96 callsubr
          72 120 hstemhm
          309 121 hintmask 11000000
          -71 callgsubr
          hintmask 00110000
          -219 815 -99 callsubr
        </CharString>
        <CharString name="Zdotbelow">
          741 24 callsubr
          80 42 602 39 hstemhm
          309 121 hintmask 01100000
          -71 callgsubr
          hintmask 10010000
          -219 -140 -99 callsubr
        </CharString>
        <CharString name="Zeta">
          96 callsubr
          hstem
          -71 callgsubr
          endchar
        </CharString>
        <CharString name="a">
          -34 callgsubr
          10 callgsubr
          hintmask 01111100
          -101 callgsubr
          hintmask 01000100
          -52 7 33 -23 35 hhcurveto
          4 107 0 95 hvcurveto
          -198 52 rmoveto
          hintmask 10011000
          -67 callsubr
          endchar
        </CharString>
        <CharString name="aacute">
          -34 callgsubr
          79 -21 194 -104 callsubr
          69 414 -86 callgsubr
        </CharString>
        <CharString name="abreve">
          -34 callgsubr
          66 49 130 -104 callsubr
          46 callgsubr
          endchar
        </CharString>
        <CharString name="abreveacute">
          -34 callgsubr
          66 49 316 -104 callsubr
          46 callgsubr
          -60 134 -102 callsubr
        </CharString>
        <CharString name="abrevedotbelow">
          611 69 callsubr
          9 callsubr
          66 49 130 -20 hstemhm
          54 88 103 121 16 83 78 37 hintmask 0011001011000000
          580 90 rmoveto
          -106 callsubr
          hintmask 0100000000000000
          -46 callgsubr
          hintmask 0010000001000000
          -52 7 33 -23 35 hhcurveto
          4 107 0 95 hvcurveto
          -198 52 rmoveto
          hintmask 0100111010000000
          -67 callsubr
          46 callgsubr
          hintmask 1000000100000000
          -117 -831 -99 callsubr
        </CharString>
        <CharString name="abrevegrave">
          -34 callgsubr
          66 49 130 -104 callsubr
          46 callgsubr
          -59 53 rmoveto
          -18 -33 -186 83 -14 6 -14 7 -3 18 rlinecurve
          26 -6 19 26 27 hhcurveto
          15 11 -9 0 hvcurveto
          endchar
        </CharString>
        <CharString name="abrevehookabove">
          -34 callgsubr
          66 49 332 -104 callsubr
          46 callgsubr
          -63 136 -107 callgsubr
        </CharString>
        <CharString name="abrevetilde">
          -34 callgsubr
          66 49 170 60 -36 49 -42 49 -36 60 10 callgsubr
          hintmask 0110000011100000
          580 90 rmoveto
          -106 callsubr
          hintmask 1000000000000000
          -46 callgsubr
          hintmask 0100000000100000
          -52 7 33 -23 35 hhcurveto
          4 107 0 95 hvcurveto
          -198 52 rmoveto
          hintmask 1000000011000000
          -67 callsubr
          hintmask 0001000100000000
          46 callgsubr
          17 121 rmoveto
          -22 23 rlineto
          hintmask 0000100000000000
          -38 -40 -26 -6 -23 hhcurveto
          hintmask 0000001000000000
          -24 -22 9 11 -25 hvcurveto
          hintmask 0000000100000000
          14 -32 -23 10 -27 hhcurveto
          hintmask 0000010000000000
          -22 -25 -8 -23 -26 hvcurveto
          -26 -22 25 20 -50 -48 rrcurveto
          hintmask 0000100000000000
          22 -23 rlineto
          hintmask 0000000100000000
          38 40 26 6 23 hhcurveto
          hintmask 0000010000000000
          24 22 -9 -11 25 hvcurveto
          hintmask 0000100000000000
          -14 32 23 -10 27 hhcurveto
          hintmask 0000001000000000
          22 25 8 23 26 hvcurveto
          26 22 -25 -20 50 48 rrcurveto
          endchar
        </CharString>
        <CharString name="acaron">
          -34 callgsubr
          88 -21 176 -104 callsubr
          76 435 rmoveto
          -53 callgsubr
        </CharString>
        <CharString name="acircumflex">
          -34 callgsubr
          88 -21 176 -104 callsubr
          76 287 rmoveto
          -64 callgsubr
          endchar
        </CharString>
        <CharString name="acircumflexacute">
          -34 callgsubr
          88 -21 319 -104 callsubr
          75 289 -91 callsubr
          -22 267 -102 callsubr
        </CharString>
        <CharString name="acircumflexdotbelow">
          611 69 callsubr
          9 callsubr
          88 -21 176 -20 hstemhm
          54 88 103 121 16 83 78 37 hintmask 0011001011000000
          580 90 rmoveto
          -106 callsubr
          hintmask 0100000000000000
          -46 callgsubr
          hintmask 0010000001000000
          -52 7 33 -23 35 hhcurveto
          4 107 0 95 hvcurveto
          -198 52 rmoveto
          hintmask 0100111010000000
          -67 callsubr
          76 287 rmoveto
          -64 callgsubr
          hintmask 1000000100000000
          -79 -653 -99 callsubr
        </CharString>
        <CharString name="acircumflexgrave">
          -34 callgsubr
          88 -21 133 -104 callsubr
          75 289 -66 callsubr
        </CharString>
        <CharString name="acircumflexhookabove">
          -34 callgsubr
          88 -21 335 -104 callsubr
          75 289 -91 callsubr
          89 269 -107 callgsubr
        </CharString>
        <CharString name="acircumflextilde">
          -34 callgsubr
          88 -21 173 60 -16 60 10 callgsubr
          hintmask 0110001110000000
          580 90 rmoveto
          -106 callsubr
          hintmask 1000000000000000
          -46 callgsubr
          hintmask 0100000010000000
          -52 7 33 -23 35 hhcurveto
          4 107 0 95 hvcurveto
          -198 52 rmoveto
          hintmask 1000001100000000
          -67 callsubr
          hintmask 0001010000000000
          75 289 8 callsubr
          hintmask 0000100000000000
          -38 -40 -26 -6 -23 hhcurveto
          -24 -22 9 11 -25 hvcurveto
          hintmask 0000010000000000
          -86 callsubr
          hintmask 0000100000000000
          100 callgsubr
          hintmask 0000100000000000
          -88 callsubr
        </CharString>
        <CharString name="acute">
          611 525 81 callgsubr
          hstem
          451 654 -86 callgsubr
        </CharString>
        <CharString name="acute.cap">
          142 callgsubr
          -21 166 -20 hstem
          462 605 -102 callsubr
        </CharString>
        <CharString name="acute.dup">
          611 525 81 callgsubr
          hstem
          451 654 -86 callgsubr
        </CharString>
        <CharString name="acute.ts1">
          611 526 81 callgsubr
          hstem
          472 654 rmoveto
          24 -20 21 -25 vhcurveto
          -4 hlineto
          -14 -2 -9 -10 -9 -9 -21 -22 rcurveline
          -117 -122 23 -29 16 7 14 12 14 9 rlinecurve
          73 48 43 29 rlineto
          17 11 19 10 23 vvcurveto
          endchar
        </CharString>
        <CharString name="adblgrave">
          -34 callgsubr
          80 -21 192 -104 callsubr
          68 286 -91 callgsubr
        </CharString>
        <CharString name="adieresis">
          -34 callgsubr
          101 108 hstemhm
          54 88 10 49 callsubr
          -78 83 78 37 hintmask 0110100110000000
          580 90 rmoveto
          -106 callsubr
          hintmask 1000000000000000
          -46 callgsubr
          hintmask 0100000010000000
          -52 7 33 -23 35 hhcurveto
          4 107 0 95 hvcurveto
          -198 52 rmoveto
          hintmask 1000100100000000
          -67 callsubr
          hintmask 0001011000000000
          -121 361 -59 callsubr
        </CharString>
        <CharString name="adotbelow">
          611 69 callsubr
          9 callsubr
          hstemhm
          54 88 103 121 16 83 78 37 hintmask 00111011
          580 90 rmoveto
          -106 callsubr
          hintmask 01000000
          -46 callgsubr
          hintmask 00100001
          -52 7 33 -23 35 hhcurveto
          4 107 0 95 hvcurveto
          -198 52 rmoveto
          hintmask 01001010
          -67 callsubr
          hintmask 10000100
          -16 -380 -99 callsubr
        </CharString>
        <CharString name="ae">
          -50 callgsubr
        </CharString>
        <CharString name="ae.dup">
          -50 callgsubr
        </CharString>
        <CharString name="aeacute">
          870 -10 32 202 32 -30 70 callgsubr
          136 callsubr
          67 88 39 73 -68 70 137 70 274 73 hintmask 0011000011100000
          823 120 rmoveto
          5 -2 11 -17 -13 -3 -7 -10 -3 vhcurveto
          -76 -28 -68 -18 -41 hhcurveto
          -39 -133 20 181 hvcurveto
          317 hlineto
          155 callgsubr
          -72 -61 -30 -45 -43 hvcurveto
          9 -7 -50 66 -127 hhcurveto
          -47 -120 -4 -85 -27 18 -22 31 29 19 22 26 18 -8 17 -18 8 hvcurveto
          hintmask 1011001100100000
          15 33 50 0 11 hhcurveto
          69 57 -40 -78 hvcurveto
          -41 vlineto
          -55 -2 -70 -3 -74 -23 rrcurveto
          -73 -24 -54 -42 -61 vvcurveto
          -81 92 -29 92 60 96 16 69 41 vhcurveto
          -21 20 63 -64 112 hhcurveto
          130 50 106 24 148 callsubr
          -272 hlineto
          125 13 88 33 48 hhcurveto
          117 5 -131 -27 1 hvcurveto
          -344 -123 rmoveto
          -69 -74 -42 -74 -56 -47 32 46 vhcurveto
          hintmask 0100000001000000
          26 11 87 227 11 vhcurveto
          -12 0 -25 8 -27 vhcurveto
          5 -13 0 -14 0 vvcurveto
          hintmask 0000110000000000
          175 521 -86 callgsubr
        </CharString>
        <CharString name="agrave">
          -34 callgsubr
          79 -21 194 -104 callsubr
          -4 293 -59 callgsubr
        </CharString>
        <CharString name="ahookabove">
          -34 callgsubr
          75 -21 202 -104 callsubr
          38 396 -107 callgsubr
        </CharString>
        <CharString name="amacron">
          -34 callgsubr
          134 42 10 callgsubr
          hintmask 01101110
          -101 callgsubr
          hintmask 01000010
          -52 7 33 -23 35 hhcurveto
          4 107 0 95 hvcurveto
          -198 52 rmoveto
          hintmask 10001100
          -67 callsubr
          hintmask 00010000
          134 340 -26 callsubr
        </CharString>
        <CharString name="ampersand">
          935 -21 39 103 39 151 39 26 32 -16 39 252 32 hstemhm
          63 95 45 76 156 37 288 95 -37 37 hintmask 0100100001000000
          862 392 rmoveto
          39 vlineto
          -3 -34 -34 -1 -34 hhcurveto
          -48 -73 3 1 -11 hvcurveto
          -39 vlineto
          40 23 -15 -23 -10 -4 -7 -5 -7 hvcurveto
          -7 -10 -87 -129 -78 -70 rrcurveto
          hintmask 1111011110100000
          -20 20 -121 129 -44 106 rrcurveto
          119 106 28 54 44 vvcurveto
          57 -32 78 -75 -74 -88 -58 -110 -59 14 -72 29 -66 vhcurveto
          -51 -45 -2 0 -49 -44 rrcurveto
          -48 -42 -33 -28 -58 vvcurveto
          -94 97 -60 114 105 74 52 20 29 vhcurveto
          -26 40 74 -46 94 hhcurveto
          84 78 52 90 3 hvcurveto
          -37 hlineto
          -77 -3 -74 -26 -47 hhcurveto
          -63 -57 41 36 -38 hvcurveto
          62 54 72 101 43 61 rrcurveto
          hintmask 0000100000000000
          29 41 28 39 92 1 rrcurveto
          -427 188 rmoveto
          hintmask 1101011110000000
          -67 -109 -93 -14 -12 vhcurveto
          -33 81 0 78 6 vvcurveto
          67 41 43 46 51 18 -65 -38 vhcurveto
          17 -505 rmoveto
          -51 -73 -68 -6 -29 hhcurveto
          -82 -42 76 66 24 6 39 27 34 hvcurveto
          7 8 39 34 23 20 62 -127 97 -90 33 -27 rrcurveto
          endchar
        </CharString>
        <CharString name="anglearc">
          935 -118 -21 778 -20 hstem
          660 52 vstem
          855 26 rmoveto
          12 -8 10 -10 3 vhcurveto
          -145 45 rlineto
          13 50 7 52 52 vvcurveto
          52 -7 52 -13 50 vhcurveto
          145 45 rlineto
          10 3 8 10 12 vvcurveto
          18 -17 12 -17 -5 vhcurveto
          -144 -45 -23 63 -33 59 -42 53 rlinecurve
          6 -5 -7 4 -8 hhcurveto
          -15 -11 -12 -14 -6 2 -6 3 -4 hvcurveto
          39 -48 29 -54 21 -56 -530 -164 rcurveline
          -10 -3 -8 -10 -12 vvcurveto
          -12 8 -10 10 -3 vhcurveto
          530 -164 -21 -56 -29 -54 -39 -48 rlinecurve
          -3 -4 -2 -6 -6 vvcurveto
          -14 11 -12 15 8 7 4 6 5 vhcurveto
          42 53 33 59 23 63 144 -45 rcurveline
          17 -5 17 12 18 vvcurveto
          -195 224 rmoveto
          -47 -6 -47 -12 -45 vhcurveto
          -449 139 449 139 rlineto
          12 -45 6 -47 -47 vvcurveto
          endchar
        </CharString>
        <CharString name="angleleft">
          123 callsubr
          401 -225 rmoveto
          13 -9 14 -4 11 vhcurveto
          -157 359 -8 18 -8 18 -7 18 rlinecurve
          -4 7 -6 10 8 vvcurveto
          4 2 4 1 3 vhcurveto
          39 88 143 327 rlineto
          5 14 13 19 15 vvcurveto
          14 -12 12 -14 vhcurveto
          hintmask 11000000
          -5 -1 -20 -3 -5 -26 -7 -16 rlinecurve
          -185 -423 rlineto
          -4 -10 -7 -11 -11 vvcurveto
          1 -10 6 -10 4 -9 31 -80 38 -78 34 -78 80 -184 rcurveline
          10 -23 rlineto
          -13 6 6 -14 17 hhcurveto
          14 12 11 13 hvcurveto
          endchar
        </CharString>
        <CharString name="angleright">
          123 callsubr
          338 251 rmoveto
          10 -6 11 -5 9 vhcurveto
          -24 55 -160 367 rlineto
          17 -7 -8 31 -22 hhcurveto
          hintmask 11000000
          -6 -1 rlineto
          -12 -9 -14 -10 -10 6 -11 4 -9 hvcurveto
          159 -363 24 -56 rlineto
          3 -8 7 -10 -8 vvcurveto
          -4 -2 -4 -1 -3 vhcurveto
          -8 -18 -30 -67 -102 -234 -40 -93 rlineto
          -7 -16 -13 -21 -14 vvcurveto
          -14 11 -12 15 vhcurveto
          1 hlineto
          22 1 6 26 7 17 185 423 rcurveline
          5 10 7 12 11 vvcurveto
          endchar
        </CharString>
        <CharString name="aogonek">
          -34 callgsubr
          10 callgsubr
          hintmask 01111100
          584 -126 20 callsubr
          -110 5 5 100 100 62 rrcurveto
          4 107 0 95 hvcurveto
          -106 callsubr
          hintmask 10011000
          -46 callgsubr
          3 -26 10 -17 14 -13 -42 -30 -50 -59 -1 -53 5 callsubr
          -202 268 rmoveto
          -67 callsubr
          endchar
        </CharString>
        <CharString name="aogonekacute">
          -34 callgsubr
          79 -21 194 -20 0 callsubr
          584 -126 20 callsubr
          -110 5 5 100 100 62 rrcurveto
          4 107 0 95 hvcurveto
          -106 callsubr
          hintmask 10000110
          -46 callgsubr
          3 -26 10 -17 14 -13 -42 -30 -50 -59 -1 -53 5 callsubr
          -202 268 rmoveto
          -67 callsubr
          hintmask 00011000
          69 414 -86 callgsubr
        </CharString>
        <CharString name="aring">
          -34 callgsubr
          81 39 98 39 hstemhm
          54 88 47 46 140 46 -39 83 78 37 hintmask 0110011011000000
          580 90 rmoveto
          -106 callsubr
          hintmask 1000000000000000
          -46 callgsubr
          hintmask 0100000001000000
          -52 7 33 -23 35 hhcurveto
          4 107 0 95 hvcurveto
          -198 52 rmoveto
          hintmask 1000010010000000
          -67 callsubr
          hintmask 0001101100000000
          -7 375 -53 callsubr
        </CharString>
        <CharString name="aringacute">
          -34 callgsubr
          81 39 98 39 186 -20 hstemhm
          54 88 47 46 140 46 -39 83 78 37 hintmask 0110001101100000
          580 90 rmoveto
          -106 callsubr
          hintmask 1000000000000000
          -46 callgsubr
          hintmask 0100000000100000
          -52 7 33 -23 35 hhcurveto
          4 107 0 95 hvcurveto
          -198 52 rmoveto
          hintmask 1000001001000000
          -67 callsubr
          hintmask 0001100110000000
          -7 375 -77 callsubr
          1 223 rmoveto
          hintmask 0000010001000000
          26 7 -20 26 -27 hhcurveto
          -15 -11 -9 0 hvcurveto
          -169 -124 18 -33 186 83 14 6 14 7 3 18 rlinecurve
          endchar
        </CharString>
        <CharString name="asciicircum">
          556 583 -21 123 59 hstem
          -5 566 vstem
          561 584 rmoveto
          -283 160 -283 -160 11 -22 271 123 272 -123 rlineto
          endchar
        </CharString>
        <CharString name="asciitilde">
          556 193 43 -25 43 -8 43 -25 43 hstemhm
          hintmask 10010000
          555 290 54 callsubr
          hintmask 01000000
          34 callgsubr
          hintmask 00100000
          20 10 20 11 17 14 rrcurveto
          endchar
        </CharString>
        <CharString name="asciitilde.low">
          556 0 43 -25 43 -8 43 -25 43 hstemhm
          0 555 hintmask 10010000
          555 97 54 callsubr
          hintmask 01001000
          34 callgsubr
          hintmask 00101000
          20 10 20 11 17 14 rrcurveto
          endchar
        </CharString>
        <CharString name="asterisk">
          611 340 -21 431 -20 hstem
          267 73 vstem
          519 443 rmoveto
          21 -12 4 -14 6 vhcurveto
          -150 60 150 61 rlineto
          14 6 12 4 21 vvcurveto
          23 -18 12 -15 -7 -1 -1 -8 -13 vhcurveto
          -143 -90 15 146 rlineto
          20 2 -6 22 -28 hhcurveto
          -8 -28 -1 -40 4 hvcurveto
          15 -147 -142 90 rlineto
          5 -9 -5 4 -8 hhcurveto
          -15 -18 -12 -23 -21 12 -4 14 -6 hvcurveto
          150 -60 -150 -61 rlineto
          -14 -6 -12 -4 -21 vvcurveto
          -23 18 -12 15 7 1 1 8 13 vhcurveto
          143 90 -15 -146 rlineto
          -41 -4 27 -1 9 hhcurveto
          22 13 14 27 -3 hvcurveto
          -15 147 142 -90 rlineto
          -5 9 5 -4 8 hhcurveto
          15 18 12 23 hvcurveto
          endchar
        </CharString>
        <CharString name="asterisk.math">
          611 57 -21 430 -20 hstem
          519 160 rmoveto
          30 -40 6 -22 10 vhcurveto
          -38 15 -38 14 -37 16 rrcurveto
          57 25 118 28 38 vvcurveto
          16 -13 19 -19 -16 -14 -12 -8 -13 vhcurveto
          -41 -26 -39 -28 -42 -24 15 140 rcurveline
          1 6 1 7 6 vvcurveto
          17 -2 -17 11 -16 hhcurveto
          -24 -8 -20 -14 -7 1 -8 1 -8 hvcurveto
          14 -130 -42 24 -39 28 -41 26 rlinecurve
          8 -13 -14 12 -16 hhcurveto
          -19 -13 -19 -16 -30 40 -6 22 -10 hvcurveto
          38 -15 38 -14 37 -16 rrcurveto
          -57 -25 -118 -28 -38 vvcurveto
          -16 13 -19 19 16 14 12 8 13 vhcurveto
          41 26 39 28 42 24 -14 -130 rcurveline
          -1 -8 -1 -8 -7 vvcurveto
          -14 8 -20 24 16 17 11 17 2 vhcurveto
          18 -3 19 -3 17 vhcurveto
          -11 105 42 -24 39 -28 41 -26 rlinecurve
          -8 13 14 -12 16 hhcurveto
          19 13 19 16 hvcurveto
          endchar
        </CharString>
        <CharString name="at">
          935 -10 32 104 32 266 32 80 32 104 32 hstemhm
          79 37 118 83 300 83 0 37 81 37 hintmask 1111111011000000
          855 74 rmoveto
          14 -13 0 -15 vhcurveto
          -8 hlineto
          -16 -2 0 -7 -17 hvcurveto
          -49 -127 -114 -10 -71 hhcurveto
          -214 -142 158 167 177 155 148 196 183 168 -133 -198 -34 0 -149 -81 -37 0 50 12 hvcurveto
          236 vlineto
          26 -1 2 -27 vhcurveto
          -40 hlineto
          60 -48 -58 24 -60 hhcurveto
          -127 -105 -98 -123 -123 106 -98 126 83 52 48 20 18 hvcurveto
          -53 13 63 -15 36 hhcurveto
          107 17 134 83 208 -179 153 -209 -218 -170 -163 -194 -182 155 -175 239 194 159 62 12 26 hvcurveto
          0 3 5 5 vvcurveto
          -238 196 rmoveto
          -19 0 -3 -16 -21 vhcurveto
          -58 -46 -56 -11 -31 hhcurveto
          -82 -69 83 106 106 69 83 82 40 54 -17 -55 40 hvcurveto
          hintmask 0010000100000000
          15 -19 0 -1 -20 vvcurveto
          endchar
        </CharString>
        <CharString name="atilde">
          -34 callgsubr
          103 60 -16 60 -105 callsubr
          hintmask 00001000
          118 390 -92 callsubr
        </CharString>
        <CharString name="b">
          676 -10 32 310 50 27 32 203 50 129 callsubr
          310 95 hintmask 01110100
          100 callsubr
          312 vlineto
          hintmask 11111010
          -158 -68 callsubr
          -588 31 callgsubr
          91 callgsubr
        </CharString>
        <CharString name="backslash">
          639 750 -20 hstem
          545 -224 rmoveto
          0 0 7 -5 11 vhcurveto
          -393 932 rlineto
          20 -8 -10 4 -10 hhcurveto
          -14 -12 -11 -15 0 0 -7 5 -11 hvcurveto
          393 -932 rlineto
          -20 8 10 -4 10 hhcurveto
          14 12 11 15 hvcurveto
          endchar
        </CharString>
        <CharString name="baht">
          851 141 callsubr
          261 32 234 39 0 39 hstemhm
          175 93 129 40 6 40 152 104 -75 107 hintmask 1000111110000000
          771 184 rmoveto
          78 -78 78 -141 18 vhcurveto
          102 17 85 61 77 vvcurveto
          91 -113 79 -143 vhcurveto
          -46 40 hlineto
          11 -8 9 -12 -11 -9 -9 -11 vhcurveto
          -40 -328 -63 callgsubr
          -515 -37 callgsubr
          -39 328 -40 hlineto
          -11 9 -9 11 12 8 9 11 vhcurveto
          40 77 vlineto
          hintmask 0010101101000000
          146 111 86 98 hvcurveto
          -136 329 rmoveto
          -76 -77 -66 -115 vhcurveto
          -6 273 39 hlineto
          hintmask 1011011010000000
          99 60 -65 -66 hvcurveto
          -238 -142 rmoveto
          -129 234 hlineto
          31 0 8 49 vhcurveto
          80 hlineto
          267 -459 rmoveto
          -73 -73 -73 -113 vhcurveto
          -41 300 57 hlineto
          hintmask 1000000001000000
          108 62 -82 -72 hvcurveto
          -267 -146 rmoveto
          -80 hlineto
          hintmask 0110011000000000
          -49 0 8 31 hvcurveto
          261 129 vlineto
          endchar
        </CharString>
        <CharString name="bar">
          380 750 -20 hstem
          164 52 vstem
          216 -211 rmoveto
          26 callsubr
          endchar
        </CharString>
        <CharString name="bigcircle">
          74 callgsubr
          579 52 vstem
          -63 callsubr
          endchar
        </CharString>
        <CharString name="blanksymbol">
          676 -10 32 310 50 27 32 -10 32 181 50 -32 32 129 callsubr
          310 95 hintmask 0110010100000000
          100 callsubr
          149 vlineto
          121 96 rlineto
          4 3 3 6 6 vvcurveto
          11 -8 9 -12 -4 -5 -1 -3 -3 vhcurveto
          -96 -76 rlineto
          112 vlineto
          hintmask 1101101010000000
          -158 -68 callsubr
          -69 vlineto
          -71 -56 rlineto
          -5 -4 -3 -6 -6 vvcurveto
          -11 9 -9 11 5 4 2 2 3 vhcurveto
          47 37 rlineto
          -468 31 callgsubr
          hintmask 0010000010000000
          91 callgsubr
        </CharString>
        <CharString name="braceleft">
          92 callgsubr
          -234 rmoveto
          3 0 12 -15 1 vhcurveto
          -102 5 -38 40 -11 34 rrcurveto
          -3 12 0 6 18 vvcurveto
          180 vlineto
          73 0 16 -24 31 vhcurveto
          -18 22 -34 20 -39 11 rrcurveto
          115 33 0 70 29 vvcurveto
          180 vlineto
          76 0 14 31 28 vhcurveto
          26 22 45 14 43 2 rrcurveto
          14 1 10 0 15 vvcurveto
          16 -11 0 -16 -129 -92 -50 -76 -2 vhcurveto
          -228 vlineto
          -37 0 -25 -31 -28 vhcurveto
          -33 -28 -48 -10 -34 -2 rrcurveto
          -14 -1 -10 0 -15 vvcurveto
          -3 0 -12 15 -1 vhcurveto
          138 -6 16 -75 1 -20 rrcurveto
          -228 vlineto
          -39 0 -49 68 -35 vhcurveto
          -32 63 82 0 10 hhcurveto
          16 11 0 16 hvcurveto
          endchar
        </CharString>
        <CharString name="braceright">
          92 callgsubr
          250 rmoveto
          3 0 12 -15 1 vhcurveto
          -68 3 -65 22 -18 60 rrcurveto
          -3 9 0 2 36 vvcurveto
          210 vlineto
          22 0 53 -68 35 vhcurveto
          30 -59 -77 2 -19 hhcurveto
          -16 -12 0 -16 -3 0 -12 15 -1 hvcurveto
          85 -4 53 -29 14 -46 rrcurveto
          3 -12 0 -6 -18 vvcurveto
          -238 vlineto
          1 -45 34 -46 80 -24 rrcurveto
          -115 -34 0 -66 -32 vvcurveto
          -238 vlineto
          -1 -47 -52 -47 -93 -4 rrcurveto
          -15 -1 -9 0 -15 vvcurveto
          -16 12 0 16 127 94 49 77 2 vhcurveto
          193 vlineto
          83 0 13 31 29 vhcurveto
          18 15 37 22 60 3 rrcurveto
          13 1 10 0 15 vvcurveto
          endchar
        </CharString>
        <CharString name="bracketleft">
          352 -250 52 896 52 hstem
          149 52 vstem
          312 -250 rmoveto
          52 -111 896 111 52 -163 -1000 vlineto
          endchar
        </CharString>
        <CharString name="bracketright">
          352 -250 52 896 52 hstem
          150 52 vstem
          202 -250 rmoveto
          1000 -163 -52 111 -896 -111 -52 vlineto
          endchar
        </CharString>
        <CharString name="breve">
          142 callgsubr
          49 130 -20 hstem
          483 691 -99 callgsubr
          endchar
        </CharString>
        <CharString name="breve.cap">
          611 491 49 130 -20 hstem
          483 670 -99 callgsubr
          endchar
        </CharString>
        <CharString name="breve.ts1">
          741 515 50 130 -20 hstem
          127 33 420 33 vstem
          613 695 rmoveto
          -33 hlineto
          -103 -134 -27 -79 -86 -121 33 97 vhcurveto
          -33 hlineto
          -116 126 -64 119 104 137 56 124 vhcurveto
          endchar
        </CharString>
        <CharString name="brokenbar">
          380 750 -20 hstem
          164 52 vstem
          216 342 rmoveto
          369 vlineto
          14 0 25 -26 -26 0 -25 -14 vhcurveto
          -369 vlineto
          -12 13 -8 13 13 13 8 12 vhcurveto
          -553 vmoveto
          369 vlineto
          12 -13 8 -13 -13 -13 -8 -12 vhcurveto
          -369 52 callgsubr
          endchar
        </CharString>
        <CharString name="bullet">
          935 68 298 hstem
          319 298 76 callsubr
          endchar
        </CharString>
        <CharString name="c">
          61 callsubr
          hstem
          54 95 240 97 vstem
          -72 callgsubr
          -125 111 -101 140 159 35 119 11 vhcurveto
          endchar
        </CharString>
        <CharString name="cacute">
          61 callsubr
          136 callsubr
          54 95 240 97 hintmask 11001100
          -72 callgsubr
          -125 111 -101 140 159 35 119 11 vhcurveto
          hintmask 00110000
          -54 534 -86 callgsubr
        </CharString>
        <CharString name="caron">
          611 97 callsubr
          458 675 rmoveto
          -53 callgsubr
        </CharString>
        <CharString name="caron.cap">
          119 callsubr
          133 -20 hstem
          457 598 -58 callsubr
        </CharString>
        <CharString name="caron.ts1">
          741 570 -21 160 -20 hstem
          589 679 rmoveto
          13 -8 -5 17 -8 hhcurveto
          -9 -27 -17 -7 -15 hvcurveto
          -36 -17 -35 -19 -35 -17 -28 -14 rcurveline
          -2 -4 -4 -3 -4 hhcurveto
          -2 hlineto
          -6 -5 4 3 -5 hvcurveto
          -30 15 -140 69 rlineto
          2 -4 -4 3 -4 hhcurveto
          -2 hlineto
          -3 -1 -1 -4 -2 -3 -12 -21 rcurveline
          200 -122 19 -9 61 34 rlineto
          endchar
        </CharString>
        <CharString name="ccaron">
          61 callsubr
          88 -21 176 -20 hstemhm
          54 95 240 97 hintmask 11001100
          -72 callgsubr
          -125 111 -101 140 159 35 119 11 vhcurveto
          hintmask 00111000
          -46 555 rmoveto
          -53 callgsubr
        </CharString>
        <CharString name="ccedilla">
          61 callsubr
          hstem
          54 95 240 97 vstem
          -72 callgsubr
          -112 89 -93 119 -18 vhcurveto
          -94 vlineto
          49 59 0 -30 -31 -124 0 -90 hvcurveto
          -19 -38 38 hlineto
          127 162 0 69 52 -65 16 -61 hvcurveto
          55 vlineto
          131 15 30 103 10 vvcurveto
          endchar
        </CharString>
        <CharString name="ccircumflex">
          61 callsubr
          88 -21 176 -20 hstemhm
          54 95 240 97 hintmask 11001100
          -72 callgsubr
          -125 111 -101 140 159 35 119 11 vhcurveto
          hintmask 00110000
          -47 407 rmoveto
          -64 callgsubr
          endchar
        </CharString>
        <CharString name="cdotaccent">
          61 callsubr
          95 120 hstemhm
          54 95 90 121 29 97 hintmask 11010100
          -72 callgsubr
          -125 111 -101 140 159 35 119 11 vhcurveto
          hintmask 00101000
          -139 481 -99 callsubr
        </CharString>
        <CharString name="cedilla">
          21 callsubr
        </CharString>
        <CharString name="cedilla.dup">
          21 callsubr
        </CharString>
        <CharString name="cent">
          61 callsubr
          hstem
          54 95 131 40 69 97 vstem
          107 callgsubr
          14 -15 0 -4 -13 -2 -5 -10 -4 vhcurveto
          -6 -15 -11 -29 -34 -23 -21 -14 -31 -12 -38 -1 rrcurveto
          386 1 vlineto
          28 34 -1 -7 27 hvcurveto
          -10 -6 -11 -14 -21 vvcurveto
          -26 19 -22 29 31 18 22 27 79 -102 4 -64 vhcurveto
          25 vlineto
          11 -8 9 -12 -11 -9 -9 -11 vhcurveto
          -27 vlineto
          -158 -16 -68 -121 -91 vvcurveto
          -118 98 -96 128 -11 vhcurveto
          -31 vlineto
          -11 9 -9 11 12 8 9 11 vhcurveto
          30 vlineto
          146 8 33 111 11 vvcurveto
          -219 -91 rmoveto
          -66 15 -65 57 116 vvcurveto
          43 8 56 36 43 vhcurveto
          29 33 31 12 27 4 rrcurveto
          endchar
        </CharString>
        <CharString name="cent.oldstyle">
          546 -45 35 0 35 385 35 -34 35 hstemhm
          54 95 61 95 -86 97 -94 95 -95 97 70 97 hintmask 0110001001000000
          107 callgsubr
          14 -15 0 -4 -13 -2 -5 -10 -4 vhcurveto
          -6 -15 -11 -29 -34 -23 rrcurveto
          -15 -22 -33 -12 -39 hhcurveto
          -19 -20 3 8 -19 hvcurveto
          93 374 rlineto
          21 20 -2 -5 18 hvcurveto
          -10 -6 -11 -14 -21 vvcurveto
          -26 19 -22 29 31 18 22 27 64 -67 15 -59 3 vhcurveto
          5 21 rlineto
          12 3 -9 13 -13 hhcurveto
          -10 -7 -7 -9 -3 hvcurveto
          hintmask 0001000010000000
          -7 -29 rlineto
          hintmask 0001100100000000
          -2 hlineto
          -185 -78 -132 -98 hvcurveto
          hintmask 0000010000000000
          -95 64 -81 92 -33 vhcurveto
          -11 -42 rlineto
          hintmask 1000001000000000
          -13 -3 10 -12 13 hhcurveto
          9 8 6 9 2 hvcurveto
          10 41 rlineto
          hintmask 0100010000000000
          -4 18 19 -2 20 hhcurveto
          159 35 119 11 hvcurveto
          -189 291 rmoveto
          hintmask 0001100100000000
          -88 -356 rlineto
          -42 29 -31 52 81 vvcurveto
          43 8 56 36 43 vhcurveto
          40 46 46 5 31 1 rrcurveto
          endchar
        </CharString>
        <CharString name="centigrade">
          1129 -20 40 405 52 -40 40 33 52 70 52 -19 40 hstemhm
          338 111 563 37 hintmask 10110111
          1049 238 rmoveto
          6 vlineto
          9 -2 -9 5 -9 hhcurveto
          -10 -7 -6 -12 hvcurveto
          -8 vlineto
          -135 -13 -124 -77 -122 hhcurveto
          -105 -107 52 94 -51 hvcurveto
          -29 53 -12 61 60 vvcurveto
          57 10 61 26 52 vhcurveto
          99 51 108 56 109 hhcurveto
          126 109 -97 -125 19 hvcurveto
          -14 2 0 -15 20 hhcurveto
          19 1 12 11 hvcurveto
          250 vlineto
          9 -4 9 -11 -16 -19 -33 -18 -12 vhcurveto
          -9 -12 -11 -13 -7 -13 rrcurveto
          60 -62 -77 29 -84 hhcurveto
          -201 -198 -150 -214 -217 205 -144 196 141 169 88 170 hvcurveto
          -776 316 rmoveto
          hintmask 01011000
          68 -53 62 -81 vhcurveto
          -8 hlineto
          -65 -10 -51 -50 -68 vvcurveto
          -64 45 -67 88 vhcurveto
          8 hlineto
          66 10 51 52 67 vvcurveto
          -52 hmoveto
          -41 -37 -36 -41 -40 -31 32 38 -6 vhcurveto
          8 vlineto
          41 37 36 41 40 31 -32 -38 6 vhcurveto
          endchar
        </CharString>
        <CharString name="circumflex">
          611 97 callsubr
          458 527 rmoveto
          -64 callgsubr
          endchar
        </CharString>
        <CharString name="circumflex.cap">
          119 callsubr
          133 -20 hstem
          457 497 -91 callsubr
          endchar
        </CharString>
        <CharString name="circumflex.dup">
          611 97 callsubr
          458 527 rmoveto
          -64 callgsubr
          endchar
        </CharString>
        <CharString name="colon">
          352 0 120 191 72 callsubr
          371 13 callgsubr
          -311 vmoveto
          47 callgsubr
        </CharString>
        <CharString name="colonmonetary">
          870 -60 39 0 39 647 39 0 39 hstemhm
          79 111 269 40 251 40 hintmask 01100110
          790 234 rmoveto
          11 -1 10 -18 -16 -1 -8 -9 -1 vhcurveto
          -8 -152 -137 -67 -109 -1 rrcurveto
          647 vlineto
          112 -2 114 -77 25 -151 rrcurveto
          -13 2 1 -7 17 hhcurveto
          20 0 8 20 hvcurveto
          233 vlineto
          17 0 11 -16 -9 -2 -4 -9 -7 vhcurveto
          -55 -76 -54 54 -72 31 -76 4 rlinecurve
          19 vlineto
          hintmask 10011110
          11 -9 9 -11 -11 -9 -9 -11 vhcurveto
          -20 vlineto
          -212 -11 -168 -159 -191 vvcurveto
          -194 168 -157 212 -11 vhcurveto
          -20 vlineto
          -11 9 -9 11 11 9 9 11 vhcurveto
          19 vlineto
          174 7 117 125 123 vvcurveto
          -331 -214 rmoveto
          -118 14 -151 80 228 vvcurveto
          225 149 82 120 14 vhcurveto
          endchar
        </CharString>
        <CharString name="comma">
          352 -173 136 callgsubr
          217 32 vstem
          249 9 rmoveto
          62 -26 49 -47 -39 -21 -29 -31 -31 21 -29 39 20 14 8 7 7 vhcurveto
          -90 -42 -54 -34 -30 vhcurveto
          -10 -9 -3 -3 -6 vvcurveto
          -8 9 -9 8 14 90 79 124 vhcurveto
          endchar
        </CharString>
        <CharString name="copyleft">
          74 callgsubr
          579 52 vstem
          -63 callsubr
          -105 hmoveto
          91 -84 76 -102 -38 -37 -14 -27 -27 vhcurveto
          -25 35 rlineto
          4 -3 -1 2 -4 hhcurveto
          -8 0 -5 -8 hvcurveto
          -107 vlineto
          -10 0 -3 10 7 1 3 6 1 vhcurveto
          71 11 54 35 53 hhcurveto
          57 84 -34 -115 -117 -86 -33 -56 -51 -64 31 71 -4 hvcurveto
          4 0 4 -8 -8 -1 -5 -5 -59 58 -59 84 103 84 75 93 vhcurveto
          endchar
        </CharString>
        <CharString name="copyright">
          74 callgsubr
          105 52 422 52 vstem
          -63 callsubr
          -145 -50 rmoveto
          5 -1 5 -8 -7 -1 -4 -4 vhcurveto
          -71 -4 -64 -31 -51 hhcurveto
          -55 -86 33 117 114 83 35 58 52 54 -35 -71 11 hvcurveto
          -6 1 1 -3 8 hhcurveto
          9 0 3 10 hvcurveto
          107 vlineto
          8 0 5 -7 -5 -1 -2 -4 -3 vhcurveto
          -25 -35 rlineto
          27 -27 -37 14 -37 hhcurveto
          -103 -84 -76 -91 -93 84 -75 103 85 57 59 59 hvcurveto
          endchar
        </CharString>
        <CharString name="copyright.alt">
          754 -162 52 97 24 529 52 hstem
          0 52 650 52 vstem
          754 215 rmoveto
          232 -145 145 -232 -231 -146 -145 -232 -231 146 -146 231 232 145 146 231 vhcurveto
          -52 hmoveto
          -199 -125 -126 -200 -199 -126 126 199 200 126 125 199 200 125 -125 -200 vhcurveto
          -116 -68 rmoveto
          7 -1 7 -11 -10 -1 -5 -6 vhcurveto
          -96 -5 -88 -43 -69 hhcurveto
          -76 -117 45 159 157 114 47 78 71 74 -49 -96 16 hvcurveto
          -8 1 1 -5 10 hhcurveto
          13 0 6 12 hvcurveto
          147 vlineto
          11 0 7 -10 -6 -1 -3 -6 -4 vhcurveto
          -35 -48 rlineto
          37 -37 -49 20 -52 hhcurveto
          -140 -114 -104 -125 -126 114 -102 141 115 78 80 80 hvcurveto
          endchar
        </CharString>
        <CharString name="currency">
          935 11 52 374 52 hstem
          229 52 374 52 vstem
          742 -25 rmoveto
          18 18 -17 18 -10 10 -79 79 rcurveline
          33 41 20 52 57 vvcurveto
          57 -20 52 -33 41 vhcurveto
          78 78 10 10 18 18 -19 18 rlinecurve
          -18 19 -18 -18 -10 -10 -78 -78 rcurveline
          32 -41 -52 20 -56 hhcurveto
          -57 -52 -20 -33 -41 hvcurveto
          -80 80 -10 10 -18 17 -18 -18 rlinecurve
          -18 -18 17 -18 10 -10 80 -80 rcurveline
          -33 -41 -19 -52 -56 vvcurveto
          -56 19 -52 33 -41 vhcurveto
          -79 -79 -10 -10 -18 -18 19 -18 rlinecurve
          18 -19 18 18 10 10 79 79 rcurveline
          -33 41 52 -20 57 hhcurveto
          56 52 20 32 41 hvcurveto
          79 -79 10 -10 18 -17 18 18 rlinecurve
          -87 275 rmoveto
          -103 -84 -84 -103 -104 -83 84 103 103 83 84 104 103 84 -84 -103 vhcurveto
          endchar
        </CharString>
        <CharString name="cwm">
          0 endchar
        </CharString>
        <CharString name="cwmascender">
          0 endchar
        </CharString>
        <CharString name="cwmcapital">
          0 endchar
        </CharString>
        <CharString name="d">
          676 -10 86 callgsubr
          380 120 callsubr
          cntrmask 00000111
          hintmask 01001111
          47 callsubr
          hintmask 10110111
          -18 callgsubr
          hintmask 01000111
          60 callgsubr
          hintmask 10100111
          -29 callgsubr
          endchar
        </CharString>
        <CharString name="dagger">
          574 390 81 233 -20 hstem
          246 81 vstem
          480 431 rmoveto
          104 callgsubr
          29 0 11 12 65 rrcurveto
          3 23 9 50 34 vvcurveto
          40 -24 7 -16 -28 -13 -19 -28 -34 8 -46 5 -27 vhcurveto
          11 -65 0 -13 2 -27 45 callsubr
          -28 -4 -16 -7 -36 rrcurveto
          -13 -58 0 -9 -50 vvcurveto
          -179 17 -200 5 -38 vhcurveto
          -8 1 1 -9 16 hhcurveto
          4 13 0 11 2 hvcurveto
          3 24 19 214 185 vvcurveto
          55 0 5 -16 76 vhcurveto
          -6 27 -2 14 -2 20 91 callsubr
        </CharString>
        <CharString name="daggerdbl">
          574 -18 81 374 80 187 -20 hstem
          134 81 31 81 31 81 cntrmask 00011100
          480 477 rmoveto
          21 -15 19 -26 -21 -23 -3 -11 -37 vhcurveto
          -30 -8 -9 -1 -18 -2 2 26 4 19 11 49 rrcurveto
          3 15 6 34 24 vvcurveto
          43 -34 2 -6 -13 -28 -6 -39 -30 8 -38 6 -23 vhcurveto
          8 -39 2 -19 2 -18 -18 2 -8 1 -29 8 rrcurveto
          10 -37 -23 4 -23 hhcurveto
          -26 -15 -19 -21 -35 29 -5 17 10 17 0 14 49 hvcurveto
          30 8 9 1 18 2 -2 -26 -4 -19 -11 -49 rrcurveto
          -3 -15 -6 -34 -24 vvcurveto
          -43 34 -2 6 13 28 6 39 30 -8 38 -6 23 vhcurveto
          -8 39 -2 19 -2 18 18 -2 8 -1 29 -8 rrcurveto
          -14 53 13 0 12 hhcurveto
          14 32 3 37 hvcurveto
          -454 vmoveto
          104 callgsubr
          23 3 18 8 35 rrcurveto
          7 33 6 33 25 vvcurveto
          43 -34 2 -6 -13 -28 -6 -39 -26 7 -36 7 -29 vhcurveto
          9 -43 2 -21 1 -12 45 callsubr
          -23 -3 -18 -8 -35 rrcurveto
          -7 -33 -6 -33 -25 vvcurveto
          -43 34 -2 6 13 28 6 39 26 -7 36 -7 29 vhcurveto
          -9 43 -2 21 -1 12 91 callsubr
        </CharString>
        <CharString name="dblbracketleft">
          498 -249 52 896 52 hstem
          149 52 93 52 vstem
          458 -249 rmoveto
          52 -112 896 112 52 -309 -1000 vlineto
          145 52 rmoveto
          -93 896 93 hlineto
          endchar
        </CharString>
        <CharString name="dblbracketright">
          498 -249 52 896 52 hstem
          151 52 93 52 vstem
          348 -249 rmoveto
          1000 -308 -52 111 -896 -111 -52 vlineto
          256 52 rmoveto
          -93 896 93 hlineto
          endchar
        </CharString>
        <CharString name="dblgrave.ts1">
          611 530 88 callgsubr
          256 529 46 callsubr
          226 20 46 callsubr
          endchar
        </CharString>
        <CharString name="dblverticalbar">
          536 750 -20 hstem
          164 52 104 52 vstem
          216 -211 rmoveto
          26 callsubr
          156 hmoveto
          26 callsubr
          endchar
        </CharString>
        <CharString name="dcaron">
          676 -10 32 -22 39 370 32 39 -21 145 90 -50 39 -39 50 hstemhm
          54 95 231 79 79 79 hintmask 0100001001000000
          47 callsubr
          hintmask 1010010110000000
          -18 callgsubr
          hintmask 0100000001000000
          60 callgsubr
          hintmask 1010001100000000
          -29 callgsubr
          225 295 rmoveto
          46 -19 37 -35 -30 -15 -22 -23 vhcurveto
          hintmask 0001100000000000
          -23 15 -22 30 15 10 6 5 5 vhcurveto
          -67 -31 -41 -26 -22 vhcurveto
          -7 -7 -2 -2 -5 vvcurveto
          -6 6 -6 6 11 67 59 93 vhcurveto
          endchar
        </CharString>
        <CharString name="dcroat">
          676 -10 32 -22 39 370 32 82 40 81 39 -39 50 hstemhm
          380 120 callsubr
          cntrmask 0000001110000000
          hintmask 0101011110000000
          617 79 callgsubr
          428 79 40 -79 131 vlineto
          hintmask 1011101110000000
          -158 -68 callsubr
          -25 -189 -40 189 -138 vlineto
          39 -44 -49 17 -54 hhcurveto
          -140 -118 -100 -126 -124 111 -101 135 60 52 22 40 43 hvcurveto
          -62 vlineto
          hintmask 0100001110000000
          60 callgsubr
          hintmask 1010001110000000
          -29 callgsubr
          endchar
        </CharString>
        <CharString name="ddotbelow">
          676 69 callsubr
          86 callgsubr
          54 95 128 121 -18 79 79 79 hintmask 0010010001000000
          47 callsubr
          hintmask 0101101010000000
          -18 callgsubr
          hintmask 0010000001000000
          60 callgsubr
          hintmask 0101001000000000
          -29 callgsubr
          hintmask 1000000100000000
          -57 -456 -99 callsubr
        </CharString>
        <CharString name="degree">
          458 359 52 220 52 hstem
          67 52 220 52 vstem
          391 521 rmoveto
          90 -72 72 -90 -89 -73 -72 -90 -89 73 -73 89 90 72 73 89 vhcurveto
          -52 hmoveto
          -60 -49 -50 -61 -61 -49 50 60 61 49 49 61 61 49 -49 -61 vhcurveto
          endchar
        </CharString>
        <CharString name="diameter">
          935 -118 52 632 52 hstem
          99 52 632 52 vstem
          855 613 rmoveto
          14 -12 12 -14 -7 -7 -3 -5 -4 vhcurveto
          -103 -103 rlineto
          56 -65 -84 34 -92 hhcurveto
          -203 -165 -165 -203 -92 34 -85 56 -65 hvcurveto
          -102 -103 rlineto
          -5 -4 -3 -7 -7 vvcurveto
          -14 12 -12 14 7 7 3 5 4 vhcurveto
          103 103 rlineto
          -56 65 84 -34 92 hhcurveto
          203 165 165 203 92 -34 85 -56 65 hvcurveto
          102 103 rlineto
          5 4 3 7 7 vvcurveto
          -72 -363 rmoveto
          -175 -141 -141 -175 -78 -71 28 47 -55 vhcurveto
          445 446 rlineto
          47 -55 28 -72 -78 vvcurveto
          -112 241 rmoveto
          -445 -446 rlineto
          -47 55 -28 72 78 vvcurveto
          175 141 141 175 78 71 -28 -47 55 vhcurveto
          endchar
        </CharString>
        <CharString name="died">
          611 -4 -21 361 59 -53 47 149 47 18 -20 hstemhm
          263 63 -62 83 -70 63 -58 63 hintmask 0100000000000000
          561 359 rmoveto
          18 vlineto
          16 -12 2 -9 vhcurveto
          hintmask 0010000010000000
          -69 -69 -6 -69 hhcurveto
          60 4 61 8 59 vhcurveto
          hintmask 0000101000000000
          1 5 1 5 5 vvcurveto
          13 -8 6 -14 vhcurveto
          hintmask 0000100010000000
          -43 hlineto
          hintmask 0001010000000000
          -10 -9 -6 -12 -15 4 -17 2 -15 hvcurveto
          hintmask 0010000100000000
          5 -49 3 -50 -50 vvcurveto
          hintmask 0100000000000000
          -65 -63 6 -65 hhcurveto
          -11 -10 -4 -15 hvcurveto
          -17 vlineto
          -12 2 -11 18 vhcurveto
          hintmask 0010000100000000
          64 65 6 65 hhcurveto
          hintmask 0000001000000000
          -113 -8 -113 -5 -113 vhcurveto
          hintmask 0000010000000000
          -3 -1 -3 -3 vvcurveto
          hintmask 1000000010000000
          -11 6 -8 13 vhcurveto
          hintmask 1000010000000000
          44 hlineto
          hintmask 0000001000000000
          10 11 5 12 hvcurveto
          hintmask 0010000100000000
          36 -4 36 -3 36 vhcurveto
          -7 242 rlineto
          hintmask 0100000000000000
          70 69 -6 70 hhcurveto
          17 2 12 11 hvcurveto
          endchar
        </CharString>
        <CharString name="dieresis">
          611 547 108 hstem
          152 49 callsubr
          vstem
          -36 callgsubr
          endchar
        </CharString>
        <CharString name="dieresis.cap">
          611 481 108 hstem
          133 38 callgsubr
          vstem
          -1 callsubr
          endchar
        </CharString>
        <CharString name="dieresis.dup">
          611 547 108 hstem
          152 49 callsubr
          vstem
          -36 callgsubr
          endchar
        </CharString>
        <CharString name="dieresis.ts1">
          611 563 114 hstem
          135 114 112 114 vstem
          475 620 rmoveto
          30 -26 27 -31 vhcurveto
          -3 -2 -1 -3 hhcurveto
          -31 -4 -18 -26 -26 vvcurveto
          -27 21 -30 36 29 28 23 34 vhcurveto
          -226 hmoveto
          27 -21 30 -36 -3 -2 0 -1 -3 vhcurveto
          -28 -3 -21 -25 -28 vvcurveto
          -30 26 -27 31 33 24 28 29 vhcurveto
          endchar
        </CharString>
        <CharString name="discount">
          611 18 140 -136 -21 593 140 16 -20 21 -20 hstemhm
          121 140 88 140 hintmask 00001000
          531 725 rmoveto
          14 -12 12 -14 vhcurveto
          hintmask 01010000
          -5 -1 -17 -3 -7 -21 -8 -13 rlinecurve
          -62 -108 -253 -442 -48 -83 rlineto
          -9 -16 -16 -20 -17 vvcurveto
          -14 11 -12 14 vhcurveto
          1 hlineto
          20 1 8 22 8 15 71 123 rcurveline
          255 445 41 72 rlineto
          8 14 14 17 15 vvcurveto
          -42 -636 rmoveto
          hintmask 10100110
          -34 -25 -37 -43 vhcurveto
          -4 hlineto
          -44 -24 37 32 34 25 37 43 hvcurveto
          4 hlineto
          44 24 -37 -32 hvcurveto
          -228 575 rmoveto
          -39 -32 -31 -39 -45 -24 38 33 35 26 30 35 4 vhcurveto
          1 3 4 0 3 hhcurveto
          45 24 -38 -33 hvcurveto
          endchar
        </CharString>
        <CharString name="divide">
          935 5 120 99 52 99 120 hstem
          407 120 cntrmask 11100000
          855 250 23 callgsubr
          -328 185 13 callgsubr
          -370 vmoveto
          47 callgsubr
        </CharString>
        <CharString name="divorced">
          611 -83 -21 139 60 312 60 139 -20 hstem
          -210 59 428 56 428 59 cntrmask 00001110
          202 250 rmoveto
          104 -76 113 -128 vhcurveto
          -4 -5 -1 -4 hhcurveto
          -106 -13 -89 -84 -118 vvcurveto
          -112 88 -104 123 116 85 106 109 vhcurveto
          618 2 rmoveto
          107 -85 108 -126 vhcurveto
          -4 -5 -1 -4 hhcurveto
          -109 -14 -78 -90 -111 vvcurveto
          -99 70 -117 132 119 90 104 113 vhcurveto
          -473 -334 rmoveto
          8 -2 8 6 vvcurveto
          -8 118 -4 117 118 vvcurveto
          94 4 97 9 95 vhcurveto
          1 3 0 4 3 vvcurveto
          8 -6 8 -8 1 vhcurveto
          -47 hlineto
          -4 -4 0 -1 -3 hvcurveto
          -9 -3 -3 -8 -9 vvcurveto
          -8 2 -9 1 -6 vhcurveto
          7 -77 4 -78 -78 vvcurveto
          -86 0 -88 -5 -86 vhcurveto
          -6 -114 rlineto
          -1 -13 -2 -15 -13 vvcurveto
          -9 5 -8 9 -1 vhcurveto
          46 hlineto
          20 4 9 13 hvcurveto
          414 337 rmoveto
          -6 0 -6 -1 -6 vhcurveto
          -92 -9 -62 -50 -80 hhcurveto
          -91 -67 69 88 87 68 68 91 80 71 -55 -97 hvcurveto
          -602 -3 rmoveto
          -86 -66 -71 -92 -87 -55 58 85 -10 vhcurveto
          4 -1 4 5 vvcurveto
          87 61 69 91 89 70 -66 -89 vhcurveto
          endchar
        </CharString>
        <CharString name="dlinebelow">
          676 -161 42 109 86 callgsubr
          54 95 231 79 79 79 hintmask 0010010010000000
          47 callsubr
          hintmask 0101101100000000
          -18 callgsubr
          hintmask 0010000010000000
          60 callgsubr
          hintmask 0101001000000000
          -29 callgsubr
          hintmask 1000000000000000
          93 -477 -26 callsubr
        </CharString>
        <CharString name="dollar">
          611 -35 -21 45 41 107 97 71 111 0 111 -53 97 93 41 45 -20 hstemhm
          79 60 147 39 146 60 hintmask 0000011001000000
          531 198 rmoveto
          55 -22 49 -39 39 vhcurveto
          -46 45 -46 10 -53 12 rrcurveto
          256 vlineto
          78 -3 63 -31 20 -59 rrcurveto
          -44 -8 -33 -15 -35 28 -14 20 hvcurveto
          hintmask 1110101111100000
          7 42 2 51 57 -29 103 -165 16 hvcurveto
          -11 1 -1 1 17 vvcurveto
          28 -39 -47 vlineto
          -116 -7 -91 -85 -101 vvcurveto
          -66 37 -45 22 -21 vhcurveto
          48 -43 45 -10 55 -11 rrcurveto
          -284 vlineto
          -80 4 -63 34 -20 69 rrcurveto
          49 4 38 10 37 -31 12 -17 -6 -43 -2 -51 -53 22 -119 175 -18 hvcurveto
          9 -1 1 -1 -17 vvcurveto
          -28 39 47 vlineto
          120 9 86 94 104 vvcurveto
          -245 218 rmoveto
          -31 6 -116 24 95 vvcurveto
          55 53 60 94 8 vhcurveto
          185 -497 rmoveto
          -65 -57 -63 -89 -9 vhcurveto
          hintmask 0001000001100000
          275 vlineto
          118 -19 28 -75 -44 vvcurveto
          endchar
        </CharString>
        <CharString name="dollar.oldstyle">
          740 -7 41 -37 40 -37 41 hstemhm
          79 61 -61 97 108 40 93 40 0 40 67 97 -61 61 cntrmask 1110000000000000
          hintmask 1110111010000000
          661 198 rmoveto
          11 vlineto
          -12 96 -87 73 -105 16 rrcurveto
          266 vlineto
          33 61 -16 -27 32 hvcurveto
          15 -13 9 -15 9 -17 rrcurveto
          -33 -19 -22 -27 -27 22 -21 27 37 11 30 25 100 -77 44 -76 18 hvcurveto
          3 -17 -17 5 -17 hhcurveto
          51 -40 -47 -93 47 -40 -53 vlineto
          0 -13 -2 -12 -4 vhcurveto
          -96 -27 -84 -53 -104 vvcurveto
          -102 109 -52 73 -20 vhcurveto
          11 -2 12 -3 0 vvcurveto
          -292 vlineto
          -47 4 -56 18 -35 39 -10 12 -6 14 -7 14 rrcurveto
          30 23 17 32 27 -21 21 -27 -29 -20 -20 -34 -111 88 -52 95 -18 hvcurveto
          9 -2 13 -1 0 vvcurveto
          -52 40 48 vlineto
          0 28 -2 18 18 29 2 0 vhcurveto
          -48 40 55 vlineto
          hintmask 1110010110000000
          0 25 6 15 5 vhcurveto
          81 26 83 69 92 vvcurveto
          -244 205 rmoveto
          -93 22 rlineto
          238 vlineto
          hintmask 1111011001000000
          93 hlineto
          -133 -231 rmoveto
          -55 8 -89 39 65 vvcurveto
          3 vlineto
          6 65 94 38 44 6 rrcurveto
          316 -490 rmoveto
          -68 -90 -47 -53 -10 vhcurveto
          251 vlineto
          56 -16 87 -31 -76 vvcurveto
          -183 -135 rmoveto
          0 -31 -3 -16 vhcurveto
          -46 1 rlineto
          288 vlineto
          93 -19 rlineto
          endchar
        </CharString>
        <CharString name="dong">
          676 -40 40 116 40 hstem
          586 35 rmoveto
          37 vlineto
          -66 -9 6 47 hvcurveto
          407 75 38 -75 124 vlineto
          -150 -10 rlineto
          -37 vlineto
          66 9 -7 -47 hvcurveto
          -23 -180 -38 180 -132 vlineto
          38 -42 -46 16 -52 hhcurveto
          -133 -112 -95 -120 -118 106 -96 128 57 49 21 38 41 hvcurveto
          -59 vlineto
          154 -45 rmoveto
          11 -9 9 -11 vhcurveto
          -495 hlineto
          48 callgsubr
          495 hlineto
          11 9 9 11 hvcurveto
          -154 176 rmoveto
          -18 0 -3 -15 -19 vhcurveto
          -57 -47 -61 -3 -18 hhcurveto
          -39 -42 15 37 -32 hvcurveto
          -30 37 -6 51 43 vvcurveto
          173 127 11 33 32 48 -10 -42 37 vhcurveto
          13 -16 0 -2 -18 vvcurveto
          endchar
        </CharString>
        <CharString name="dotaccent">
          352 541 74 callsubr
          601 -99 callsubr
        </CharString>
        <CharString name="dotaccent.alt">
          352 497 74 callsubr
          557 -99 callsubr
        </CharString>
        <CharString name="dotaccent.cap">
          352 481 74 callsubr
          541 -99 callsubr
        </CharString>
        <CharString name="dotlessi">
          0 callgsubr
          hstemhm
          64 79 0 79 hintmask 10101000
          293 hmoveto
          39 vlineto
          -62 -9 0 42 hvcurveto
          360 vlineto
          hintmask 01001000
          -154 -11 rlineto
          -39 vlineto
          66 80 callgsubr
          hintmask 10010000
          -82 callgsubr
          117 4 rlineto
          10 76 -2 -2 26 hvcurveto
          endchar
        </CharString>
        <CharString name="dotlessj">
          39 callgsubr
          hstemhm
          -20 97 106 79 hintmask 01111000
          262 -56 callsubr
          vhcurveto
          hintmask 10001000
          36 callsubr
          endchar
        </CharString>
        <CharString name="e">
          -36 callsubr
          hstem
          54 callgsubr
          vstem
          -104 callgsubr
          endchar
        </CharString>
        <CharString name="eacute">
          -36 callsubr
          79 -21 194 -84 callsubr
          -7 398 -86 callgsubr
        </CharString>
        <CharString name="ebreve">
          -36 callsubr
          66 49 130 -84 callsubr
          25 435 -99 callgsubr
          endchar
        </CharString>
        <CharString name="ecaron">
          -36 callsubr
          88 -21 176 -90 callgsubr
          hintmask 00001101
          419 vmoveto
          -53 callgsubr
        </CharString>
        <CharString name="ecircumflex">
          -36 callsubr
          88 -21 176 -90 callgsubr
          hintmask 00001101
          271 vmoveto
          -64 callgsubr
          endchar
        </CharString>
        <CharString name="ecircumflexacute">
          -36 callsubr
          88 -21 319 -84 callsubr
          -1 273 -91 callsubr
          -22 267 -102 callsubr
        </CharString>
        <CharString name="ecircumflexdotbelow">
          546 69 callsubr
          35 61 32 108 70 callgsubr
          88 -21 176 -20 hstemhm
          48 95 69 121 93 73 hintmask 0111111101000000
          -104 callgsubr
          271 vmoveto
          -64 callgsubr
          hintmask 1000000010000000
          -80 -653 -99 callsubr
        </CharString>
        <CharString name="ecircumflexgrave">
          -36 callsubr
          88 -21 133 -84 callsubr
          -1 273 -66 callsubr
        </CharString>
        <CharString name="ecircumflexhookabove">
          -36 callsubr
          88 -21 335 -84 callsubr
          -1 273 -91 callsubr
          89 269 -107 callgsubr
        </CharString>
        <CharString name="ecircumflextilde">
          -36 callsubr
          88 -21 173 60 -16 60 49 callgsubr
          hintmask 1111000110000000
          -104 callgsubr
          hintmask 0000101000000000
          -1 273 8 callsubr
          hintmask 0000010000000000
          -38 -40 -26 -6 -23 hhcurveto
          -24 -22 9 11 -25 hvcurveto
          hintmask 0000001000000000
          -86 callsubr
          hintmask 0000010000000000
          22 -23 rlineto
          hintmask 0000001000000000
          38 40 26 6 23 hhcurveto
          24 22 -9 -11 25 hvcurveto
          hintmask 0000010000000000
          -88 callsubr
        </CharString>
        <CharString name="edblgrave">
          -36 callsubr
          80 -21 192 -84 callsubr
          -8 270 -91 callgsubr
        </CharString>
        <CharString name="edieresis">
          -36 callsubr
          101 108 hstemhm
          48 95 -23 49 callsubr
          -2 73 hintmask 1111010010000000
          -104 callgsubr
          hintmask 0000101100000000
          -197 345 -59 callsubr
        </CharString>
        <CharString name="edotaccent">
          -36 callsubr
          95 120 hstemhm
          48 95 69 121 93 73 hintmask 11110101
          -104 callgsubr
          hintmask 00001010
          -93 345 -99 callsubr
        </CharString>
        <CharString name="edotbelow">
          546 69 callsubr
          35 61 32 108 70 callgsubr
          hstemhm
          48 95 69 121 93 73 hintmask 01111101
          -104 callgsubr
          hintmask 10000010
          -93 -396 -99 callsubr
        </CharString>
        <CharString name="egrave">
          -36 callsubr
          79 -21 194 -84 callsubr
          -80 277 -59 callgsubr
        </CharString>
        <CharString name="ehookabove">
          -36 callsubr
          75 -21 202 -84 callsubr
          -38 380 -107 callgsubr
        </CharString>
        <CharString name="eight">
          611 -21 36 445 36 136 33 hstemhm
          63 71 callgsubr
          547 -74 callgsubr
        </CharString>
        <CharString name="eight.oldstyle">
          656 -21 36 445 36 136 33 hstemhm
          86 71 callgsubr
          570 -74 callgsubr
        </CharString>
        <CharString name="eight.prop">
          656 -21 36 445 36 136 33 hstemhm
          86 71 callgsubr
          570 -74 callgsubr
        </CharString>
        <CharString name="eight.taboldstyle">
          611 -21 36 445 36 136 33 hstemhm
          63 71 callgsubr
          547 -74 callgsubr
        </CharString>
        <CharString name="ellipsis">
          802 0 120 hstem
          116 120 105 120 105 120 cntrmask 01110000
          236 60 13 callgsubr
          225 hmoveto
          -28 callsubr
          225 hmoveto
          47 callgsubr
        </CharString>
        <CharString name="emacron">
          -36 callsubr
          134 42 49 callgsubr
          hintmask 11110110
          -104 callgsubr
          hintmask 00001000
          58 324 -26 callsubr
        </CharString>
        <CharString name="emdash">
          1222 250 32 hstem
          28 1165 vstem
          1193 250 rmoveto
          32 -1165 -32 vlineto
          endchar
        </CharString>
        <CharString name="emdash.alt">
          833 250 33 hstem
          804 250 rmoveto
          33 -776 -33 vlineto
          endchar
        </CharString>
        <CharString name="endash">
          611 250 32 hstem
          14 582 vstem
          596 250 rmoveto
          32 -582 -32 vlineto
          endchar
        </CharString>
        <CharString name="eng">
          611 -215 84 131 105 callgsubr
          105 83 -32 83 0 83 hintmask 00010001
          547 82 rmoveto
          220 vlineto
          98 -56 41 -101 -88 -55 -46 -48 -29 vhcurveto
          94 vlineto
          hintmask 01101000
          -78 callgsubr
          hintmask 00010010
          110 94 41 62 67 16 -42 -62 vhcurveto
          -223 vlineto
          hintmask 10000101
          -98 0 -112 -51 -37 vhcurveto
          19 -4 -17 15 -20 hhcurveto
          -23 -19 -19 -23 -24 19 -18 23 127 48 151 146 hvcurveto
          endchar
        </CharString>
        <CharString name="eogonek">
          101 callgsubr
          49 callgsubr
          hintmask 1011011110000000
          1 callsubr
          hintmask 0100111010000000
          -42 callsubr
          -110 5 0 101 100 62 rrcurveto
          101 23 38 82 19 vvcurveto
          -73 136 rmoveto
          -281 hlineto
          134 11 92 24 41 hhcurveto
          129 7 -129 -29 1 hvcurveto
          endchar
        </CharString>
        <CharString name="eogonekacute">
          101 callgsubr
          79 -21 194 -20 49 callgsubr
          hintmask 1011011001100000
          1 callsubr
          hintmask 0100111000100000
          -42 callsubr
          -110 5 0 101 100 62 rrcurveto
          101 23 38 82 19 vvcurveto
          -73 136 rmoveto
          -281 hlineto
          134 11 92 24 41 hhcurveto
          129 7 -129 -29 1 hvcurveto
          hintmask 0000000110000000
          -7 398 -86 callgsubr
        </CharString>
        <CharString name="equal">
          935 109 52 178 52 hstem
          79 776 vstem
          855 365 23 callgsubr
          -230 vmoveto
          26 -23 0 -14 vhcurveto
          -702 154 callgsubr
          692 hlineto
          15 27 0 26 hvcurveto
          endchar
        </CharString>
</ttFont>
